<?xml version="1.0" encoding="UTF-8" standalone="no"?>
<!-- Created with Inkscape (http://www.inkscape.org/) -->

<svg
   width="40"
   height="40"
   viewBox="0 0 40 40"
   version="1.1"
   id="svg1"
   xmlns:xlink="http://www.w3.org/1999/xlink"
   xmlns="http://www.w3.org/2000/svg"
   xmlns:svg="http://www.w3.org/2000/svg"
   xmlns:rdf="http://www.w3.org/1999/02/22-rdf-syntax-ns#"
   xmlns:cc="http://creativecommons.org/ns#"
   xmlns:dc="http://purl.org/dc/elements/1.1/">
  <title
     id="title1">Pydidas frame icon: Image math</title>
  <defs
     id="defs1">
    <rect
       x="0.11325034"
       y="11.041908"
       width="39.750868"
       height="19.592308"
       id="rect2" />
    <rect
       x="0.67950201"
       y="11.551534"
       width="38.67499"
       height="14.892419"
       id="rect1" />
    <rect
       x="-2.7808754"
       y="26.120365"
       width="50.750975"
       height="18.472958"
       id="rect3" />
    <linearGradient
       id="linearGradient3">
      <stop
         style="stop-color:#ffffff;stop-opacity:0.39525691;"
         offset="0"
         id="stop1" />
      <stop
         style="stop-color:#c8c8c8;stop-opacity:0.3992095;"
         offset="0.63558418"
         id="stop2" />
      <stop
         style="stop-color:#000000;stop-opacity:0;"
         offset="1"
         id="stop3" />
    </linearGradient>
    <radialGradient
       xlink:href="#linearGradient5488"
       id="radialGradient5490"
       cx="26.458332"
       cy="54.70821"
       fx="26.458332"
       fy="54.70821"
       r="6.6662598"
       gradientTransform="matrix(1.46259,0,0,1.46259,-28.197696,-69.515677)"
       gradientUnits="userSpaceOnUse" />
    <linearGradient
       id="linearGradient5488">
      <stop
         style="stop-color:#ffffff;stop-opacity:1;"
         offset="0"
         id="stop5484" />
      <stop
         style="stop-color:#c8c8c8;stop-opacity:0.80769229;"
         offset="0.11551156"
         id="stop6286" />
      <stop
         style="stop-color:#000000;stop-opacity:0;"
         offset="1"
         id="stop5486" />
    </linearGradient>
    <radialGradient
       xlink:href="#linearGradient3"
       id="radialGradient5490-6"
       cx="26.458332"
       cy="54.70821"
       fx="26.458332"
       fy="54.70821"
       r="6.6662598"
       gradientTransform="matrix(1.46259,0,0,1.46259,-9.1976933,-64.515675)"
       gradientUnits="userSpaceOnUse" />
    <rect
       x="33.203125"
       y="57.03125"
       width="39.212132"
       height="17.609484"
       id="rect1649" />
  </defs>
  <rect
     style="fill:#000000;fill-opacity:1;stroke:#6e6e6e;stroke-width:1.49999;stroke-linecap:round;stroke-linejoin:miter;stroke-dasharray:none;stroke-dashoffset:0.643179;stroke-opacity:1;paint-order:stroke fill markers;stop-color:#000000"
     id="rect4972"
     width="19.500013"
     height="19.500008"
     x="0.74999499"
     y="0.74999499"
     ry="0" />
  <ellipse
     style="fill:url(#radialGradient5490);fill-opacity:1;stroke:none;stroke-width:2.93087;stroke-linecap:round;stroke-linejoin:round;stroke-dashoffset:0.643179;paint-order:stroke fill markers;stop-color:#000000"
     id="path5026"
     cx="10.500001"
     cy="10.499999"
     rx="9.7500067"
     ry="9.7500038" />
  <ellipse
     style="fill:none;fill-opacity:1;stroke:#787878;stroke-width:0.685731;stroke-linecap:round;stroke-linejoin:round;stroke-dasharray:0.685731, 2.05718;stroke-dashoffset:0;stroke-opacity:0.80281699;paint-order:stroke fill markers;stop-color:#000000"
     id="path9364"
     cx="10.478806"
     cy="10.480589"
     rx="5.6795297"
     ry="5.6784825" />
  <ellipse
     style="fill:none;fill-opacity:1;stroke:#9b9b9b;stroke-width:0.716779;stroke-linecap:round;stroke-linejoin:round;stroke-dasharray:0.716779, 1.43356;stroke-dashoffset:0.716779;stroke-opacity:0.80281699;paint-order:stroke fill markers;stop-color:#000000"
     id="path9364-7"
     cx="10.512108"
     cy="10.514012"
     rx="8.6548643"
     ry="8.6556196" />
  <ellipse
     style="fill:#000000;fill-opacity:1;stroke:none;stroke-width:0.679294;stroke-linecap:round;stroke-linejoin:round;stroke-dasharray:0.679294, 2.03788;stroke-dashoffset:0;stroke-opacity:0.802817;paint-order:stroke fill markers;stop-color:#000000"
     id="path12148"
     cx="10.500001"
     cy="10.499999"
     rx="1.1250006"
     ry="1.1250005" />
  <rect
     style="fill:#000000;fill-opacity:1;stroke:#6e6e6e;stroke-width:1.49999;stroke-linecap:round;stroke-linejoin:miter;stroke-dasharray:none;stroke-dashoffset:0.643179;stroke-opacity:1;paint-order:stroke fill markers;stop-color:#000000"
     id="rect4972-2"
     width="19.500013"
     height="19.500008"
     x="19.749994"
     y="5.7499943"
     ry="0" />
  <ellipse
     style="fill:url(#radialGradient5490-6);fill-opacity:1;stroke:none;stroke-width:2.93087;stroke-linecap:round;stroke-linejoin:round;stroke-dashoffset:0.643179;paint-order:stroke fill markers;stop-color:#000000"
     id="path5026-0"
     cx="29.500002"
     cy="15.500004"
     rx="9.7500067"
     ry="9.7500038" />
  <ellipse
     style="fill:none;fill-opacity:1;stroke:#969696;stroke-width:0.685731;stroke-linecap:round;stroke-linejoin:round;stroke-dasharray:0.685731, 2.05718;stroke-dashoffset:0;stroke-opacity:1;paint-order:stroke fill markers;stop-color:#000000"
     id="path9364-9"
     cx="29.478807"
     cy="15.480595"
     rx="5.6795297"
     ry="5.6784825" />
  <ellipse
     style="fill:#000000;fill-opacity:1;stroke:none;stroke-width:0.679294;stroke-linecap:round;stroke-linejoin:round;stroke-dasharray:0.679294, 2.03788;stroke-dashoffset:0;stroke-opacity:0.802817;paint-order:stroke fill markers;stop-color:#000000"
     id="path12148-2"
     cx="29.5"
     cy="15.500004"
     rx="1.1250006"
     ry="1.1250005" />
  <metadata
     id="metadata1">
    <rdf:RDF>
      <cc:License
         rdf:about="http://creativecommons.org/licenses/by-nc-nd/4.0/">
        <cc:permits
           rdf:resource="http://creativecommons.org/ns#Reproduction" />
        <cc:permits
           rdf:resource="http://creativecommons.org/ns#Distribution" />
        <cc:requires
           rdf:resource="http://creativecommons.org/ns#Notice" />
        <cc:requires
           rdf:resource="http://creativecommons.org/ns#Attribution" />
        <cc:prohibits
           rdf:resource="http://creativecommons.org/ns#CommercialUse" />
      </cc:License>
      <cc:Work
         rdf:about="">
        <cc:license
           rdf:resource="http://creativecommons.org/licenses/by-nc-nd/4.0/" />
        <dc:title>Pydidas frame icon: Image math</dc:title>
        <dc:creator>
          <cc:Agent>
            <dc:title>Malte Storm</dc:title>
          </cc:Agent>
        </dc:creator>
        <dc:rights>
          <cc:Agent>
            <dc:title>Helmholtz-Zentrum Hereon GmbH</dc:title>
          </cc:Agent>
        </dc:rights>
      </cc:Work>
    </rdf:RDF>
  </metadata>
  <path
     style="font-weight:bold;font-size:19.3333px;font-family:Calibri;-inkscape-font-specification:'Calibri Bold';fill:#eeeeee"
     d="m 9.8381203,12.571566 q 0,0.264323 -0.02832,0.443684 -0.02832,0.179362 -0.084961,0.292643 -0.05664,0.103841 -0.1321612,0.151041 -0.075521,0.0472 -0.1604815,0.0472 H 6.4963293 v 3.20019 q 0,0.0944 -0.0472,0.169921 -0.0472,0.06608 -0.1604815,0.122721 -0.1132811,0.0472 -0.3020828,0.07552 -0.1888018,0.02832 -0.4720044,0.02832 -0.2832027,0 -0.4720044,-0.02832 -0.1888018,-0.02832 -0.3020828,-0.07552 -0.1132811,-0.05664 -0.1699216,-0.122721 -0.0472,-0.07552 -0.0472,-0.169921 v -3.20019 H 1.5969238 q -0.084961,0 -0.1604815,-0.0472 -0.066081,-0.0472 -0.1227212,-0.151041 Q 1.2570806,13.194612 1.2193203,13.01525 1.191,12.835889 1.191,12.571566 q 0,-0.254882 0.02832,-0.434244 0.02832,-0.188802 0.075521,-0.292643 0.056641,-0.113281 0.1227211,-0.160481 0.066081,-0.0472 0.1510414,-0.0472 H 4.523351 V 8.4462479 q 0,-0.094401 0.0472,-0.1699216 0.05664,-0.084961 0.1699216,-0.1321612 0.113281,-0.056641 0.3020828,-0.084961 0.1888017,-0.02832 0.4720044,-0.02832 0.2832026,0 0.4720044,0.02832 0.1888017,0.02832 0.3020828,0.084961 0.113281,0.0472 0.1604815,0.1321612 0.0472,0.075521 0.0472,0.1699216 v 3.1907501 h 2.9641875 q 0.075521,0 0.1416014,0.0472 0.075521,0.0472 0.1227211,0.160481 0.056641,0.103841 0.084961,0.292643 0.02832,0.179362 0.02832,0.434244 z m 9.5628087,0 q 0,0.490885 -0.103841,0.708007 -0.0944,0.207682 -0.311523,0.207682 h -7.703112 q -0.236002,0 -0.339843,-0.207682 -0.0944,-0.217122 -0.0944,-0.708007 0,-0.481444 0.0944,-0.698566 0.103841,-0.217122 0.339843,-0.217122 h 7.703112 q 0.217122,0 0.311523,0.207682 0.103841,0.207682 0.103841,0.708006 z m 6.626941,-0.01888 2.614904,2.605464 q 0.06608,0.06608 0.0944,0.141602 0.02832,0.07552 0.02832,0.151041 0,0.169922 -0.132161,0.368163 -0.122721,0.198242 -0.302083,0.368164 -0.169921,0.160481 -0.358723,0.273762 -0.188802,0.113281 -0.311523,0.113281 -0.07552,0 -0.141601,-0.02832 -0.05664,-0.03776 -0.113281,-0.08496 l -2.633785,-2.643224 -2.624344,2.605464 q -0.05664,0.05664 -0.132161,0.0944 -0.07552,0.02832 -0.160482,0.02832 -0.169921,0 -0.368163,-0.122721 -0.188802,-0.132161 -0.358724,-0.302083 -0.160481,-0.179361 -0.273762,-0.368163 -0.103841,-0.188802 -0.103841,-0.311523 0,-0.141601 0.113281,-0.254883 l 2.643225,-2.633784 -2.614905,-2.6243444 q -0.0472,-0.056641 -0.08496,-0.1321612 -0.03776,-0.075521 -0.03776,-0.1510414 0,-0.1793617 0.122721,-0.3681634 0.132162,-0.1982419 0.302083,-0.3587234 0.179362,-0.1699215 0.368164,-0.2832026 0.188801,-0.113281 0.320963,-0.113281 0.141601,0 0.254882,0.1227211 l 2.633784,2.6432243 2.614905,-2.614904 q 0.05664,-0.056641 0.122721,-0.084961 0.07552,-0.03776 0.169921,-0.03776 0.169922,0 0.368164,0.1321612 0.198242,0.1321613 0.358723,0.3115229 0.169922,0.1699216 0.273763,0.3587234 0.113281,0.1793616 0.113281,0.3020828 0,0.056641 -0.02832,0.1321612 -0.01888,0.066081 -0.08496,0.1227212 z m 9.69497,-3.5589131 q 0,0.3964837 -0.07552,0.6608062 -0.06608,0.2643224 -0.226562,0.4342439 -0.151042,0.169922 -0.424804,0.245442 -0.264323,0.07552 -0.651366,0.07552 -0.396484,0 -0.660806,-0.07552 -0.264323,-0.07552 -0.424804,-0.245442 -0.151042,-0.1699215 -0.217122,-0.4342439 -0.06608,-0.2643225 -0.06608,-0.6608062 0,-0.3964836 0.06608,-0.6702462 0.06608,-0.2832026 0.217122,-0.4531242 0.160481,-0.1699216 0.424804,-0.2454423 0.264322,-0.084961 0.660806,-0.084961 0.387043,0 0.651366,0.084961 0.273762,0.075521 0.424804,0.2454423 0.160481,0.1699216 0.226562,0.4531242 0.07552,0.2737626 0.07552,0.6702462 z m 3.077468,3.5683531 q 0,0.254882 -0.02832,0.434244 -0.02832,0.169922 -0.07552,0.283203 -0.03776,0.103841 -0.103841,0.151041 -0.06608,0.0472 -0.141601,0.0472 h -8.203436 q -0.08496,0 -0.151042,-0.0472 -0.06608,-0.0472 -0.113281,-0.151041 -0.03776,-0.113281 -0.05664,-0.283203 -0.01888,-0.179362 -0.01888,-0.434244 0,-0.254882 0.01888,-0.424804 0.01888,-0.179362 0.05664,-0.283202 0.0472,-0.103841 0.113281,-0.151042 0.06608,-0.0472 0.151042,-0.0472 h 8.203436 q 0.07552,0 0.141601,0.0472 0.06608,0.0472 0.103841,0.151042 0.0472,0.10384 0.07552,0.283202 0.02832,0.169922 0.02832,0.424804 z M 35.72284,16.18712 q 0,0.387043 -0.07552,0.660806 -0.06608,0.264322 -0.226562,0.434244 -0.151042,0.160481 -0.424804,0.236002 -0.264323,0.07552 -0.651366,0.07552 -0.396484,0 -0.660806,-0.07552 -0.264323,-0.07552 -0.424804,-0.236002 -0.151042,-0.169922 -0.217122,-0.434244 -0.06608,-0.273763 -0.06608,-0.660806 0,-0.405924 0.06608,-0.679687 0.06608,-0.283202 0.217122,-0.453124 0.160481,-0.169921 0.424804,-0.245442 0.264322,-0.07552 0.660806,-0.07552 0.387043,0 0.651366,0.07552 0.273762,0.07552 0.424804,0.245442 0.160481,0.169922 0.226562,0.453124 0.07552,0.273763 0.07552,0.679687 z"
     id="text1"
     aria-label="+−×÷" />
  <path
     style="font-weight:bold;font-size:14.6667px;font-family:Calibri;-inkscape-font-specification:'Calibri Bold';fill:#00aae6"
     d="m 2.4066917,37.145281 q 0,0.07162 -0.042969,0.128906 -0.042969,0.05013 -0.150391,0.08594 -0.1002606,0.03581 -0.272136,0.05013 -0.1718754,0.02148 -0.43685,0.02148 -0.2649745,0 -0.4368499,-0.02148 -0.17187542,-0.01432 -0.27929754,-0.05013 -0.10026065,-0.03581 -0.1432295,-0.08594 -0.0429688,-0.05729 -0.0429688,-0.128906 v -9.417339 q 0,-0.07161 0.0429688,-0.128907 0.0429689,-0.05729 0.1432295,-0.0931 0.10742212,-0.04297 0.27929754,-0.06445 0.1718754,-0.02149 0.4368499,-0.02149 0.2649746,0 0.43685,0.02149 0.1718754,0.02148 0.272136,0.06445 0.1074222,0.03581 0.150391,0.0931 0.042969,0.05729 0.042969,0.128907 z M 10.663872,33.88681 q 0,0.816408 -0.214844,1.489587 -0.214844,0.673178 -0.6516944,1.160159 -0.43685,0.48698 -1.0957057,0.751954 -0.6588557,0.264975 -1.5397171,0.264975 -0.8522155,0 -1.4824253,-0.236329 Q 5.0492758,37.080828 4.6339102,36.629655 4.2185447,36.178482 4.0180234,35.519626 3.8175021,34.86077 3.8175021,34.015716 q 0,-0.816408 0.2148442,-1.489586 0.2220058,-0.68034 0.6588557,-1.160159 0.43685,-0.486981 1.0885442,-0.751955 0.6588557,-0.264975 1.5397171,-0.264975 0.8593769,0 1.4895867,0.236329 0.6302098,0.229167 1.0384139,0.68034 0.4153651,0.451173 0.6158871,1.110029 0.200521,0.658855 0.200521,1.511071 z m -1.854822,0.07162 q 0,-0.472658 -0.078776,-0.866539 Q 8.6586591,32.690844 8.4796222,32.397223 8.3005853,32.103603 7.9998034,31.938889 7.7061829,31.774175 7.25501,31.774175 q -0.4010426,0 -0.7018245,0.150391 -0.300782,0.143229 -0.4941418,0.429688 -0.1933598,0.279298 -0.2936205,0.68034 -0.093099,0.393882 -0.093099,0.902346 0,0.472658 0.078776,0.8737 0.078776,0.393881 0.2506516,0.687502 0.1790369,0.29362 0.4798188,0.458334 0.300782,0.157553 0.7447934,0.157553 0.4082041,0 0.708986,-0.14323 0.3007819,-0.150391 0.4941418,-0.429688 0.1933598,-0.279298 0.286459,-0.673179 0.093099,-0.401043 0.093099,-0.909507 z m 9.037781,-2.757168 q 0,0.343751 -0.07878,0.508465 -0.07878,0.164713 -0.19336,0.164713 H 16.82274 q 0.157553,0.171876 0.222006,0.393882 0.07162,0.214844 0.07162,0.451172 0,0.558596 -0.186199,0.995445 -0.186198,0.429689 -0.53711,0.730471 -0.343751,0.29362 -0.837893,0.451173 -0.48698,0.150391 -1.088544,0.150391 -0.307944,0 -0.587241,-0.07161 -0.279298,-0.07878 -0.429689,-0.179037 -0.08594,0.0931 -0.157552,0.222006 -0.06445,0.128906 -0.06445,0.286459 0,0.207683 0.179037,0.343751 0.186198,0.128906 0.515626,0.143229 l 1.55404,0.05729 q 0.544272,0.02148 0.966799,0.157552 0.429688,0.128907 0.716147,0.372397 0.293621,0.236329 0.444012,0.572918 0.157552,0.336589 0.157552,0.766278 0,0.472657 -0.207682,0.888023 -0.207683,0.422527 -0.623049,0.73047 -0.415365,0.307944 -1.045575,0.48698 -0.623048,0.179037 -1.460941,0.179037 -0.816408,0 -1.396488,-0.128906 -0.572918,-0.128907 -0.945314,-0.358074 -0.365235,-0.229167 -0.537111,-0.551433 -0.164714,-0.315105 -0.164714,-0.694664 0,-0.236328 0.05729,-0.451172 0.06445,-0.214845 0.179037,-0.415366 0.121745,-0.19336 0.29362,-0.372397 0.171876,-0.179037 0.393881,-0.34375 -0.307943,-0.164714 -0.479818,-0.444012 -0.164714,-0.286459 -0.164714,-0.623048 0,-0.422527 0.19336,-0.766278 0.193359,-0.350912 0.501303,-0.63021 -0.250652,-0.250651 -0.401043,-0.601564 -0.150391,-0.350912 -0.150391,-0.8737 0,-0.558595 0.19336,-0.995445 0.200521,-0.444011 0.551434,-0.744793 0.350912,-0.307943 0.837892,-0.465496 0.48698,-0.164714 1.074221,-0.164714 0.300782,0 0.572918,0.03581 0.279298,0.03581 0.515627,0.10026 h 2.026697 q 0.121745,0 0.19336,0.157553 0.07878,0.157552 0.07878,0.529949 z m -2.313156,1.511071 q 0,-0.515626 -0.286459,-0.802085 -0.286459,-0.286459 -0.809247,-0.286459 -0.264975,0 -0.465496,0.0931 -0.200521,0.08594 -0.336589,0.24349 -0.128907,0.150391 -0.19336,0.358074 -0.06445,0.200521 -0.06445,0.422527 0,0.48698 0.286459,0.773439 0.286459,0.279298 0.794923,0.279298 0.272136,0 0.472658,-0.08594 0.200521,-0.08594 0.329428,-0.236329 0.136068,-0.150391 0.200521,-0.34375 0.07162,-0.200522 0.07162,-0.415366 z m 0.422527,5.09897 q 0,-0.322266 -0.257813,-0.494142 -0.257814,-0.171875 -0.708986,-0.186198 l -1.281904,-0.03581 q -0.186199,0.136068 -0.300782,0.264974 -0.107423,0.121745 -0.179037,0.236329 -0.06445,0.114583 -0.08594,0.222006 -0.02148,0.107422 -0.02148,0.222005 0,0.358074 0.358073,0.544272 0.365236,0.186199 1.024091,0.186199 0.408204,0 0.687502,-0.08594 0.279297,-0.07878 0.451173,-0.214844 0.171875,-0.136068 0.24349,-0.307944 0.07161,-0.164714 0.07161,-0.350912 z m 10.412785,-0.759116 q -0.03581,0.136068 -0.0931,0.222005 -0.05729,0.07878 -0.186198,0.121746 -0.121745,0.04297 -0.343751,0.05013 -0.214844,0.01432 -0.58008,0.01432 -0.379558,0 -0.608725,-0.01432 -0.229167,-0.01432 -0.372397,-0.05729 -0.136068,-0.03581 -0.200521,-0.114584 -0.05729,-0.07878 -0.0931,-0.207682 l -1.496748,-5.070324 h -0.651695 q -0.07161,0 -0.128906,-0.03581 -0.05013,-0.03581 -0.0931,-0.121745 -0.03581,-0.0931 -0.05729,-0.229167 -0.02148,-0.14323 -0.02148,-0.358074 0,-0.207683 0.02148,-0.343751 0.02865,-0.143229 0.06445,-0.229167 0.04297,-0.08594 0.100261,-0.121745 0.06445,-0.04297 0.136068,-0.04297 h 1.60417 q 0.250652,0 0.408204,0.100261 0.157553,0.100261 0.207683,0.307943 l 1.181643,4.647797 h 0.02148 l 1.654301,-7.175797 q 0.02148,-0.107422 0.06445,-0.179037 0.05013,-0.07162 0.157552,-0.114584 0.114584,-0.04297 0.307944,-0.05729 0.193359,-0.02148 0.508464,-0.02148 0.300782,0 0.472658,0.02148 0.179037,0.01432 0.257813,0.08594 0.07878,0.07162 0.07162,0.222006 -0.0072,0.143229 -0.07162,0.38672 z m 5.414074,-0.694663 q 0,0.666017 -0.236329,0.895184 -0.229167,0.229167 -0.830731,0.229167 -0.601564,0 -0.830731,-0.222005 -0.229167,-0.229168 -0.229167,-0.859377 0,-0.673179 0.229167,-0.902346 0.236328,-0.229167 0.845054,-0.229167 0.594402,0 0.823569,0.229167 0.229168,0.222005 0.229168,0.859377 z m 3.917327,0 q 0,0.666017 -0.236328,0.895184 -0.229167,0.229167 -0.830731,0.229167 -0.601564,0 -0.830731,-0.222005 -0.229168,-0.229168 -0.229168,-0.859377 0,-0.673179 0.229168,-0.902346 0.236328,-0.229167 0.845054,-0.229167 0.594402,0 0.823569,0.229167 0.229167,0.222005 0.229167,0.859377 z m 3.917328,0 q 0,0.666017 -0.236328,0.895184 -0.229168,0.229167 -0.830731,0.229167 -0.601564,0 -0.830731,-0.222005 -0.229168,-0.229168 -0.229168,-0.859377 0,-0.673179 0.229168,-0.902346 0.236328,-0.229167 0.845054,-0.229167 0.594402,0 0.823569,0.229167 0.229167,0.222005 0.229167,0.859377 z"
     id="text2"
     aria-label="log √..." />
</svg>
