<?xml version="1.0" encoding="UTF-8" standalone="no"?>
<!-- Created with Inkscape (http://www.inkscape.org/) -->

<svg
   width="40"
   height="40"
   viewBox="0 0 40 40"
   version="1.1"
   id="svg1"
   inkscape:version="1.4 (86a8ad7, 2024-10-11)"
   sodipodi:docname="analysis_tools_hide.svg"
   xmlns:inkscape="http://www.inkscape.org/namespaces/inkscape"
   xmlns:sodipodi="http://sodipodi.sourceforge.net/DTD/sodipodi-0.dtd"
   xmlns="http://www.w3.org/2000/svg"
   xmlns:svg="http://www.w3.org/2000/svg"
   xmlns:rdf="http://www.w3.org/1999/02/22-rdf-syntax-ns#"
   xmlns:cc="http://creativecommons.org/ns#"
   xmlns:dc="http://purl.org/dc/elements/1.1/">
  <title
     id="title1">Pydidas icon: Hide Workflow Processing</title>
  <sodipodi:namedview
     id="namedview1"
     pagecolor="#ffffff"
     bordercolor="#666666"
     borderopacity="1.0"
     inkscape:showpageshadow="2"
     inkscape:pageopacity="0.0"
     inkscape:pagecheckerboard="0"
     inkscape:deskcolor="#d1d1d1"
     inkscape:document-units="px"
     inkscape:zoom="13.075"
     inkscape:cx="23.594647"
     inkscape:cy="12.007648"
     inkscape:window-width="1732"
     inkscape:window-height="1248"
     inkscape:window-x="3240"
     inkscape:window-y="53"
     inkscape:window-maximized="0"
     inkscape:current-layer="layer1"
     showgrid="true"
     showguides="true">
    <inkscape:grid
       id="grid1"
       units="px"
       originx="0"
       originy="0"
       spacingx="1"
       spacingy="1"
       empcolor="#0099e5"
       empopacity="0.30196078"
       color="#0099e5"
       opacity="0.14901961"
       empspacing="5"
       enabled="true"
       visible="true" />
  </sodipodi:namedview>
  <defs
     id="defs1" />
  <g
     inkscape:label="Layer 1"
     inkscape:groupmode="layer"
     id="layer1">
    <path
       sodipodi:type="star"
       style="fill:#989898;fill-opacity:1;stroke:#ffffff;stroke-width:4.99999;stroke-linejoin:round;stroke-dasharray:none;stroke-dashoffset:0.643179;stroke-opacity:1;paint-order:stroke fill markers;stop-color:#000000"
       id="path9651-4"
       inkscape:flatsided="true"
       sodipodi:sides="3"
       sodipodi:cx="236.41924"
       sodipodi:cy="-98.927208"
       sodipodi:r1="42.764889"
       sodipodi:r2="21.382446"
       sodipodi:arg1="-0.019605331"
       sodipodi:arg2="1.0275922"
       inkscape:rounded="0"
       inkscape:randomized="0"
       d="m 279.17591,-99.765574 -63.40896,38.285912 -1.4521,-74.056728 z"
       inkscape:transform-center-x="1.4000153"
       inkscape:transform-center-y="0.056442687"
       transform="matrix(-0.13557985,0,0,0.13465135,38.248843,47.845658)" />
    <path
       sodipodi:type="star"
       style="fill:#989898;fill-opacity:1;stroke:#ffffff;stroke-width:4.99999;stroke-linejoin:round;stroke-dasharray:none;stroke-dashoffset:0.643179;stroke-opacity:1;paint-order:stroke fill markers;stop-color:#000000"
       id="path9651-5-3"
       inkscape:flatsided="true"
       sodipodi:sides="3"
       sodipodi:cx="236.41924"
       sodipodi:cy="-98.927208"
       sodipodi:r1="42.764889"
       sodipodi:r2="21.382446"
       sodipodi:arg1="-0.019605331"
       sodipodi:arg2="1.0275922"
       inkscape:rounded="0"
       inkscape:randomized="0"
       d="m 279.17591,-99.765574 -63.40896,38.285912 -1.4521,-74.056728 z"
       inkscape:transform-center-x="1.4000153"
       inkscape:transform-center-y="0.056443678"
       transform="matrix(-0.13557985,0,0,0.13465135,42.717828,47.840654)" />
    <polyline
       points="16,40 26,32 36,36 46,20 54,24"
       fill="none"
       stroke="#2196f3"
       stroke-width="3"
       id="polyline1"
       transform="matrix(0.40603645,0,0,0.40603645,-3.8181963,-1.0632461)"
       style="stroke:#00aae6;stroke-opacity:1;opacity:0.25" />
    <line
       x1="0"
       y1="19.75"
       x2="12.863989"
       y2="19.75"
       stroke="#333333"
       stroke-width="0.941397"
       id="line5"
       style="opacity:0.25;stroke-width:1.5;stroke-dasharray:none" />
    <line
       x1="0.75"
       y1="2"
       x2="0.75"
       y2="19"
       stroke="#333333"
       stroke-width="0.952328"
       id="line6"
       style="opacity:0.25;stroke-width:1.5;stroke-dasharray:none" />
    <rect
       x="23.264595"
       y="0.66871631"
       width="16.118788"
       height="18.064917"
       rx="1.0074242"
       fill="#ffffff"
       stroke="#333333"
       stroke-width="0.953914"
       id="rect1"
       style="opacity:0.25" />
    <line
       x1="25.051785"
       y1="2.9289169"
       x2="37.974762"
       y2="2.9289169"
       stroke="#bbbbbb"
       stroke-width="0.987582"
       id="line1"
       style="stroke-width:1.5;stroke-dasharray:none;opacity:0.25" />
    <line
       x1="25.051939"
       y1="5.2959561"
       x2="37.974918"
       y2="5.2959561"
       stroke="#bbbbbb"
       stroke-width="0.987582"
       id="line1-5"
       style="stroke-width:1.5;stroke-dasharray:none;opacity:0.25" />
    <line
       x1="25.051939"
       y1="7.7499995"
       x2="37.974918"
       y2="7.7499995"
       stroke="#bbbbbb"
       stroke-width="0.987582"
       id="line1-5-1"
       style="stroke-width:1.5;stroke-dasharray:none;opacity:0.25" />
    <rect
       x="25.001421"
       y="13.677581"
       width="1.8113172"
       height="3.6226344"
       fill="#4caf50"
       id="rect2"
       style="fill:#00aae6;fill-opacity:1;stroke-width:0.452829;opacity:0.25" />
    <rect
       x="27.718397"
       y="11.866261"
       width="1.8113172"
       height="5.4339514"
       fill="#2196f3"
       id="rect3"
       style="fill:#e60046;fill-opacity:1;stroke-width:0.452829;opacity:0.25" />
    <rect
       x="35.89283"
       y="11.866414"
       width="1.8113172"
       height="5.4339514"
       fill="#2196f3"
       id="rect3-6"
       style="fill:#e60046;fill-opacity:1;stroke-width:0.452829;opacity:0.25" />
    <rect
       x="30.435373"
       y="10.054945"
       width="1.8113172"
       height="7.2452688"
       fill="#ffc107"
       id="rect4"
       style="fill:#0091a0;fill-opacity:1;stroke-width:0.452829;opacity:0.25" />
    <rect
       x="33.152348"
       y="11.65072"
       width="1.8113172"
       height="5.6494942"
       fill="#f44336"
       id="rect5"
       style="fill:#00aae6;fill-opacity:1;stroke-width:0.357649;opacity:0.25" />
    <path
       d="m 26.914894,27.19767 -1.085969,1.085969 a 0.76476704,0.76476704 0 0 1 -1.078321,0 l -9.085433,-9.070138 a 2.9137625,2.9137625 0 0 1 -0.764767,0.114714 3.0590681,3.0590681 0 0 1 -2.89082,-4.053266 l 1.942508,1.942509 0.405326,-0.405326 1.085971,-1.08597 0.405326,-0.405326 -1.942509,-1.942509 a 3.0590681,3.0590681 0 0 1 4.053266,2.890821 2.9137625,2.9137625 0 0 1 -0.114714,0.764767 l 9.070137,9.085432 a 0.76476704,0.76476704 0 0 1 0,1.078321 m -14.851778,-1.07832 a 0.76476704,0.76476704 0 0 0 0,1.078322 l 1.08597,1.085969 a 0.76476704,0.76476704 0 0 0 1.078321,0 l 4.183276,-4.175629 -2.164291,-2.16429 m 9.360749,-8.733641 -3.059067,1.529534 v 1.529536 l -1.659546,1.659544 1.529534,1.529533 1.659545,-1.659544 h 1.529534 l 1.529535,-3.059069 z"
       id="path1"
       style="fill:#323246;fill-opacity:1;stroke:#ffffff;stroke-width:1;stroke-dasharray:none;stroke-opacity:1;paint-order:markers stroke fill;opacity:0.25" />
    <path
       d="m 15.783908,19.944565 1.387404,-1.376565 18.12295,18.122951 -1.376563,1.387402 -3.33844,-3.338438 c -1.246494,0.411886 -2.568864,0.628667 -3.956265,0.628667 -5.419542,0 -10.047832,-3.370954 -11.922994,-8.129312 0.747897,-1.907681 1.940197,-3.587739 3.457669,-4.920946 l -2.373761,-2.373759 m 10.839086,4.042977 a 3.2517253,3.2517253 0 0 1 3.251725,3.251728 c 0,0.379367 -0.06503,0.747896 -0.184265,1.083907 l -4.151369,-4.151369 c 0.336012,-0.119232 0.704541,-0.184266 1.083909,-0.184266 m 0,-4.877586 c 5.419542,0 10.047831,3.370954 11.922994,8.129314 -0.888805,2.254529 -2.395438,4.205564 -4.335635,5.625484 l -1.539149,-1.549989 c 1.474115,-1.018874 2.688093,-2.406278 3.511863,-4.075495 -1.78845,-3.641934 -5.484577,-5.961498 -9.560073,-5.961498 -1.18146,0 -2.341243,0.195103 -3.425152,0.541955 l -1.669219,-1.65838 c 1.56083,-0.672023 3.284244,-1.051391 5.094371,-1.051391 M 17.06292,27.23927 c 1.788451,3.641932 5.484578,5.961495 9.560074,5.961495 0.747897,0 1.484954,-0.07588 2.167817,-0.22762 L 26.319499,30.490994 C 24.76951,30.328409 23.533855,29.092753 23.371268,27.542763 l -3.685289,-3.696129 c -1.073069,0.921323 -1.972713,2.070267 -2.623059,3.392636 z"
       id="path1-1"
       style="fill:#2d2d2d;fill-opacity:1;stroke-width:1.08391" />
  </g>
  <metadata
     id="metadata1">
    <rdf:RDF>
      <cc:Work
         rdf:about="">
        <dc:title>Pydidas icon: Hide Workflow Processing</dc:title>
        <dc:creator>
          <cc:Agent>
            <dc:title>Malte Storm</dc:title>
          </cc:Agent>
        </dc:creator>
        <dc:rights>
          <cc:Agent>
            <dc:title>Helmholtz-Zentrum Hereon GmbH</dc:title>
          </cc:Agent>
        </dc:rights>
        <cc:license
           rdf:resource="http://creativecommons.org/licenses/by-nc-nd/4.0/" />
      </cc:Work>
      <cc:License
         rdf:about="http://creativecommons.org/licenses/by-nc-nd/4.0/">
        <cc:permits
           rdf:resource="http://creativecommons.org/ns#Reproduction" />
        <cc:permits
           rdf:resource="http://creativecommons.org/ns#Distribution" />
        <cc:requires
           rdf:resource="http://creativecommons.org/ns#Notice" />
        <cc:requires
           rdf:resource="http://creativecommons.org/ns#Attribution" />
        <cc:prohibits
           rdf:resource="http://creativecommons.org/ns#CommercialUse" />
      </cc:License>
    </rdf:RDF>
  </metadata>
</svg>
