<?xml version="1.0" encoding="UTF-8" standalone="no"?>
<svg
   xmlns:dc="http://purl.org/dc/elements/1.1/"
   xmlns:cc="http://creativecommons.org/ns#"
   xmlns:rdf="http://www.w3.org/1999/02/22-rdf-syntax-ns#"
   xmlns:svg="http://www.w3.org/2000/svg"
   xmlns="http://www.w3.org/2000/svg"
   xmlns:xlink="http://www.w3.org/1999/xlink"
   xmlns:sodipodi="http://sodipodi.sourceforge.net/DTD/sodipodi-0.dtd"
   xmlns:inkscape="http://www.inkscape.org/namespaces/inkscape"
   width="105mm"
   height="105mm"
   viewBox="0 0 105 105"
   version="1.1"
   id="svg8"
   inkscape:version="1.0.1 (3bc2e813f5, 2020-09-07)"
   sodipodi:docname="pydidas_logo.svg">
  <defs
     id="defs2">
    <marker
       style="overflow:visible"
       id="marker5846"
       refX="0"
       refY="0"
       orient="auto"
       inkscape:stockid="DotS"
       inkscape:isstock="true">
      <path
         transform="matrix(0.2,0,0,0.2,1.48,0.2)"
         style="fill:#e50446;fill-opacity:1;fill-rule:evenodd;stroke:#e50446;stroke-width:1pt;stroke-opacity:1"
         d="m -2.5,-1 c 0,2.76 -2.24,5 -5,5 -2.76,0 -5,-2.24 -5,-5 0,-2.76 2.24,-5 5,-5 2.76,0 5,2.24 5,5 z"
         id="path5844" />
    </marker>
    <marker
       style="overflow:visible"
       id="marker5836"
       refX="0"
       refY="0"
       orient="auto"
       inkscape:stockid="DotS"
       inkscape:isstock="true">
      <path
         transform="matrix(0.2,0,0,0.2,1.48,0.2)"
         style="fill:#0391a0;fill-opacity:1;fill-rule:evenodd;stroke:#0391a0;stroke-width:1pt;stroke-opacity:1"
         d="m -2.5,-1 c 0,2.76 -2.24,5 -5,5 -2.76,0 -5,-2.24 -5,-5 0,-2.76 2.24,-5 5,-5 2.76,0 5,2.24 5,5 z"
         id="path5834" />
    </marker>
    <marker
       style="overflow:visible"
       id="marker5826"
       refX="0"
       refY="0"
       orient="auto"
       inkscape:stockid="DotS"
       inkscape:isstock="true">
      <path
         transform="matrix(0.2,0,0,0.2,1.48,0.2)"
         style="fill:#17a9e2;fill-opacity:0.960784;fill-rule:evenodd;stroke:#17a9e2;stroke-width:1pt;stroke-opacity:0.960784"
         d="m -2.5,-1 c 0,2.76 -2.24,5 -5,5 -2.76,0 -5,-2.24 -5,-5 0,-2.76 2.24,-5 5,-5 2.76,0 5,2.24 5,5 z"
         id="path5824" />
    </marker>
    <marker
       style="overflow:visible"
       id="marker5798"
       refX="0"
       refY="0"
       orient="auto"
       inkscape:stockid="DotS"
       inkscape:isstock="true">
      <path
         transform="matrix(0.2,0,0,0.2,1.48,0.2)"
         style="fill:#e50446;fill-opacity:1;fill-rule:evenodd;stroke:#e50446;stroke-width:1pt;stroke-opacity:1"
         d="m -2.5,-1 c 0,2.76 -2.24,5 -5,5 -2.76,0 -5,-2.24 -5,-5 0,-2.76 2.24,-5 5,-5 2.76,0 5,2.24 5,5 z"
         id="path5796" />
    </marker>
    <marker
       orient="auto"
       refY="0"
       refX="0"
       id="marker4729"
       inkscape:stockid="InfiniteLineStart"
       style="overflow:visible"
       inkscape:isstock="true">
      <g
         transform="translate(-13)"
         style="fill:#e50446;fill-opacity:1;stroke:#e50446;stroke-opacity:1"
         id="g4727">
        <circle
           cx="3"
           cy="0"
           r="0.80000001"
           id="circle4721"
           style="fill:#e50446;fill-opacity:1;stroke:#e50446;stroke-opacity:1" />
        <circle
           cx="6.5"
           cy="0"
           r="0.80000001"
           id="circle4723"
           style="fill:#e50446;fill-opacity:1;stroke:#e50446;stroke-opacity:1" />
        <circle
           cx="10"
           cy="0"
           r="0.80000001"
           id="circle4725"
           style="fill:#e50446;fill-opacity:1;stroke:#e50446;stroke-opacity:1" />
      </g>
    </marker>
    <marker
       orient="auto"
       refY="0"
       refX="0"
       id="marker4704"
       inkscape:stockid="InfiniteLineStart"
       style="overflow:visible"
       inkscape:isstock="true">
      <g
         transform="translate(-13)"
         style="fill:#0391a0;fill-opacity:1;stroke:#0391a0;stroke-opacity:1"
         id="g4702">
        <circle
           cx="3"
           cy="0"
           r="0.80000001"
           id="circle4696"
           style="fill:#0391a0;fill-opacity:1;stroke:#0391a0;stroke-opacity:1" />
        <circle
           cx="6.5"
           cy="0"
           r="0.80000001"
           id="circle4698"
           style="fill:#0391a0;fill-opacity:1;stroke:#0391a0;stroke-opacity:1" />
        <circle
           cx="10"
           cy="0"
           r="0.80000001"
           id="circle4700"
           style="fill:#0391a0;fill-opacity:1;stroke:#0391a0;stroke-opacity:1" />
      </g>
    </marker>
    <marker
       orient="auto"
       refY="0"
       refX="0"
       id="marker4679"
       inkscape:stockid="InfiniteLineStart"
       style="overflow:visible"
       inkscape:isstock="true">
      <g
         transform="translate(-13)"
         style="fill:#17a9e2;fill-opacity:0.960784;stroke:#17a9e2;stroke-opacity:0.960784"
         id="g4677">
        <circle
           cx="3"
           cy="0"
           r="0.80000001"
           id="circle4671"
           style="fill:#17a9e2;fill-opacity:0.960784;stroke:#17a9e2;stroke-opacity:0.960784" />
        <circle
           cx="6.5"
           cy="0"
           r="0.80000001"
           id="circle4673"
           style="fill:#17a9e2;fill-opacity:0.960784;stroke:#17a9e2;stroke-opacity:0.960784" />
        <circle
           cx="10"
           cy="0"
           r="0.80000001"
           id="circle4675"
           style="fill:#17a9e2;fill-opacity:0.960784;stroke:#17a9e2;stroke-opacity:0.960784" />
      </g>
    </marker>
    <marker
       style="overflow:visible"
       id="marker4118"
       refX="0"
       refY="0"
       orient="auto"
       inkscape:stockid="DotS"
       inkscape:isstock="true">
      <path
         transform="matrix(0.2,0,0,0.2,1.48,0.2)"
         style="fill:#e50446;fill-opacity:1;fill-rule:evenodd;stroke:#e50446;stroke-width:1pt;stroke-opacity:1"
         d="m -2.5,-1 c 0,2.76 -2.24,5 -5,5 -2.76,0 -5,-2.24 -5,-5 0,-2.76 2.24,-5 5,-5 2.76,0 5,2.24 5,5 z"
         id="path4116" />
    </marker>
    <marker
       style="overflow:visible"
       id="marker4086"
       refX="0"
       refY="0"
       orient="auto"
       inkscape:stockid="DotS"
       inkscape:isstock="true">
      <path
         transform="matrix(0.2,0,0,0.2,1.48,0.2)"
         style="fill:#0391a0;fill-opacity:1;fill-rule:evenodd;stroke:#0391a0;stroke-width:1pt;stroke-opacity:1"
         d="m -2.5,-1 c 0,2.76 -2.24,5 -5,5 -2.76,0 -5,-2.24 -5,-5 0,-2.76 2.24,-5 5,-5 2.76,0 5,2.24 5,5 z"
         id="path4084" />
    </marker>
    <marker
       style="overflow:visible"
       id="marker4076"
       refX="0"
       refY="0"
       orient="auto"
       inkscape:stockid="DotS"
       inkscape:isstock="true">
      <path
         transform="matrix(0.2,0,0,0.2,1.48,0.2)"
         style="fill:#17a9e2;fill-opacity:0.960784;fill-rule:evenodd;stroke:#17a9e2;stroke-width:1pt;stroke-opacity:0.960784"
         d="m -2.5,-1 c 0,2.76 -2.24,5 -5,5 -2.76,0 -5,-2.24 -5,-5 0,-2.76 2.24,-5 5,-5 2.76,0 5,2.24 5,5 z"
         id="path4074" />
    </marker>
    <marker
       style="overflow:visible"
       id="marker3162"
       refX="0"
       refY="0"
       orient="auto"
       inkscape:stockid="DotS"
       inkscape:isstock="true">
      <path
         transform="matrix(0.2,0,0,0.2,1.48,0.2)"
         style="fill:#0391a0;fill-opacity:1;fill-rule:evenodd;stroke:#0391a0;stroke-width:1pt;stroke-opacity:1"
         d="m -2.5,-1 c 0,2.76 -2.24,5 -5,5 -2.76,0 -5,-2.24 -5,-5 0,-2.76 2.24,-5 5,-5 2.76,0 5,2.24 5,5 z"
         id="path3160" />
    </marker>
    <marker
       style="overflow:visible"
       id="marker3152"
       refX="0"
       refY="0"
       orient="auto"
       inkscape:stockid="DotS"
       inkscape:isstock="true">
      <path
         transform="matrix(0.2,0,0,0.2,1.48,0.2)"
         style="fill:#17a9e2;fill-opacity:0.960784;fill-rule:evenodd;stroke:#17a9e2;stroke-width:1pt;stroke-opacity:0.960784"
         d="m -2.5,-1 c 0,2.76 -2.24,5 -5,5 -2.76,0 -5,-2.24 -5,-5 0,-2.76 2.24,-5 5,-5 2.76,0 5,2.24 5,5 z"
         id="path3150" />
    </marker>
    <marker
       style="overflow:visible"
       id="marker2254"
       refX="0"
       refY="0"
       orient="auto"
       inkscape:stockid="DotS"
       inkscape:isstock="true">
      <path
         transform="matrix(0.2,0,0,0.2,1.48,0.2)"
         style="fill:#e50446;fill-opacity:1;fill-rule:evenodd;stroke:#e50446;stroke-width:1pt;stroke-opacity:1"
         d="m -2.5,-1 c 0,2.76 -2.24,5 -5,5 -2.76,0 -5,-2.24 -5,-5 0,-2.76 2.24,-5 5,-5 2.76,0 5,2.24 5,5 z"
         id="path2252" />
    </marker>
    <marker
       style="overflow:visible"
       id="marker2234"
       refX="0"
       refY="0"
       orient="auto"
       inkscape:stockid="DotS"
       inkscape:isstock="true">
      <path
         transform="matrix(0.2,0,0,0.2,1.48,0.2)"
         style="fill:#17a9e2;fill-opacity:0.960784;fill-rule:evenodd;stroke:#17a9e2;stroke-width:1pt;stroke-opacity:0.960784"
         d="m -2.5,-1 c 0,2.76 -2.24,5 -5,5 -2.76,0 -5,-2.24 -5,-5 0,-2.76 2.24,-5 5,-5 2.76,0 5,2.24 5,5 z"
         id="path2232" />
    </marker>
    <marker
       style="overflow:visible"
       id="DotS"
       refX="0"
       refY="0"
       orient="auto"
       inkscape:stockid="DotS"
       inkscape:isstock="true">
      <path
         transform="matrix(0.2,0,0,0.2,1.48,0.2)"
         style="fill:#17a9e2;fill-opacity:0.960784;fill-rule:evenodd;stroke:#17a9e2;stroke-width:1pt;stroke-opacity:0.960784"
         d="m -2.5,-1 c 0,2.76 -2.24,5 -5,5 -2.76,0 -5,-2.24 -5,-5 0,-2.76 2.24,-5 5,-5 2.76,0 5,2.24 5,5 z"
         id="path1009" />
    </marker>
    <marker
       style="overflow:visible"
       id="marker15104"
       refX="0"
       refY="0"
       orient="auto"
       inkscape:stockid="DotM"
       inkscape:isstock="true">
      <path
         transform="matrix(0.4,0,0,0.4,2.96,0.4)"
         style="fill:#17a9e2;fill-opacity:0.960784;fill-rule:evenodd;stroke:#17a9e2;stroke-width:1pt;stroke-opacity:0.960784"
         d="m -2.5,-1 c 0,2.76 -2.24,5 -5,5 -2.76,0 -5,-2.24 -5,-5 0,-2.76 2.24,-5 5,-5 2.76,0 5,2.24 5,5 z"
         id="path15102" />
    </marker>
    <marker
       style="overflow:visible"
       id="marker15016"
       refX="0"
       refY="0"
       orient="auto"
       inkscape:stockid="DotM"
       inkscape:isstock="true">
      <path
         transform="matrix(0.4,0,0,0.4,2.96,0.4)"
         style="fill:#17a9e2;fill-opacity:0.960784;fill-rule:evenodd;stroke:#17a9e2;stroke-width:1pt;stroke-opacity:0.960784"
         d="m -2.5,-1 c 0,2.76 -2.24,5 -5,5 -2.76,0 -5,-2.24 -5,-5 0,-2.76 2.24,-5 5,-5 2.76,0 5,2.24 5,5 z"
         id="path15014" />
    </marker>
    <marker
       style="overflow:visible"
       id="marker15006"
       refX="0"
       refY="0"
       orient="auto"
       inkscape:stockid="DotM"
       inkscape:isstock="true">
      <path
         transform="matrix(0.4,0,0,0.4,2.96,0.4)"
         style="fill:#17a9e2;fill-opacity:0.960784;fill-rule:evenodd;stroke:#17a9e2;stroke-width:1pt;stroke-opacity:0.960784"
         d="m -2.5,-1 c 0,2.76 -2.24,5 -5,5 -2.76,0 -5,-2.24 -5,-5 0,-2.76 2.24,-5 5,-5 2.76,0 5,2.24 5,5 z"
         id="path15004" />
    </marker>
    <marker
       style="overflow:visible"
       id="marker14996"
       refX="0"
       refY="0"
       orient="auto"
       inkscape:stockid="DotM"
       inkscape:isstock="true">
      <path
         transform="matrix(0.4,0,0,0.4,2.96,0.4)"
         style="fill:#0391a0;fill-opacity:1;fill-rule:evenodd;stroke:#0391a0;stroke-width:1pt;stroke-opacity:1"
         d="m -2.5,-1 c 0,2.76 -2.24,5 -5,5 -2.76,0 -5,-2.24 -5,-5 0,-2.76 2.24,-5 5,-5 2.76,0 5,2.24 5,5 z"
         id="path14994" />
    </marker>
    <marker
       style="overflow:visible"
       id="marker14986"
       refX="0"
       refY="0"
       orient="auto"
       inkscape:stockid="DotM"
       inkscape:isstock="true">
      <path
         transform="matrix(0.4,0,0,0.4,2.96,0.4)"
         style="fill:#0391a0;fill-opacity:1;fill-rule:evenodd;stroke:#0391a0;stroke-width:1pt;stroke-opacity:1"
         d="m -2.5,-1 c 0,2.76 -2.24,5 -5,5 -2.76,0 -5,-2.24 -5,-5 0,-2.76 2.24,-5 5,-5 2.76,0 5,2.24 5,5 z"
         id="path14984" />
    </marker>
    <marker
       style="overflow:visible"
       id="marker14976"
       refX="0"
       refY="0"
       orient="auto"
       inkscape:stockid="DotM"
       inkscape:isstock="true">
      <path
         transform="matrix(0.4,0,0,0.4,2.96,0.4)"
         style="fill:#e50446;fill-opacity:1;fill-rule:evenodd;stroke:#e50446;stroke-width:1pt;stroke-opacity:1"
         d="m -2.5,-1 c 0,2.76 -2.24,5 -5,5 -2.76,0 -5,-2.24 -5,-5 0,-2.76 2.24,-5 5,-5 2.76,0 5,2.24 5,5 z"
         id="path14974" />
    </marker>
    <marker
       style="overflow:visible"
       id="marker14966"
       refX="0"
       refY="0"
       orient="auto"
       inkscape:stockid="DotM"
       inkscape:isstock="true">
      <path
         transform="matrix(0.4,0,0,0.4,2.96,0.4)"
         style="fill:#e50446;fill-opacity:1;fill-rule:evenodd;stroke:#e50446;stroke-width:1pt;stroke-opacity:1"
         d="m -2.5,-1 c 0,2.76 -2.24,5 -5,5 -2.76,0 -5,-2.24 -5,-5 0,-2.76 2.24,-5 5,-5 2.76,0 5,2.24 5,5 z"
         id="path14964" />
    </marker>
    <marker
       style="overflow:visible"
       id="marker14956"
       refX="0"
       refY="0"
       orient="auto"
       inkscape:stockid="DotM"
       inkscape:isstock="true">
      <path
         transform="matrix(0.4,0,0,0.4,2.96,0.4)"
         style="fill:#6bffff;fill-opacity:1;fill-rule:evenodd;stroke:none;stroke-width:1pt;stroke-opacity:0.960784"
         d="m -2.5,-1 c 0,2.76 -2.24,5 -5,5 -2.76,0 -5,-2.24 -5,-5 0,-2.76 2.24,-5 5,-5 2.76,0 5,2.24 5,5 z"
         id="path14954" />
    </marker>
    <marker
       style="overflow:visible"
       id="marker14186"
       refX="0"
       refY="0"
       orient="auto"
       inkscape:stockid="DotM"
       inkscape:isstock="true">
      <path
         transform="matrix(0.4,0,0,0.4,2.96,0.4)"
         style="fill:#17a9e2;fill-opacity:0.960784;fill-rule:evenodd;stroke:#17a9e2;stroke-width:1pt;stroke-opacity:0.960784"
         d="m -2.5,-1 c 0,2.76 -2.24,5 -5,5 -2.76,0 -5,-2.24 -5,-5 0,-2.76 2.24,-5 5,-5 2.76,0 5,2.24 5,5 z"
         id="path14184" />
    </marker>
    <marker
       style="overflow:visible"
       id="marker14176"
       refX="0"
       refY="0"
       orient="auto"
       inkscape:stockid="DotM"
       inkscape:isstock="true">
      <path
         transform="matrix(0.4,0,0,0.4,2.96,0.4)"
         style="fill:#0391a0;fill-opacity:1;fill-rule:evenodd;stroke:#0391a0;stroke-width:1pt;stroke-opacity:1"
         d="m -2.5,-1 c 0,2.76 -2.24,5 -5,5 -2.76,0 -5,-2.24 -5,-5 0,-2.76 2.24,-5 5,-5 2.76,0 5,2.24 5,5 z"
         id="path14174" />
    </marker>
    <marker
       style="overflow:visible"
       id="marker14166"
       refX="0"
       refY="0"
       orient="auto"
       inkscape:stockid="DotM"
       inkscape:isstock="true">
      <path
         transform="matrix(0.4,0,0,0.4,2.96,0.4)"
         style="fill:#0391a0;fill-opacity:1;fill-rule:evenodd;stroke:#0391a0;stroke-width:1pt;stroke-opacity:1"
         d="m -2.5,-1 c 0,2.76 -2.24,5 -5,5 -2.76,0 -5,-2.24 -5,-5 0,-2.76 2.24,-5 5,-5 2.76,0 5,2.24 5,5 z"
         id="path14164" />
    </marker>
    <marker
       style="overflow:visible"
       id="marker14156"
       refX="0"
       refY="0"
       orient="auto"
       inkscape:stockid="DotM"
       inkscape:isstock="true">
      <path
         transform="matrix(0.4,0,0,0.4,2.96,0.4)"
         style="fill:#e50446;fill-opacity:1;fill-rule:evenodd;stroke:#e50446;stroke-width:1pt;stroke-opacity:1"
         d="m -2.5,-1 c 0,2.76 -2.24,5 -5,5 -2.76,0 -5,-2.24 -5,-5 0,-2.76 2.24,-5 5,-5 2.76,0 5,2.24 5,5 z"
         id="path14154" />
    </marker>
    <marker
       style="overflow:visible"
       id="marker14146"
       refX="0"
       refY="0"
       orient="auto"
       inkscape:stockid="DotM"
       inkscape:isstock="true">
      <path
         transform="matrix(0.4,0,0,0.4,2.96,0.4)"
         style="fill:#e50446;fill-opacity:1;fill-rule:evenodd;stroke:#e50446;stroke-width:1pt;stroke-opacity:1"
         d="m -2.5,-1 c 0,2.76 -2.24,5 -5,5 -2.76,0 -5,-2.24 -5,-5 0,-2.76 2.24,-5 5,-5 2.76,0 5,2.24 5,5 z"
         id="path14144" />
    </marker>
    <marker
       style="overflow:visible"
       id="marker14136"
       refX="0"
       refY="0"
       orient="auto"
       inkscape:stockid="DotM"
       inkscape:isstock="true">
      <path
         transform="matrix(0.4,0,0,0.4,2.96,0.4)"
         style="fill:#17a9e2;fill-opacity:0.960784;fill-rule:evenodd;stroke:#17a9e2;stroke-width:1pt;stroke-opacity:0.960784"
         d="m -2.5,-1 c 0,2.76 -2.24,5 -5,5 -2.76,0 -5,-2.24 -5,-5 0,-2.76 2.24,-5 5,-5 2.76,0 5,2.24 5,5 z"
         id="path14134" />
    </marker>
    <marker
       style="overflow:visible"
       id="marker14126"
       refX="0"
       refY="0"
       orient="auto"
       inkscape:stockid="DotM"
       inkscape:isstock="true">
      <path
         transform="matrix(0.4,0,0,0.4,2.96,0.4)"
         style="fill:#17a9e2;fill-opacity:0.960784;fill-rule:evenodd;stroke:#17a9e2;stroke-width:1pt;stroke-opacity:0.960784"
         d="m -2.5,-1 c 0,2.76 -2.24,5 -5,5 -2.76,0 -5,-2.24 -5,-5 0,-2.76 2.24,-5 5,-5 2.76,0 5,2.24 5,5 z"
         id="path14124" />
    </marker>
    <marker
       style="overflow:visible"
       id="marker13446"
       refX="0"
       refY="0"
       orient="auto"
       inkscape:stockid="DotM"
       inkscape:isstock="true">
      <path
         transform="matrix(0.4,0,0,0.4,2.96,0.4)"
         style="fill:#17a9e2;fill-opacity:0.960784;fill-rule:evenodd;stroke:#17a9e2;stroke-width:1pt;stroke-opacity:0.960784"
         d="m -2.5,-1 c 0,2.76 -2.24,5 -5,5 -2.76,0 -5,-2.24 -5,-5 0,-2.76 2.24,-5 5,-5 2.76,0 5,2.24 5,5 z"
         id="path13444" />
    </marker>
    <marker
       style="overflow:visible"
       id="marker13436"
       refX="0"
       refY="0"
       orient="auto"
       inkscape:stockid="DotM"
       inkscape:isstock="true">
      <path
         transform="matrix(0.4,0,0,0.4,2.96,0.4)"
         style="fill:#0391a0;fill-opacity:1;fill-rule:evenodd;stroke:#0391a0;stroke-width:1pt;stroke-opacity:1"
         d="m -2.5,-1 c 0,2.76 -2.24,5 -5,5 -2.76,0 -5,-2.24 -5,-5 0,-2.76 2.24,-5 5,-5 2.76,0 5,2.24 5,5 z"
         id="path13434" />
    </marker>
    <marker
       style="overflow:visible"
       id="marker13426"
       refX="0"
       refY="0"
       orient="auto"
       inkscape:stockid="DotM"
       inkscape:isstock="true">
      <path
         transform="matrix(0.4,0,0,0.4,2.96,0.4)"
         style="fill:#0391a0;fill-opacity:1;fill-rule:evenodd;stroke:#0391a0;stroke-width:1pt;stroke-opacity:1"
         d="m -2.5,-1 c 0,2.76 -2.24,5 -5,5 -2.76,0 -5,-2.24 -5,-5 0,-2.76 2.24,-5 5,-5 2.76,0 5,2.24 5,5 z"
         id="path13424" />
    </marker>
    <marker
       style="overflow:visible"
       id="marker13416"
       refX="0"
       refY="0"
       orient="auto"
       inkscape:stockid="DotM"
       inkscape:isstock="true">
      <path
         transform="matrix(0.4,0,0,0.4,2.96,0.4)"
         style="fill:#e50446;fill-opacity:1;fill-rule:evenodd;stroke:#e50446;stroke-width:1pt;stroke-opacity:1"
         d="m -2.5,-1 c 0,2.76 -2.24,5 -5,5 -2.76,0 -5,-2.24 -5,-5 0,-2.76 2.24,-5 5,-5 2.76,0 5,2.24 5,5 z"
         id="path13414" />
    </marker>
    <marker
       style="overflow:visible"
       id="marker13406"
       refX="0"
       refY="0"
       orient="auto"
       inkscape:stockid="DotM"
       inkscape:isstock="true">
      <path
         transform="matrix(0.4,0,0,0.4,2.96,0.4)"
         style="fill:#e50446;fill-opacity:1;fill-rule:evenodd;stroke:#e50446;stroke-width:1pt;stroke-opacity:1"
         d="m -2.5,-1 c 0,2.76 -2.24,5 -5,5 -2.76,0 -5,-2.24 -5,-5 0,-2.76 2.24,-5 5,-5 2.76,0 5,2.24 5,5 z"
         id="path13404" />
    </marker>
    <marker
       style="overflow:visible"
       id="marker13396"
       refX="0"
       refY="0"
       orient="auto"
       inkscape:stockid="DotM"
       inkscape:isstock="true">
      <path
         transform="matrix(0.4,0,0,0.4,2.96,0.4)"
         style="fill:#6bffff;fill-opacity:1;fill-rule:evenodd;stroke:none;stroke-width:1pt;stroke-opacity:0.960784"
         d="m -2.5,-1 c 0,2.76 -2.24,5 -5,5 -2.76,0 -5,-2.24 -5,-5 0,-2.76 2.24,-5 5,-5 2.76,0 5,2.24 5,5 z"
         id="path13394" />
    </marker>
    <marker
       style="overflow:visible"
       id="marker10218"
       refX="0"
       refY="0"
       orient="auto"
       inkscape:stockid="DotM"
       inkscape:isstock="true">
      <path
         transform="matrix(0.4,0,0,0.4,2.96,0.4)"
         style="fill:#17a9e2;fill-opacity:0.960784;fill-rule:evenodd;stroke:#17a9e2;stroke-width:1pt;stroke-opacity:0.960784"
         d="m -2.5,-1 c 0,2.76 -2.24,5 -5,5 -2.76,0 -5,-2.24 -5,-5 0,-2.76 2.24,-5 5,-5 2.76,0 5,2.24 5,5 z"
         id="path10216" />
    </marker>
    <marker
       style="overflow:visible"
       id="marker10208"
       refX="0"
       refY="0"
       orient="auto"
       inkscape:stockid="DotM"
       inkscape:isstock="true">
      <path
         transform="matrix(0.4,0,0,0.4,2.96,0.4)"
         style="fill:#17a9e2;fill-opacity:0.960784;fill-rule:evenodd;stroke:#17a9e2;stroke-width:1pt;stroke-opacity:0.960784"
         d="m -2.5,-1 c 0,2.76 -2.24,5 -5,5 -2.76,0 -5,-2.24 -5,-5 0,-2.76 2.24,-5 5,-5 2.76,0 5,2.24 5,5 z"
         id="path10206" />
    </marker>
    <marker
       style="overflow:visible"
       id="marker10198"
       refX="0"
       refY="0"
       orient="auto"
       inkscape:stockid="DotM"
       inkscape:isstock="true">
      <path
         transform="matrix(0.4,0,0,0.4,2.96,0.4)"
         style="fill:#0391a0;fill-opacity:1;fill-rule:evenodd;stroke:#0391a0;stroke-width:1pt;stroke-opacity:1"
         d="m -2.5,-1 c 0,2.76 -2.24,5 -5,5 -2.76,0 -5,-2.24 -5,-5 0,-2.76 2.24,-5 5,-5 2.76,0 5,2.24 5,5 z"
         id="path10196" />
    </marker>
    <marker
       style="overflow:visible"
       id="marker10188"
       refX="0"
       refY="0"
       orient="auto"
       inkscape:stockid="DotM"
       inkscape:isstock="true">
      <path
         transform="matrix(0.4,0,0,0.4,2.96,0.4)"
         style="fill:#0391a0;fill-opacity:1;fill-rule:evenodd;stroke:#0391a0;stroke-width:1pt;stroke-opacity:1"
         d="m -2.5,-1 c 0,2.76 -2.24,5 -5,5 -2.76,0 -5,-2.24 -5,-5 0,-2.76 2.24,-5 5,-5 2.76,0 5,2.24 5,5 z"
         id="path10186" />
    </marker>
    <marker
       style="overflow:visible"
       id="marker10178"
       refX="0"
       refY="0"
       orient="auto"
       inkscape:stockid="DotM"
       inkscape:isstock="true">
      <path
         transform="matrix(0.4,0,0,0.4,2.96,0.4)"
         style="fill:#e50446;fill-opacity:1;fill-rule:evenodd;stroke:#e50446;stroke-width:1pt;stroke-opacity:1"
         d="m -2.5,-1 c 0,2.76 -2.24,5 -5,5 -2.76,0 -5,-2.24 -5,-5 0,-2.76 2.24,-5 5,-5 2.76,0 5,2.24 5,5 z"
         id="path10176" />
    </marker>
    <marker
       style="overflow:visible"
       id="marker10168"
       refX="0"
       refY="0"
       orient="auto"
       inkscape:stockid="DotM"
       inkscape:isstock="true">
      <path
         transform="matrix(0.4,0,0,0.4,2.96,0.4)"
         style="fill:#e50446;fill-opacity:1;fill-rule:evenodd;stroke:#e50446;stroke-width:1pt;stroke-opacity:1"
         d="m -2.5,-1 c 0,2.76 -2.24,5 -5,5 -2.76,0 -5,-2.24 -5,-5 0,-2.76 2.24,-5 5,-5 2.76,0 5,2.24 5,5 z"
         id="path10166" />
    </marker>
    <marker
       style="overflow:visible"
       id="marker10158"
       refX="0"
       refY="0"
       orient="auto"
       inkscape:stockid="DotM"
       inkscape:isstock="true">
      <path
         transform="matrix(0.4,0,0,0.4,2.96,0.4)"
         style="fill:#17a9e2;fill-opacity:0.960784;fill-rule:evenodd;stroke:#17a9e2;stroke-width:1pt;stroke-opacity:0.960784"
         d="m -2.5,-1 c 0,2.76 -2.24,5 -5,5 -2.76,0 -5,-2.24 -5,-5 0,-2.76 2.24,-5 5,-5 2.76,0 5,2.24 5,5 z"
         id="path10156" />
    </marker>
    <marker
       style="overflow:visible"
       id="marker9562"
       refX="0"
       refY="0"
       orient="auto"
       inkscape:stockid="DotM"
       inkscape:isstock="true">
      <path
         transform="matrix(0.4,0,0,0.4,2.96,0.4)"
         style="fill:#17a9e2;fill-opacity:0.960784;fill-rule:evenodd;stroke:#17a9e2;stroke-width:1pt;stroke-opacity:0.960784"
         d="m -2.5,-1 c 0,2.76 -2.24,5 -5,5 -2.76,0 -5,-2.24 -5,-5 0,-2.76 2.24,-5 5,-5 2.76,0 5,2.24 5,5 z"
         id="path9560" />
    </marker>
    <marker
       style="overflow:visible"
       id="marker9552"
       refX="0"
       refY="0"
       orient="auto"
       inkscape:stockid="DotM"
       inkscape:isstock="true">
      <path
         transform="matrix(0.4,0,0,0.4,2.96,0.4)"
         style="fill:#0391a0;fill-opacity:1;fill-rule:evenodd;stroke:#0391a0;stroke-width:1pt;stroke-opacity:1"
         d="m -2.5,-1 c 0,2.76 -2.24,5 -5,5 -2.76,0 -5,-2.24 -5,-5 0,-2.76 2.24,-5 5,-5 2.76,0 5,2.24 5,5 z"
         id="path9550" />
    </marker>
    <marker
       style="overflow:visible"
       id="marker9542"
       refX="0"
       refY="0"
       orient="auto"
       inkscape:stockid="DotM"
       inkscape:isstock="true">
      <path
         transform="matrix(0.4,0,0,0.4,2.96,0.4)"
         style="fill:#0391a0;fill-opacity:1;fill-rule:evenodd;stroke:#0391a0;stroke-width:1pt;stroke-opacity:1"
         d="m -2.5,-1 c 0,2.76 -2.24,5 -5,5 -2.76,0 -5,-2.24 -5,-5 0,-2.76 2.24,-5 5,-5 2.76,0 5,2.24 5,5 z"
         id="path9540" />
    </marker>
    <marker
       style="overflow:visible"
       id="marker9522"
       refX="0"
       refY="0"
       orient="auto"
       inkscape:stockid="DotM"
       inkscape:isstock="true">
      <path
         transform="matrix(0.4,0,0,0.4,2.96,0.4)"
         style="fill:#e50446;fill-opacity:1;fill-rule:evenodd;stroke:#e50446;stroke-width:1pt;stroke-opacity:1"
         d="m -2.5,-1 c 0,2.76 -2.24,5 -5,5 -2.76,0 -5,-2.24 -5,-5 0,-2.76 2.24,-5 5,-5 2.76,0 5,2.24 5,5 z"
         id="path9520" />
    </marker>
    <marker
       style="overflow:visible"
       id="marker9512"
       refX="0"
       refY="0"
       orient="auto"
       inkscape:stockid="DotM"
       inkscape:isstock="true">
      <path
         transform="matrix(0.4,0,0,0.4,2.96,0.4)"
         style="fill:#17a9e2;fill-opacity:0.960784;fill-rule:evenodd;stroke:#17a9e2;stroke-width:1pt;stroke-opacity:0.960784"
         d="m -2.5,-1 c 0,2.76 -2.24,5 -5,5 -2.76,0 -5,-2.24 -5,-5 0,-2.76 2.24,-5 5,-5 2.76,0 5,2.24 5,5 z"
         id="path9510" />
    </marker>
    <marker
       style="overflow:visible"
       id="marker9060"
       refX="0"
       refY="0"
       orient="auto"
       inkscape:stockid="DotM"
       inkscape:isstock="true">
      <path
         transform="matrix(0.4,0,0,0.4,2.96,0.4)"
         style="fill:#17a9e2;fill-opacity:0.960784;fill-rule:evenodd;stroke:#17a9e2;stroke-width:1pt;stroke-opacity:0.960784"
         d="m -2.5,-1 c 0,2.76 -2.24,5 -5,5 -2.76,0 -5,-2.24 -5,-5 0,-2.76 2.24,-5 5,-5 2.76,0 5,2.24 5,5 z"
         id="path9058" />
    </marker>
    <marker
       style="overflow:visible"
       id="marker9050"
       refX="0"
       refY="0"
       orient="auto"
       inkscape:stockid="DotM"
       inkscape:isstock="true">
      <path
         transform="matrix(0.4,0,0,0.4,2.96,0.4)"
         style="fill:#0391a0;fill-opacity:1;fill-rule:evenodd;stroke:#0391a0;stroke-width:1pt;stroke-opacity:1"
         d="m -2.5,-1 c 0,2.76 -2.24,5 -5,5 -2.76,0 -5,-2.24 -5,-5 0,-2.76 2.24,-5 5,-5 2.76,0 5,2.24 5,5 z"
         id="path9048" />
    </marker>
    <marker
       style="overflow:visible"
       id="marker9040"
       refX="0"
       refY="0"
       orient="auto"
       inkscape:stockid="DotM"
       inkscape:isstock="true">
      <path
         transform="matrix(0.4,0,0,0.4,2.96,0.4)"
         style="fill:#0391a0;fill-opacity:1;fill-rule:evenodd;stroke:#0391a0;stroke-width:1pt;stroke-opacity:1"
         d="m -2.5,-1 c 0,2.76 -2.24,5 -5,5 -2.76,0 -5,-2.24 -5,-5 0,-2.76 2.24,-5 5,-5 2.76,0 5,2.24 5,5 z"
         id="path9038" />
    </marker>
    <marker
       style="overflow:visible"
       id="marker9030"
       refX="0"
       refY="0"
       orient="auto"
       inkscape:stockid="DotM"
       inkscape:isstock="true">
      <path
         transform="matrix(0.4,0,0,0.4,2.96,0.4)"
         style="fill:#e50446;fill-opacity:1;fill-rule:evenodd;stroke:#e50446;stroke-width:1pt;stroke-opacity:1"
         d="m -2.5,-1 c 0,2.76 -2.24,5 -5,5 -2.76,0 -5,-2.24 -5,-5 0,-2.76 2.24,-5 5,-5 2.76,0 5,2.24 5,5 z"
         id="path9028" />
    </marker>
    <marker
       style="overflow:visible"
       id="marker9020"
       refX="0"
       refY="0"
       orient="auto"
       inkscape:stockid="DotM"
       inkscape:isstock="true">
      <path
         transform="matrix(0.4,0,0,0.4,2.96,0.4)"
         style="fill:#e50446;fill-opacity:1;fill-rule:evenodd;stroke:#e50446;stroke-width:1pt;stroke-opacity:1"
         d="m -2.5,-1 c 0,2.76 -2.24,5 -5,5 -2.76,0 -5,-2.24 -5,-5 0,-2.76 2.24,-5 5,-5 2.76,0 5,2.24 5,5 z"
         id="path9018" />
    </marker>
    <marker
       style="overflow:visible"
       id="marker8352"
       refX="0"
       refY="0"
       orient="auto"
       inkscape:stockid="DotM"
       inkscape:isstock="true">
      <path
         transform="matrix(0.4,0,0,0.4,2.96,0.4)"
         style="fill:#17a9e2;fill-opacity:0.960784;fill-rule:evenodd;stroke:#17a9e2;stroke-width:1pt;stroke-opacity:0.960784"
         d="m -2.5,-1 c 0,2.76 -2.24,5 -5,5 -2.76,0 -5,-2.24 -5,-5 0,-2.76 2.24,-5 5,-5 2.76,0 5,2.24 5,5 z"
         id="path8350" />
    </marker>
    <marker
       style="overflow:visible"
       id="marker8342"
       refX="0"
       refY="0"
       orient="auto"
       inkscape:stockid="DotM"
       inkscape:isstock="true">
      <path
         transform="matrix(0.4,0,0,0.4,2.96,0.4)"
         style="fill:#0391a0;fill-opacity:1;fill-rule:evenodd;stroke:#0391a0;stroke-width:1pt;stroke-opacity:1"
         d="m -2.5,-1 c 0,2.76 -2.24,5 -5,5 -2.76,0 -5,-2.24 -5,-5 0,-2.76 2.24,-5 5,-5 2.76,0 5,2.24 5,5 z"
         id="path8340" />
    </marker>
    <marker
       style="overflow:visible"
       id="marker8332"
       refX="0"
       refY="0"
       orient="auto"
       inkscape:stockid="DotM"
       inkscape:isstock="true">
      <path
         transform="matrix(0.4,0,0,0.4,2.96,0.4)"
         style="fill:#0391a0;fill-opacity:1;fill-rule:evenodd;stroke:#0391a0;stroke-width:1pt;stroke-opacity:1"
         d="m -2.5,-1 c 0,2.76 -2.24,5 -5,5 -2.76,0 -5,-2.24 -5,-5 0,-2.76 2.24,-5 5,-5 2.76,0 5,2.24 5,5 z"
         id="path8330" />
    </marker>
    <marker
       style="overflow:visible"
       id="marker8322"
       refX="0"
       refY="0"
       orient="auto"
       inkscape:stockid="DotM"
       inkscape:isstock="true">
      <path
         transform="matrix(0.4,0,0,0.4,2.96,0.4)"
         style="fill:#e50446;fill-opacity:1;fill-rule:evenodd;stroke:#e50446;stroke-width:1pt;stroke-opacity:1"
         d="m -2.5,-1 c 0,2.76 -2.24,5 -5,5 -2.76,0 -5,-2.24 -5,-5 0,-2.76 2.24,-5 5,-5 2.76,0 5,2.24 5,5 z"
         id="path8320" />
    </marker>
    <marker
       style="overflow:visible"
       id="marker8312"
       refX="0"
       refY="0"
       orient="auto"
       inkscape:stockid="DotM"
       inkscape:isstock="true">
      <path
         transform="matrix(0.4,0,0,0.4,2.96,0.4)"
         style="fill:#e50446;fill-opacity:1;fill-rule:evenodd;stroke:#e50446;stroke-width:1pt;stroke-opacity:1"
         d="m -2.5,-1 c 0,2.76 -2.24,5 -5,5 -2.76,0 -5,-2.24 -5,-5 0,-2.76 2.24,-5 5,-5 2.76,0 5,2.24 5,5 z"
         id="path8310" />
    </marker>
    <marker
       style="overflow:visible"
       id="marker7680"
       refX="0"
       refY="0"
       orient="auto"
       inkscape:stockid="DotM"
       inkscape:isstock="true">
      <path
         transform="matrix(0.4,0,0,0.4,2.96,0.4)"
         style="fill:#17a9e2;fill-opacity:0.960784;fill-rule:evenodd;stroke:#17a9e2;stroke-width:1pt;stroke-opacity:0.960784"
         d="m -2.5,-1 c 0,2.76 -2.24,5 -5,5 -2.76,0 -5,-2.24 -5,-5 0,-2.76 2.24,-5 5,-5 2.76,0 5,2.24 5,5 z"
         id="path7678" />
    </marker>
    <marker
       style="overflow:visible"
       id="marker7670"
       refX="0"
       refY="0"
       orient="auto"
       inkscape:stockid="DotM"
       inkscape:isstock="true">
      <path
         transform="matrix(0.4,0,0,0.4,2.96,0.4)"
         style="fill:#17a9e2;fill-opacity:0.960784;fill-rule:evenodd;stroke:#17a9e2;stroke-width:1pt;stroke-opacity:0.960784"
         d="m -2.5,-1 c 0,2.76 -2.24,5 -5,5 -2.76,0 -5,-2.24 -5,-5 0,-2.76 2.24,-5 5,-5 2.76,0 5,2.24 5,5 z"
         id="path7668" />
    </marker>
    <marker
       style="overflow:visible"
       id="marker7660"
       refX="0"
       refY="0"
       orient="auto"
       inkscape:stockid="DotM"
       inkscape:isstock="true">
      <path
         transform="matrix(0.4,0,0,0.4,2.96,0.4)"
         style="fill:#0391a0;fill-opacity:1;fill-rule:evenodd;stroke:#0391a0;stroke-width:1pt;stroke-opacity:1"
         d="m -2.5,-1 c 0,2.76 -2.24,5 -5,5 -2.76,0 -5,-2.24 -5,-5 0,-2.76 2.24,-5 5,-5 2.76,0 5,2.24 5,5 z"
         id="path7658" />
    </marker>
    <marker
       style="overflow:visible"
       id="marker7650"
       refX="0"
       refY="0"
       orient="auto"
       inkscape:stockid="DotM"
       inkscape:isstock="true">
      <path
         transform="matrix(0.4,0,0,0.4,2.96,0.4)"
         style="fill:#0391a0;fill-opacity:1;fill-rule:evenodd;stroke:#0391a0;stroke-width:1pt;stroke-opacity:1"
         d="m -2.5,-1 c 0,2.76 -2.24,5 -5,5 -2.76,0 -5,-2.24 -5,-5 0,-2.76 2.24,-5 5,-5 2.76,0 5,2.24 5,5 z"
         id="path7648" />
    </marker>
    <marker
       style="overflow:visible"
       id="marker7640"
       refX="0"
       refY="0"
       orient="auto"
       inkscape:stockid="DotM"
       inkscape:isstock="true">
      <path
         transform="matrix(0.4,0,0,0.4,2.96,0.4)"
         style="fill:#e50446;fill-opacity:1;fill-rule:evenodd;stroke:#e50446;stroke-width:1pt;stroke-opacity:1"
         d="m -2.5,-1 c 0,2.76 -2.24,5 -5,5 -2.76,0 -5,-2.24 -5,-5 0,-2.76 2.24,-5 5,-5 2.76,0 5,2.24 5,5 z"
         id="path7638" />
    </marker>
    <marker
       style="overflow:visible"
       id="marker7630"
       refX="0"
       refY="0"
       orient="auto"
       inkscape:stockid="DotM"
       inkscape:isstock="true">
      <path
         transform="matrix(0.4,0,0,0.4,2.96,0.4)"
         style="fill:#e50446;fill-opacity:1;fill-rule:evenodd;stroke:#e50446;stroke-width:1pt;stroke-opacity:1"
         d="m -2.5,-1 c 0,2.76 -2.24,5 -5,5 -2.76,0 -5,-2.24 -5,-5 0,-2.76 2.24,-5 5,-5 2.76,0 5,2.24 5,5 z"
         id="path7628" />
    </marker>
    <marker
       style="overflow:visible"
       id="marker7268"
       refX="0"
       refY="0"
       orient="auto"
       inkscape:stockid="DotM"
       inkscape:isstock="true">
      <path
         transform="matrix(0.4,0,0,0.4,2.96,0.4)"
         style="fill:#e50446;fill-opacity:1;fill-rule:evenodd;stroke:#e50446;stroke-width:1pt;stroke-opacity:1"
         d="m -2.5,-1 c 0,2.76 -2.24,5 -5,5 -2.76,0 -5,-2.24 -5,-5 0,-2.76 2.24,-5 5,-5 2.76,0 5,2.24 5,5 z"
         id="path7266" />
    </marker>
    <marker
       style="overflow:visible"
       id="marker7258"
       refX="0"
       refY="0"
       orient="auto"
       inkscape:stockid="DotM"
       inkscape:isstock="true">
      <path
         transform="matrix(0.4,0,0,0.4,2.96,0.4)"
         style="fill:#17a9e2;fill-opacity:0.960784;fill-rule:evenodd;stroke:#17a9e2;stroke-width:1pt;stroke-opacity:0.960784"
         d="m -2.5,-1 c 0,2.76 -2.24,5 -5,5 -2.76,0 -5,-2.24 -5,-5 0,-2.76 2.24,-5 5,-5 2.76,0 5,2.24 5,5 z"
         id="path7256" />
    </marker>
    <marker
       style="overflow:visible"
       id="marker7248"
       refX="0"
       refY="0"
       orient="auto"
       inkscape:stockid="DotM"
       inkscape:isstock="true">
      <path
         transform="matrix(0.4,0,0,0.4,2.96,0.4)"
         style="fill:#17a9e2;fill-opacity:0.960784;fill-rule:evenodd;stroke:#17a9e2;stroke-width:1pt;stroke-opacity:0.960784"
         d="m -2.5,-1 c 0,2.76 -2.24,5 -5,5 -2.76,0 -5,-2.24 -5,-5 0,-2.76 2.24,-5 5,-5 2.76,0 5,2.24 5,5 z"
         id="path7246" />
    </marker>
    <marker
       style="overflow:visible"
       id="marker7238"
       refX="0"
       refY="0"
       orient="auto"
       inkscape:stockid="DotM"
       inkscape:isstock="true">
      <path
         transform="matrix(0.4,0,0,0.4,2.96,0.4)"
         style="fill:#0391a0;fill-opacity:1;fill-rule:evenodd;stroke:#0391a0;stroke-width:1pt;stroke-opacity:1"
         d="m -2.5,-1 c 0,2.76 -2.24,5 -5,5 -2.76,0 -5,-2.24 -5,-5 0,-2.76 2.24,-5 5,-5 2.76,0 5,2.24 5,5 z"
         id="path7236" />
    </marker>
    <marker
       style="overflow:visible"
       id="marker7228"
       refX="0"
       refY="0"
       orient="auto"
       inkscape:stockid="DotM"
       inkscape:isstock="true">
      <path
         transform="matrix(0.4,0,0,0.4,2.96,0.4)"
         style="fill:#0391a0;fill-opacity:1;fill-rule:evenodd;stroke:#0391a0;stroke-width:1pt;stroke-opacity:1"
         d="m -2.5,-1 c 0,2.76 -2.24,5 -5,5 -2.76,0 -5,-2.24 -5,-5 0,-2.76 2.24,-5 5,-5 2.76,0 5,2.24 5,5 z"
         id="path7226" />
    </marker>
    <marker
       style="overflow:visible"
       id="marker7218"
       refX="0"
       refY="0"
       orient="auto"
       inkscape:stockid="DotM"
       inkscape:isstock="true">
      <path
         transform="matrix(0.4,0,0,0.4,2.96,0.4)"
         style="fill:#e50446;fill-opacity:1;fill-rule:evenodd;stroke:#e50446;stroke-width:1pt;stroke-opacity:1"
         d="m -2.5,-1 c 0,2.76 -2.24,5 -5,5 -2.76,0 -5,-2.24 -5,-5 0,-2.76 2.24,-5 5,-5 2.76,0 5,2.24 5,5 z"
         id="path7216" />
    </marker>
    <marker
       style="overflow:visible"
       id="marker7208"
       refX="0"
       refY="0"
       orient="auto"
       inkscape:stockid="DotM"
       inkscape:isstock="true">
      <path
         transform="matrix(0.4,0,0,0.4,2.96,0.4)"
         style="fill:#e50446;fill-opacity:1;fill-rule:evenodd;stroke:#e50446;stroke-width:1pt;stroke-opacity:1"
         d="m -2.5,-1 c 0,2.76 -2.24,5 -5,5 -2.76,0 -5,-2.24 -5,-5 0,-2.76 2.24,-5 5,-5 2.76,0 5,2.24 5,5 z"
         id="path7206" />
    </marker>
    <linearGradient
       inkscape:collect="always"
       id="linearGradient5705-4">
      <stop
         style="stop-color:#17a9e2;stop-opacity:1;"
         offset="0"
         id="stop5701" />
      <stop
         style="stop-color:#17a9e2;stop-opacity:0;"
         offset="1"
         id="stop5703" />
    </linearGradient>
    <marker
       style="overflow:visible"
       id="marker3945"
       refX="0"
       refY="0"
       orient="auto"
       inkscape:stockid="DotM"
       inkscape:isstock="true">
      <path
         transform="matrix(0.4,0,0,0.4,2.96,0.4)"
         style="fill:#e50446;fill-opacity:1;fill-rule:evenodd;stroke:#e50446;stroke-width:1pt;stroke-opacity:1"
         d="m -2.5,-1 c 0,2.76 -2.24,5 -5,5 -2.76,0 -5,-2.24 -5,-5 0,-2.76 2.24,-5 5,-5 2.76,0 5,2.24 5,5 z"
         id="path3943" />
    </marker>
    <inkscape:path-effect
       effect="skeletal"
       id="path-effect3900"
       is_visible="true"
       lpeversion="1"
       pattern="m 127.77496,108.51653 a 1.5,1.5 0 0 1 1.37137,1.61593 1.5,1.5 0 0 1 -1.61345,1.37429 1.5,1.5 0 0 1 -1.37719,-1.61097 1.5,1.5 0 0 1 1.60847,-1.3801"
       copytype="single_stretched"
       prop_scale="5"
       scale_y_rel="false"
       spacing="5"
       normal_offset="0"
       tang_offset="0"
       prop_units="false"
       vertical_pattern="false"
       hide_knot="false"
       fuse_tolerance="0" />
    <inkscape:path-effect
       effect="skeletal"
       id="path-effect3853"
       is_visible="true"
       lpeversion="1"
       pattern="M 1.6237428,0.0051128 A 1.5,1.5 0 0 1 2.9951085,1.6210422 1.5,1.5 0 0 1 1.3816589,2.9953246 1.5,1.5 0 0 1 0.00446416,1.3843603 1.5,1.5 0 0 1 1.612938,0.00425771"
       copytype="repeated"
       prop_scale="1.15"
       scale_y_rel="true"
       spacing="5"
       normal_offset="0"
       tang_offset="0"
       prop_units="false"
       vertical_pattern="false"
       hide_knot="false"
       fuse_tolerance="0" />
    <marker
       style="overflow:visible"
       id="marker3611"
       refX="0"
       refY="0"
       orient="auto"
       inkscape:stockid="DotM"
       inkscape:isstock="true">
      <path
         transform="matrix(0.4,0,0,0.4,2.96,0.4)"
         style="fill:#e50446;fill-opacity:1;fill-rule:evenodd;stroke:#e50446;stroke-width:1pt;stroke-opacity:1"
         d="m -2.5,-1 c 0,2.76 -2.24,5 -5,5 -2.76,0 -5,-2.24 -5,-5 0,-2.76 2.24,-5 5,-5 2.76,0 5,2.24 5,5 z"
         id="path3609" />
    </marker>
    <marker
       style="overflow:visible"
       id="marker3541"
       refX="0"
       refY="0"
       orient="auto"
       inkscape:stockid="DotM"
       inkscape:isstock="true">
      <path
         transform="matrix(0.4,0,0,0.4,2.96,0.4)"
         style="fill:#e50446;fill-opacity:1;fill-rule:evenodd;stroke:#e50446;stroke-width:1pt;stroke-opacity:1"
         d="m -2.5,-1 c 0,2.76 -2.24,5 -5,5 -2.76,0 -5,-2.24 -5,-5 0,-2.76 2.24,-5 5,-5 2.76,0 5,2.24 5,5 z"
         id="path3539" />
    </marker>
    <marker
       style="overflow:visible"
       id="DotM"
       refX="0"
       refY="0"
       orient="auto"
       inkscape:stockid="DotM"
       inkscape:isstock="true">
      <path
         transform="matrix(0.4,0,0,0.4,2.96,0.4)"
         style="fill:#e50446;fill-opacity:1;fill-rule:evenodd;stroke:#e50446;stroke-width:1pt;stroke-opacity:1"
         d="m -2.5,-1 c 0,2.76 -2.24,5 -5,5 -2.76,0 -5,-2.24 -5,-5 0,-2.76 2.24,-5 5,-5 2.76,0 5,2.24 5,5 z"
         id="path1006" />
    </marker>
    <clipPath
       id="clip-path"
       transform="translate(-.17 -.25)">
      <path
         fill="none"
         d="m 0.17,0.25 h 208.2 V 79.61 H 0.17 Z"
         id="path12" />
    </clipPath>
    <style
       id="style15">.cls-2{fill:#06467c}.cls-3{fill:#e50446}.cls-4{fill:#0391a0}.cls-6{fill:#17a9e2}</style>
    <marker
       style="overflow:visible"
       id="marker2594"
       refX="0"
       refY="0"
       orient="auto"
       inkscape:stockid="DotM"
       inkscape:isstock="true">
      <path
         transform="matrix(0.4,0,0,0.4,2.96,0.4)"
         style="fill:#e50446;fill-opacity:1;fill-rule:evenodd;stroke:#e50446;stroke-width:1pt;stroke-opacity:1"
         d="m -2.5,-1 c 0,2.76 -2.24,5 -5,5 -2.76,0 -5,-2.24 -5,-5 0,-2.76 2.24,-5 5,-5 2.76,0 5,2.24 5,5 z"
         id="path2592" />
    </marker>
    <marker
       style="overflow:visible"
       id="marker2598"
       refX="0"
       refY="0"
       orient="auto"
       inkscape:stockid="DotM"
       inkscape:isstock="true">
      <path
         transform="matrix(0.4,0,0,0.4,2.96,0.4)"
         style="fill:#17a9e2;fill-opacity:0.960784;fill-rule:evenodd;stroke:#17a9e2;stroke-width:1pt;stroke-opacity:0.960784"
         d="m -2.5,-1 c 0,2.76 -2.24,5 -5,5 -2.76,0 -5,-2.24 -5,-5 0,-2.76 2.24,-5 5,-5 2.76,0 5,2.24 5,5 z"
         id="path2596" />
    </marker>
    <radialGradient
       inkscape:collect="always"
       xlink:href="#linearGradient5705-4"
       id="radialGradient5711"
       cx="132.56569"
       cy="68.153725"
       fx="132.56569"
       fy="68.153725"
       r="14.465866"
       gradientUnits="userSpaceOnUse" />
  </defs>
  <sodipodi:namedview
     id="base"
     pagecolor="#ffffff"
     bordercolor="#666666"
     borderopacity="1.0"
     inkscape:pageopacity="0.0"
     inkscape:pageshadow="2"
     inkscape:zoom="0.98994949"
     inkscape:cx="430.00227"
     inkscape:cy="315.5247"
     inkscape:document-units="mm"
     inkscape:current-layer="layer1"
     inkscape:document-rotation="0"
     showgrid="false"
     inkscape:window-width="1920"
     inkscape:window-height="1137"
     inkscape:window-x="-8"
     inkscape:window-y="-8"
     inkscape:window-maximized="1"
     fit-margin-top="0"
     fit-margin-left="0"
     fit-margin-right="0"
     fit-margin-bottom="0" />
  <metadata
     id="metadata5">
    <rdf:RDF>
      <cc:Work
         rdf:about="">
        <dc:format>image/svg+xml</dc:format>
        <dc:type
           rdf:resource="http://purl.org/dc/dcmitype/StillImage" />
        <dc:title />
      </cc:Work>
    </rdf:RDF>
  </metadata>
  <g
     inkscape:label="Ebene 1"
     inkscape:groupmode="layer"
     id="layer1"
     transform="translate(1.388028,2.8607903)">
    <rect
       style="fill:#ffffff;stroke-width:3.92367;stroke-linecap:round;stroke-linejoin:round;stroke-miterlimit:14.9;stroke-dasharray:none;stroke-dashoffset:50;stroke-opacity:0.960784"
       id="rect6964"
       width="105"
       height="105"
       x="-1.388028"
       y="-2.8607903" />
    <path
       style="fill:none;fill-opacity:1;fill-rule:evenodd;stroke:#e50446;stroke-width:3.90003;stroke-miterlimit:14.9;stroke-dasharray:none;stroke-dashoffset:26.1939;stroke-opacity:1;marker-start:url(#marker5798);marker-mid:url(#marker4118);marker-end:url(#marker5846)"
       id="path10-8"
       sodipodi:type="arc"
       sodipodi:cx="-68.296021"
       sodipodi:cy="18.077986"
       sodipodi:rx="49.528969"
       sodipodi:ry="48.896164"
       sodipodi:start="3.2346794"
       sodipodi:end="2.0711417"
       sodipodi:arc-type="arc"
       d="m -117.61056,13.532971 a 49.528969,48.896164 0 0 1 39.581581,-43.397759 49.528969,48.896164 0 0 1 53.464677,24.9878507 49.528969,48.896164 0 0 1 -8.91428,57.7307703 49.528969,48.896164 0 0 1 -58.577902,8.126475"
       sodipodi:open="true"
       transform="matrix(-0.50248254,-0.86458735,0.86745161,-0.49752157,0,0)" />
    <path
       style="fill:none;fill-opacity:1;fill-rule:evenodd;stroke:#0391a0;stroke-width:3.96876;stroke-miterlimit:14.9;stroke-dasharray:none;stroke-dashoffset:0;stroke-opacity:1;marker-start:url(#marker4086);marker-mid:url(#marker3162);marker-end:url(#marker5836)"
       id="path10-8-1-8"
       sodipodi:type="arc"
       sodipodi:cx="-38.594803"
       sodipodi:cy="-58.318619"
       sodipodi:rx="34.677036"
       sodipodi:ry="34.074635"
       sodipodi:start="0.72330667"
       sodipodi:end="5.4134776"
       sodipodi:arc-type="arc"
       d="m -12.600159,-35.765741 a 34.677036,34.074635 0 0 1 -48.753087,3.156518 34.677036,34.074635 0 0 1 -3.573296,-47.881468 34.677036,34.074635 0 0 1 48.700159,-3.865734"
       transform="matrix(-0.97961289,0.20089448,-0.20319846,-0.97913757,0,0)"
       sodipodi:open="true" />
    <path
       style="fill:none;fill-opacity:1;fill-rule:evenodd;stroke:#17a9e2;stroke-width:3.96879;stroke-linecap:round;stroke-miterlimit:14.9;stroke-dasharray:none;stroke-dashoffset:13.2293;stroke-opacity:0.960784;marker-start:url(#marker4076);marker-mid:url(#marker3152);marker-end:url(#marker5826)"
       id="path10-8-1-8-2-5"
       sodipodi:type="arc"
       sodipodi:cx="-26.05892"
       sodipodi:cy="-65.611153"
       sodipodi:rx="20.778629"
       sodipodi:ry="20.519331"
       sodipodi:start="3.5082557"
       sodipodi:end="1.821357"
       sodipodi:arc-type="arc"
       d="m -45.45637,-72.96738 a 20.778629,20.519331 0 0 1 26.090549,-12.069438 20.778629,20.519331 0 0 1 13.2222781,25.278691 20.778629,20.519331 0 0 1 -25.0673791,14.02556"
       transform="matrix(-0.91654417,0.39993348,-0.39419698,-0.91902597,0,0)"
       sodipodi:open="true" />
  </g>
</svg>
