<?xml version="1.0" encoding="UTF-8" standalone="no"?>
<!-- Created with Inkscape (http://www.inkscape.org/) -->

<svg
   width="40"
   height="40"
   viewBox="0 0 40 40"
   version="1.1"
   id="svg1"
   xmlns:xlink="http://www.w3.org/1999/xlink"
   xmlns="http://www.w3.org/2000/svg"
   xmlns:svg="http://www.w3.org/2000/svg"
   xmlns:rdf="http://www.w3.org/1999/02/22-rdf-syntax-ns#"
   xmlns:cc="http://creativecommons.org/ns#"
   xmlns:dc="http://purl.org/dc/elements/1.1/">
  <title
     id="title1">Pydidas frame icon: Define diffraction experiment</title>
  <defs
     id="defs1">
    <radialGradient
       xlink:href="#linearGradient5488"
       id="radialGradient5490"
       cx="26.458332"
       cy="54.70821"
       fx="26.458332"
       fy="54.70821"
       r="6.6662598"
       gradientTransform="matrix(1.6715307,0,0,1.671531,-16.225917,-79.446467)"
       gradientUnits="userSpaceOnUse" />
    <linearGradient
       id="linearGradient5488">
      <stop
         style="stop-color:#ffffff;stop-opacity:1;"
         offset="0"
         id="stop5484" />
      <stop
         style="stop-color:#c8c8c8;stop-opacity:0.80769229;"
         offset="0.33333334"
         id="stop6286" />
      <stop
         style="stop-color:#000000;stop-opacity:0;"
         offset="1"
         id="stop5486" />
    </linearGradient>
  </defs>
  <rect
     style="fill:#000000;fill-opacity:1;stroke:#6e6e6e;stroke-width:1.71428;stroke-linecap:round;stroke-linejoin:miter;stroke-dasharray:none;stroke-dashoffset:0.643179;stroke-opacity:1;paint-order:stroke fill markers;stop-color:#000000"
     id="rect4972"
     width="22.285717"
     height="22.285717"
     x="16.85714"
     y="0.85714"
     ry="0" />
  <circle
     style="fill:url(#radialGradient5490);fill-opacity:1;stroke:none;stroke-width:3.34956;stroke-linecap:round;stroke-linejoin:round;stroke-dashoffset:0.643179;paint-order:stroke fill markers;stop-color:#000000"
     id="path5026"
     cx="28"
     cy="11.999997"
     r="11.142859" />
  <ellipse
     style="fill:none;fill-opacity:1;stroke:#ffffff;stroke-width:0.783691;stroke-linecap:round;stroke-linejoin:round;stroke-dasharray:0.783691, 2.35107;stroke-dashoffset:0;stroke-opacity:0.802817;paint-order:stroke fill markers;stop-color:#000000"
     id="path9364"
     cx="27.975777"
     cy="11.977815"
     rx="6.4908886"
     ry="6.4896927" />
  <ellipse
     style="fill:none;fill-opacity:1;stroke:#ffffff;stroke-width:0.819177;stroke-linecap:round;stroke-linejoin:round;stroke-dasharray:0.819177, 1.63835;stroke-dashoffset:0.819177;stroke-opacity:0.802817;paint-order:stroke fill markers;stop-color:#000000"
     id="path9364-7"
     cx="28.013832"
     cy="12.016012"
     rx="9.8912687"
     ry="9.8921347" />
  <ellipse
     style="fill:#000000;fill-opacity:1;stroke:none;stroke-width:0.776337;stroke-linecap:round;stroke-linejoin:round;stroke-dasharray:0.776337, 2.32901;stroke-dashoffset:0;stroke-opacity:0.802817;paint-order:stroke fill markers;stop-color:#000000"
     id="path12148"
     cx="28.000002"
     cy="11.999997"
     rx="1.2857144"
     ry="1.2857145" />
  <path
     style="font-size:77.8349px;line-height:1.25;font-family:calibri;-inkscape-font-specification:calibri;white-space:pre"
     d="m 35.725003,-2.4703459 q 0,0.5320745 -0.038,0.950133 -0.03801,0.3800532 -0.114016,0.64609049 -0.03801,0.26603725 -0.114016,0.45606387 -0.07601,0.19002661 -0.228032,0.3420479 -0.152022,0.15202128 -0.532075,0.26603725 -0.342048,0.15202129 -0.798112,0.22803193 -0.456063,0.11401597 -0.950133,0.15202129 -0.456064,0.0760107 -0.950133,0.0760107 -1.710239,0 -3.040425,-0.38005322 -1.292181,-0.3420479 -2.28032,-1.21617032 Q 25.691598,-1.8622608 24.931491,-3.420479 24.171385,-4.9786972 23.449284,-7.3730325 L 17.1404,-28.199949 7.7910911,-1.2161703 q -0.1520213,0.45606386 -0.3800533,0.76010643 -0.1900266,0.26603726 -0.6080851,0.41805855 -0.4180586,0.15202129 -1.1021544,0.19002661 -0.6840958,0.0760106 -1.7862501,0.0760106 -1.1401597,0 -1.8622608,-0.11401596 Q 1.3681916,0.03800532 1.064149,-0.22803193 0.76010644,-0.49406919 0.79811177,-0.95013306 0.83611709,-1.4442022 1.1401597,-2.2043087 L 14.328006,-36.637131 13.339868,-39.601546 q -1.78625,-5.510771 -2.850399,-6.878963 -1.0641491,-1.368192 -3.1544418,-1.368192 -1.064149,0 -2.2803193,0.342048 -1.2161704,0.304043 -1.4822076,0.304043 -0.1900266,0 -0.3420479,-0.07601 -0.114016,-0.07601 -0.2280319,-0.304042 -0.076011,-0.266038 -0.114016,-0.646091 -0.038005,-0.418058 -0.038005,-1.064149 0,-1.14016 0.1140159,-1.748245 0.114016,-0.64609 0.3800533,-0.912127 0.3040425,-0.304043 0.7981117,-0.49407 0.5320745,-0.190026 1.3301863,-0.380053 0.8361171,-0.190026 1.5202129,-0.228032 0.6840958,-0.07601 1.2921809,-0.07601 2.0522878,0 3.6865158,0.456063 1.634229,0.456064 2.964416,1.748245 1.330186,1.292181 2.470346,3.610506 1.178165,2.318324 2.280319,6.042846 l 9.9954,32.3425293 q 0.380053,1.3301863 0.760106,2.128298 0.380053,0.7981118 0.760107,1.2541757 0.418058,0.4560638 0.912127,0.6460904 0.494069,0.1520213 1.178165,0.1520213 0.456064,0 0.836117,-0.038005 0.380054,-0.076011 0.646091,-0.076011 0.266037,0 0.456064,0.076011 0.190026,0.076011 0.266037,0.3420479 0.114016,0.2280319 0.152021,0.7221011 0.07601,0.4560639 0.07601,1.2541757 z M 0,-36.143061 Z"
     id="text13881"
     transform="matrix(0.15417252,0,0,0.15417252,2.4388022,28.095699)"
     aria-label="λ" />
  <path
     style="font-size:146.687px;line-height:1.25;font-family:calibri;-inkscape-font-specification:calibri;white-space:pre"
     d="m 66.181047,-1.7906127 q 0,0.572996 -0.286498,1.00274309 -0.214873,0.42974706 -0.859494,0.7162451 -0.572996,0.21487353 -1.575739,0.35812255 -1.002743,0.14324902 -2.435233,0.14324902 -1.504115,0 -2.506858,-0.14324902 Q 57.514482,0.14324902 56.869861,-0.07162451 56.22524,-0.35812255 55.938742,-0.78786961 55.652244,-1.2176167 55.652244,-1.7906127 v -8.5233163 q -5.08534,5.5150868 -10.600427,8.5949408 -5.443463,3.0798539 -11.961293,3.0798539 -7.090827,0 -12.104543,-2.7217314 -5.013715,-2.7933559 -8.165194,-7.448949 Q 9.7409334,-13.537032 8.3084432,-19.839989 6.875953,-26.214571 6.875953,-33.233773 q 0,-8.308443 1.7906127,-14.969522 1.7906123,-6.732704 5.3002133,-11.459922 3.509601,-4.727217 8.666566,-7.234075 5.228589,-2.578483 12.032918,-2.578483 5.658336,0 10.313929,2.506858 4.727218,2.435233 9.311187,7.234076 V -97.19446 q 0,-0.501372 0.214873,-0.931119 0.286498,-0.501371 1.002743,-0.716245 0.716245,-0.286498 1.790613,-0.429747 1.145992,-0.214873 2.86498,-0.214873 1.790613,0 2.936605,0.214873 1.145992,0.143249 1.790613,0.429747 0.644621,0.214874 0.931119,0.716245 0.358122,0.429747 0.358122,0.931119 z M 54.291379,-47.128928 q -4.798843,-5.944834 -9.311187,-9.024688 -4.440719,-3.151478 -9.311186,-3.151478 -4.512344,0 -7.663823,2.148735 -3.151478,2.148735 -5.156964,5.658336 -1.933862,3.509601 -2.864981,7.950321 -0.859494,4.44072 -0.859494,9.024688 0,4.870467 0.716245,9.52606 0.78787,4.655593 2.650107,8.308443 1.862237,3.581226 4.942091,5.801585 3.079854,2.1487358 7.735447,2.1487358 2.363609,0 4.512345,-0.6446206 2.220359,-0.6446202 4.512344,-2.1487352 2.291984,-1.504115 4.798842,-3.867724 2.506858,-2.435233 5.300214,-5.944834 z m 88.742761,10.31393 q 0,2.793356 -1.43249,4.010972 -1.36086,1.145993 -3.15147,1.145993 H 96.191714 q 0,5.371838 1.074368,9.669308 1.074368,4.297471 3.581228,7.377325 2.50686,3.079854 6.51783,4.7272176 4.01097,1.6473638 9.81256,1.6473638 4.58396,0 8.16519,-0.7162451 3.58123,-0.7878697 6.15971,-1.7189883 2.6501,-0.931119 4.29747,-1.647364 1.71899,-0.787869 2.57848,-0.787869 0.50137,0 0.85949,0.286498 0.42975,0.214873 0.64463,0.716245 0.21487,0.501371 0.28649,1.43249 0.14325,0.8594941 0.14325,2.1487353 0,0.9311186 -0.0716,1.6473637 -0.0716,0.6446206 -0.21488,1.2176167 -0.0716,0.5013716 -0.35812,0.9311186 -0.21487,0.4297471 -0.64462,0.8594942 -0.35812,0.3581225 -2.29198,1.2892411 -1.93386,0.8594942 -5.01372,1.71898828 Q 128.63762,0 124.55502,0.64462059 q -4.01097,0.71624511 -8.59494,0.71624511 -7.95032,0 -13.96678,-2.22035982 -5.944835,-2.22035978 -10.027432,-6.58945488 -4.082597,-4.369095 -6.159708,-10.95855 -2.07711,-6.589455 -2.07711,-15.327645 0,-8.308443 2.148735,-14.897898 2.148735,-6.66108 6.159708,-11.245048 4.082597,-4.655594 9.812557,-7.090827 5.72996,-2.506858 12.82079,-2.506858 7.5922,0 12.89241,2.435234 5.37184,2.435233 8.80981,6.589455 3.43798,4.082597 5.01372,9.669308 1.64736,5.515088 1.64736,11.818045 z m -11.88966,-3.509601 q 0.21487,-9.311186 -4.15423,-14.6114 -4.29747,-5.300214 -12.82078,-5.300214 -4.3691,0 -7.66383,1.647364 -3.29472,1.647364 -5.51508,4.369095 -2.220363,2.721731 -3.43798,6.374581 -1.217617,3.581226 -1.360866,7.520574 z m 62.59981,33.8067686 q 0,2.0771108 -0.28649,3.2947275 -0.2865,1.2176166 -0.8595,1.7906127 -0.573,0.57299608 -1.71899,1.07436765 -1.14599,0.50137157 -2.6501,0.78786961 -1.43249,0.35812255 -3.07986,0.57299604 -1.64736,0.2148736 -3.29473,0.2148736 -5.01371,0 -8.59494,-1.28924121 -3.58122,-1.36086569 -5.87321,-4.01097259 -2.29198,-2.7217313 -3.36635,-6.8043289 -1.00274,-4.154221 -1.00274,-9.740933 v -37.674492 h -9.02469 q -1.07437,0 -1.71899,-1.145992 -0.64462,-1.145992 -0.64462,-3.724475 0,-1.360866 0.14325,-2.291984 0.21487,-0.931119 0.50137,-1.504115 0.2865,-0.64462 0.71625,-0.859494 0.50137,-0.286498 1.07436,-0.286498 h 8.95307 v -15.327645 q 0,-0.501372 0.21487,-0.931119 0.2865,-0.429747 0.93112,-0.716245 0.71625,-0.358122 1.86224,-0.501371 1.14599,-0.143249 2.86498,-0.143249 1.79061,0 2.9366,0.143249 1.146,0.143249 1.79062,0.501371 0.64462,0.286498 0.93111,0.716245 0.2865,0.429747 0.2865,0.931119 v 15.327645 h 16.54526 q 0.573,0 1.00275,0.286498 0.42974,0.214874 0.71624,0.859494 0.35813,0.572996 0.50137,1.504115 0.14325,0.931118 0.14325,2.291984 0,2.578483 -0.64462,3.724475 -0.64462,1.145992 -1.71899,1.145992 h -16.54526 v 35.955504 q 0,6.661079 1.93386,10.099056 2.00549,3.3663518 7.09083,3.3663518 1.64736,0 2.93661,-0.2864981 1.28924,-0.3581225 2.29198,-0.7162451 1.00274,-0.3581226 1.71899,-0.6446206 0.71624,-0.358123 1.28924,-0.358123 0.35812,0 0.64462,0.214874 0.35812,0.143249 0.50137,0.644621 0.21488,0.5013712 0.35812,1.3608653 0.14325,0.8594941 0.14325,2.1487353 z"
     id="text15431"
     transform="matrix(0.081807,0,0,0.081807,-0.56250108,8.1386876)"
     aria-label="det" />
  <path
     style="fill:none;stroke:#e60046;stroke-width:1;stroke-linecap:round;stroke-linejoin:miter;stroke-dasharray:none;stroke-dashoffset:0;stroke-opacity:1"
     d="M 28.163886,2.08864 C 21.324668,11.121465 12.189373,26.243671 5,35"
     id="path12695" />
  <path
     style="font-size:146.687px;line-height:1.25;font-family:calibri;-inkscape-font-specification:calibri;white-space:pre"
     d="m 66.181047,-1.7906127 q 0,0.572996 -0.286498,1.00274309 -0.214873,0.42974706 -0.859494,0.7162451 -0.572996,0.21487353 -1.575739,0.35812255 -1.002743,0.14324902 -2.435233,0.14324902 -1.504115,0 -2.506858,-0.14324902 Q 57.514482,0.14324902 56.869861,-0.07162451 56.22524,-0.35812255 55.938742,-0.78786961 55.652244,-1.2176167 55.652244,-1.7906127 v -8.5233163 q -5.08534,5.5150868 -10.600427,8.5949408 -5.443463,3.0798539 -11.961293,3.0798539 -7.090827,0 -12.104543,-2.7217314 -5.013715,-2.7933559 -8.165194,-7.448949 Q 9.7409334,-13.537032 8.3084432,-19.839989 6.875953,-26.214571 6.875953,-33.233773 q 0,-8.308443 1.7906127,-14.969522 1.7906123,-6.732704 5.3002133,-11.459922 3.509601,-4.727217 8.666566,-7.234075 5.228589,-2.578483 12.032918,-2.578483 5.658336,0 10.313929,2.506858 4.727218,2.435233 9.311187,7.234076 V -97.19446 q 0,-0.501372 0.214873,-0.931119 0.286498,-0.501371 1.002743,-0.716245 0.716245,-0.286498 1.790613,-0.429747 1.145992,-0.214873 2.86498,-0.214873 1.790613,0 2.936605,0.214873 1.145992,0.143249 1.790613,0.429747 0.644621,0.214874 0.931119,0.716245 0.358122,0.429747 0.358122,0.931119 z M 54.291379,-47.128928 q -4.798843,-5.944834 -9.311187,-9.024688 -4.440719,-3.151478 -9.311186,-3.151478 -4.512344,0 -7.663823,2.148735 -3.151478,2.148735 -5.156964,5.658336 -1.933862,3.509601 -2.864981,7.950321 -0.859494,4.44072 -0.859494,9.024688 0,4.870467 0.716245,9.52606 0.78787,4.655593 2.650107,8.308443 1.862237,3.581226 4.942091,5.801585 3.079854,2.1487358 7.735447,2.1487358 2.363609,0 4.512345,-0.6446206 2.220359,-0.6446202 4.512344,-2.1487352 2.291984,-1.504115 4.798842,-3.867724 2.506858,-2.435233 5.300214,-5.944834 z m 45.553185,45.3383153 q 0,0.572996 -0.286498,1.00274309 -0.286498,0.35812255 -0.931118,0.64462059 -0.644621,0.28649804 -1.790613,0.42974706 -1.145992,0.14324902 -2.936605,0.14324902 -1.718988,0 -2.86498,-0.14324902 Q 89.888758,0.14324902 89.172512,-0.14324902 88.527892,-0.42974706 88.241394,-0.78786961 88.02652,-1.2176167 88.02652,-1.7906127 V -66.252672 q 0,-0.501371 0.214874,-0.931118 0.286498,-0.429747 0.931118,-0.716245 0.716246,-0.286499 1.862238,-0.429748 1.145992,-0.143249 2.86498,-0.143249 1.790613,0 2.936605,0.143249 1.145992,0.143249 1.790613,0.429748 0.64462,0.286498 0.931118,0.716245 0.286498,0.429747 0.286498,0.931118 z m 1.360866,-86.2359103 q 0,4.154222 -1.575739,5.658337 -1.575739,1.504114 -5.801585,1.504114 -4.154222,0 -5.729961,-1.43249 -1.504115,-1.504115 -1.504115,-5.586712 0,-4.154221 1.575739,-5.658336 1.57574,-1.504115 5.801586,-1.504115 4.154221,0 5.658336,1.504115 1.575739,1.43249 1.575739,5.515087 z m 60.95246,68.687905 q 0,4.942091 -1.86224,8.809815 -1.79061,3.8677236 -5.15696,6.5178304 Q 151.77234,-1.3608657 147.11674,0 q -4.65559,1.3608657 -10.2423,1.3608657 -3.43798,0 -6.58946,-0.57299609 -3.07985,-0.50137157 -5.58671,-1.28924118 -2.43523,-0.85949413 -4.15422,-1.71898823 -1.71899,-0.9311186 -2.50686,-1.6473637 -0.78787,-0.7162451 -1.14599,-2.0054863 -0.35812,-1.2892412 -0.35812,-3.509601 0,-1.3608652 0.14325,-2.2919842 0.14324,-0.931119 0.35812,-1.504115 0.21487,-0.572996 0.57299,-0.787869 0.42975,-0.286498 0.93112,-0.286498 0.78787,0 2.29199,1.002743 1.57574,0.931118 3.7961,2.07711 2.29198,1.145993 5.37183,2.1487357 3.07986,0.9311187 7.09083,0.9311187 3.00823,0 5.44346,-0.6446206 2.43524,-0.6446206 4.22585,-1.8622368 1.79061,-1.289242 2.72173,-3.223103 1.00274,-1.933862 1.00274,-4.583969 0,-2.721731 -1.43249,-4.583969 -1.36086,-1.862237 -3.65285,-3.294727 -2.29198,-1.43249 -5.15696,-2.506858 -2.86498,-1.145992 -5.94484,-2.363609 -3.00822,-1.217617 -5.94483,-2.721731 -2.86498,-1.575739 -5.15696,-3.796099 -2.29199,-2.22036 -3.72448,-5.300214 -1.36086,-3.079854 -1.36086,-7.377325 0,-3.796099 1.43249,-7.234075 1.50411,-3.509601 4.44072,-6.088083 2.9366,-2.650107 7.3057,-4.225846 4.44072,-1.57574 10.31392,-1.57574 2.57849,0 5.15697,0.429747 2.57848,0.429747 4.65559,1.074368 2.07711,0.644621 3.5096,1.43249 1.50412,0.716245 2.22036,1.289241 0.78787,0.572996 1.00275,1.002744 0.28649,0.429747 0.35812,1.002743 0.14325,0.501371 0.21487,1.289241 0.14325,0.787869 0.14325,1.933862 0,1.217616 -0.14325,2.148735 -0.0716,0.859494 -0.35812,1.43249 -0.21487,0.572996 -0.573,0.859494 -0.35812,0.214874 -0.78787,0.214874 -0.64462,0 -1.86223,-0.78787 -1.21762,-0.787869 -3.15148,-1.647364 -1.93386,-0.931118 -4.58397,-1.718988 -2.57848,-0.787869 -5.94483,-0.787869 -3.00823,0 -5.30022,0.716245 -2.29198,0.64462 -3.7961,1.933861 -1.43249,1.217617 -2.22036,2.936605 -0.71624,1.718989 -0.71624,3.724475 0,2.793356 1.43249,4.727218 1.43249,1.862237 3.72447,3.294727 2.29199,1.43249 5.22859,2.578482 2.93661,1.145993 5.94484,2.363609 3.07985,1.217617 6.01646,2.721732 3.00822,1.504114 5.30021,3.65285 2.29198,2.148735 3.65285,5.156964 1.43249,3.00823 1.43249,7.162451 z m 48.77628,12.8207876 q 0,2.0771108 -0.28649,3.2947275 -0.2865,1.2176166 -0.8595,1.7906127 -0.57299,0.57299608 -1.71899,1.07436765 -1.14599,0.50137157 -2.6501,0.78786961 -1.43249,0.35812255 -3.07986,0.57299604 -1.64736,0.2148736 -3.29473,0.2148736 -5.01371,0 -8.59494,-1.28924121 -3.58122,-1.36086569 -5.87321,-4.01097259 -2.29198,-2.7217313 -3.36635,-6.8043289 -1.00274,-4.154221 -1.00274,-9.740933 v -37.674492 h -9.02469 q -1.07437,0 -1.71899,-1.145992 -0.64462,-1.145992 -0.64462,-3.724475 0,-1.360866 0.14325,-2.291984 0.21487,-0.931119 0.50137,-1.504115 0.2865,-0.64462 0.71625,-0.859494 0.50137,-0.286498 1.07436,-0.286498 h 8.95307 v -15.327645 q 0,-0.501372 0.21487,-0.931119 0.2865,-0.429747 0.93112,-0.716245 0.71625,-0.358122 1.86224,-0.501371 1.14599,-0.143249 2.86498,-0.143249 1.79061,0 2.9366,0.143249 1.146,0.143249 1.79062,0.501371 0.64462,0.286498 0.93111,0.716245 0.2865,0.429747 0.2865,0.931119 v 15.327645 h 16.54526 q 0.573,0 1.00275,0.286498 0.42974,0.214874 0.71624,0.859494 0.35813,0.572996 0.50137,1.504115 0.14325,0.931118 0.14325,2.291984 0,2.578483 -0.64462,3.724475 -0.64462,1.145992 -1.71899,1.145992 H 192.0253 v 35.955504 q 0,6.661079 1.93386,10.099056 2.00549,3.3663518 7.09083,3.3663518 1.64736,0 2.93661,-0.2864981 1.28924,-0.3581225 2.29198,-0.7162451 1.00274,-0.3581226 1.71899,-0.6446206 0.71624,-0.358123 1.28924,-0.358123 0.35812,0 0.64462,0.214874 0.35812,0.143249 0.50137,0.644621 0.21488,0.5013712 0.35812,1.3608653 0.14325,0.8594941 0.14325,2.1487353 z"
     id="text15431-8"
     transform="matrix(0.081807,0,0,0.081807,14.71875,34.069338)"
     aria-label="dist" />
  <path
     style="fill:none;stroke:#e60046;stroke-width:1;stroke-linecap:round;stroke-linejoin:miter;stroke-dasharray:2, 2;stroke-dashoffset:0;stroke-opacity:1"
     d="M 27.743894,12.256113 5,35"
     id="path12695-3" />
  <path
     style="fill:#0091a0;fill-opacity:1;stroke:none;stroke-width:0.13089px;stroke-linecap:butt;stroke-linejoin:miter;stroke-opacity:1"
     d="m 2.4603261,36.75 4.0000099,2.4 V 33.549999 L 2.4603261,31.15 Z"
     id="path1" />
  <path
     style="fill:#32cede;fill-opacity:1;stroke:none;stroke-width:1.6px;stroke-linecap:butt;stroke-linejoin:miter;stroke-opacity:1"
     d="m 6.460336,39.15 4,-2.4 v -5.6 l -4,2.406398 z"
     id="path2" />
  <path
     style="fill:#00606a;fill-opacity:1;stroke:none;stroke-width:1.6px;stroke-linecap:butt;stroke-linejoin:miter;stroke-opacity:1"
     d="m 2.4603261,31.15 4.0000099,2.399999 4,-2.399999 -4,-2.4 z"
     id="path3" />
  <path
     style="fill:none;stroke:#e60046;stroke-width:1;stroke-linecap:round;stroke-linejoin:miter;stroke-dasharray:none;stroke-opacity:1"
     d="M 5,35 0.5,39.5"
     id="path12695-5" />
  <metadata
     id="metadata1">
    <rdf:RDF>
      <cc:Work
         rdf:about="">
        <cc:license
           rdf:resource="http://creativecommons.org/licenses/by-nc-nd/4.0/" />
        <dc:rights>
          <cc:Agent>
            <dc:title>Helmholtz-Zentrum Hereon</dc:title>
          </cc:Agent>
        </dc:rights>
        <dc:creator>
          <cc:Agent>
            <dc:title>Malte Storm</dc:title>
          </cc:Agent>
        </dc:creator>
        <dc:title>Pydidas frame icon: Define diffraction experiment</dc:title>
      </cc:Work>
      <cc:License
         rdf:about="http://creativecommons.org/licenses/by-nc-nd/4.0/">
        <cc:permits
           rdf:resource="http://creativecommons.org/ns#Reproduction" />
        <cc:permits
           rdf:resource="http://creativecommons.org/ns#Distribution" />
        <cc:requires
           rdf:resource="http://creativecommons.org/ns#Notice" />
        <cc:requires
           rdf:resource="http://creativecommons.org/ns#Attribution" />
        <cc:prohibits
           rdf:resource="http://creativecommons.org/ns#CommercialUse" />
      </cc:License>
    </rdf:RDF>
  </metadata>
</svg>
