<?xml version="1.0" encoding="UTF-8" standalone="no"?>
<!-- Created with Inkscape (http://www.inkscape.org/) -->

<svg
   width="40"
   height="40"
   viewBox="0 0 40 40"
   version="1.1"
   id="svg1"
   sodipodi:docname="view-h5.svg"
   inkscape:version="1.3.2 (091e20e, 2023-11-25, custom)"
   xmlns:inkscape="http://www.inkscape.org/namespaces/inkscape"
   xmlns:sodipodi="http://sodipodi.sourceforge.net/DTD/sodipodi-0.dtd"
   xmlns:xlink="http://www.w3.org/1999/xlink"
   xmlns="http://www.w3.org/2000/svg"
   xmlns:svg="http://www.w3.org/2000/svg"
   xmlns:rdf="http://www.w3.org/1999/02/22-rdf-syntax-ns#"
   xmlns:cc="http://creativecommons.org/ns#"
   xmlns:dc="http://purl.org/dc/elements/1.1/">
  <sodipodi:namedview
     id="namedview1"
     pagecolor="#ffffff"
     bordercolor="#666666"
     borderopacity="1.0"
     inkscape:showpageshadow="2"
     inkscape:pageopacity="0.0"
     inkscape:pagecheckerboard="0"
     inkscape:deskcolor="#d1d1d1"
     inkscape:zoom="12.2625"
     inkscape:cx="19.653415"
     inkscape:cy="28.33843"
     inkscape:window-width="3440"
     inkscape:window-height="1369"
     inkscape:window-x="1912"
     inkscape:window-y="-8"
     inkscape:window-maximized="1"
     inkscape:current-layer="svg1" />
  <title
     id="title1">Pydidas frame icon: Image math</title>
  <defs
     id="defs1">
    <rect
       x="3.6697248"
       y="22.915392"
       width="48.11417"
       height="24.546382"
       id="rect9" />
    <rect
       x="8.1549439"
       y="8.2364934"
       width="19.571865"
       height="22.833843"
       id="rect8" />
    <rect
       x="0.11325034"
       y="11.041908"
       width="39.750868"
       height="19.592308"
       id="rect2" />
    <rect
       x="0.67950201"
       y="11.551534"
       width="38.67499"
       height="14.892419"
       id="rect1" />
    <rect
       x="-2.7808754"
       y="26.120365"
       width="50.750975"
       height="18.472958"
       id="rect3" />
    <linearGradient
       id="linearGradient3">
      <stop
         style="stop-color:#ffffff;stop-opacity:0.39525691;"
         offset="0"
         id="stop1" />
      <stop
         style="stop-color:#c8c8c8;stop-opacity:0.3992095;"
         offset="0.63558418"
         id="stop2" />
      <stop
         style="stop-color:#000000;stop-opacity:0;"
         offset="1"
         id="stop3" />
    </linearGradient>
    <radialGradient
       xlink:href="#linearGradient5488"
       id="radialGradient5490"
       cx="26.458332"
       cy="54.70821"
       fx="26.458332"
       fy="54.70821"
       r="6.6662598"
       gradientTransform="matrix(2.7858854,0,0,2.7858866,-53.709894,-132.41085)"
       gradientUnits="userSpaceOnUse" />
    <linearGradient
       id="linearGradient5488">
      <stop
         style="stop-color:#ffffff;stop-opacity:1;"
         offset="0"
         id="stop5484" />
      <stop
         style="stop-color:#c8c8c8;stop-opacity:0.80769229;"
         offset="0.11551156"
         id="stop6286" />
      <stop
         style="stop-color:#000000;stop-opacity:0;"
         offset="1"
         id="stop5486" />
    </linearGradient>
    <radialGradient
       xlink:href="#linearGradient3"
       id="radialGradient5490-6"
       cx="26.458332"
       cy="54.70821"
       fx="26.458332"
       fy="54.70821"
       r="6.6662598"
       gradientTransform="matrix(1.46259,0,0,1.46259,-9.1976933,-64.515675)"
       gradientUnits="userSpaceOnUse" />
    <rect
       x="33.203125"
       y="57.03125"
       width="39.212132"
       height="17.609484"
       id="rect1649" />
  </defs>
  <metadata
     id="metadata1">
    <rdf:RDF>
      <cc:Work
         rdf:about="">
        <cc:license
           rdf:resource="http://creativecommons.org/licenses/by-nc-nd/4.0/" />
        <dc:title>Pydidas frame icon: Image math</dc:title>
        <dc:creator>
          <cc:Agent>
            <dc:title>Malte Storm</dc:title>
          </cc:Agent>
        </dc:creator>
        <dc:rights>
          <cc:Agent>
            <dc:title>Helmholtz-Zentrum Hereon GmbH</dc:title>
          </cc:Agent>
        </dc:rights>
      </cc:Work>
      <cc:License
         rdf:about="http://creativecommons.org/licenses/by-nc-nd/4.0/">
        <cc:permits
           rdf:resource="http://creativecommons.org/ns#Reproduction" />
        <cc:permits
           rdf:resource="http://creativecommons.org/ns#Distribution" />
        <cc:requires
           rdf:resource="http://creativecommons.org/ns#Notice" />
        <cc:requires
           rdf:resource="http://creativecommons.org/ns#Attribution" />
        <cc:prohibits
           rdf:resource="http://creativecommons.org/ns#CommercialUse" />
      </cc:License>
    </rdf:RDF>
  </metadata>
  <ellipse
     style="fill:#00aae6;fill-opacity:1;stroke:#00aae6;stroke-width:3.2281;stroke-linecap:round;stroke-dasharray:none;stroke-opacity:1;paint-order:stroke fill markers"
     id="path8"
     cx="12.5"
     cy="12.500002"
     rx="10.88595"
     ry="10.885952" />
  <path
     style="font-style:italic;font-weight:bold;font-size:18.6667px;line-height:1.25;font-family:Calibri;-inkscape-font-specification:'Calibri Bold Italic';white-space:pre;fill:#ffffff;stroke-width:1.61898"
     d="M 16.171468,4.1884181 Q 16.068182,4.7344 15.891101,5.1180621 15.714026,5.4869688 15.4189,5.72307 q -0.295125,0.2213439 -0.723058,0.3246376 -0.427931,0.088541 -1.062451,0.088541 -0.619763,0 -1.018182,-0.088541 Q 12.231545,5.9444175 12.024959,5.72307 11.833126,5.4869688 11.803614,5.1180621 11.774101,4.7344 11.892151,4.1884181 q 0.103288,-0.5312263 0.28037,-0.9001331 0.177076,-0.3689069 0.4722,-0.6050079 0.295125,-0.2360994 0.723056,-0.339393 0.427934,-0.1032893 1.062451,-0.1032893 0.619765,0 1.003427,0.1032893 0.39842,0.1032906 0.590251,0.339393 0.206589,0.236101 0.221344,0.6050079 0.02951,0.3689068 -0.07378,0.9001331 z M 12.364351,21.777895 q -0.02951,0.147569 -0.147568,0.265611 -0.103288,0.103292 -0.339394,0.177077 -0.221344,0.07378 -0.59025,0.103292 -0.368908,0.04427 -0.900134,0.04427 -0.5459813,0 -0.9001321,-0.04427 -0.3393941,-0.02951 -0.545982,-0.103292 -0.1918315,-0.07378 -0.2508565,-0.177077 -0.059025,-0.118048 -0.029512,-0.265611 L 11.272381,8.6448116 q 0.02951,-0.1475688 0.132805,-0.2508563 0.11805,-0.1180505 0.339394,-0.1918313 0.236102,-0.088537 0.590252,-0.1328038 0.368905,-0.044263 0.914888,-0.044263 0.545982,0 0.885376,0.044263 0.354151,0.044263 0.545983,0.1328038 0.206587,0.073775 0.265612,0.1918313 0.05903,0.1032881 0.02951,0.2508563 z"
     id="text8"
     aria-label="i" />
  <path
     style="font-weight:bold;font-size:18.6667px;line-height:1.25;font-family:Calibri;-inkscape-font-specification:'Calibri Bold';white-space:pre"
     d="m 12.584,39.636316 q 0,0.09115 -0.05469,0.164063 -0.05469,0.0638 -0.182292,0.109375 -0.127605,0.04557 -0.35547,0.0638 -0.21875,0.02734 -0.546876,0.02734 -0.33724,0 -0.565105,-0.02734 -0.21875,-0.01823 -0.346354,-0.0638 -0.127605,-0.04557 -0.182292,-0.109375 -0.05469,-0.07292 -0.05469,-0.164063 v -4.639331 q 0,-0.592449 -0.09115,-0.92969 -0.08203,-0.33724 -0.2460943,-0.574219 Q 9.7949329,33.246981 9.5306095,33.119377 9.2754007,32.982658 8.929046,32.982658 q -0.4375008,0 -0.8841162,0.319011 -0.4466154,0.319011 -0.9296892,0.929689 v 5.404958 q 0,0.09115 -0.054688,0.164063 -0.054688,0.0638 -0.1914066,0.109375 -0.1276044,0.04557 -0.3463548,0.0638 -0.2187504,0.02734 -0.5559906,0.02734 -0.3372402,0 -0.5559906,-0.02734 Q 5.19206,39.955327 5.055341,39.909754 4.9277366,39.864181 4.873049,39.800379 4.8183614,39.727462 4.8183614,39.636316 V 27.650617 q 0,-0.09115 0.054688,-0.164063 0.054688,-0.07292 0.182292,-0.118489 0.136719,-0.05469 0.3554694,-0.08203 0.2187504,-0.02734 0.5559906,-0.02734 0.3372402,0 0.5559906,0.02734 0.2187504,0.02734 0.3463548,0.08203 0.136719,0.04557 0.1914066,0.118489 0.054688,0.07292 0.054688,0.164063 v 4.493498 q 0.592449,-0.583335 1.2031272,-0.865887 0.6197928,-0.291667 1.2851585,-0.291667 0.8294287,0 1.3945337,0.273438 0.57422,0.273438 0.920575,0.747397 0.355469,0.473959 0.510417,1.111981 Q 12.584,33.748284 12.584,34.65063 Z m 9.962258,0 q 0,0.10026 -0.04557,0.173177 -0.04557,0.0638 -0.154948,0.109375 -0.109376,0.04557 -0.300782,0.0638 -0.182292,0.01823 -0.45573,0.01823 -0.291667,0 -0.473959,-0.01823 -0.182292,-0.01823 -0.300782,-0.0638 -0.109375,-0.04557 -0.164063,-0.109375 -0.04557,-0.07292 -0.04557,-0.173177 v -0.902345 q -0.628907,0.67448 -1.321617,1.048178 -0.683595,0.373699 -1.522138,0.373699 -0.929689,0 -1.576826,-0.355469 -0.638022,-0.364584 -1.048179,-0.975262 -0.401042,-0.610679 -0.583334,-1.421878 -0.182292,-0.820314 -0.182292,-1.722659 0,-1.084638 0.227865,-1.950525 0.236979,-0.865887 0.683595,-1.476565 0.446615,-0.610678 1.111981,-0.938804 0.665366,-0.328125 1.531253,-0.328125 0.683595,0 1.239585,0.282552 0.555991,0.273438 1.102867,0.8112 v -4.402352 q 0,-0.09115 0.04557,-0.164063 0.05469,-0.07292 0.182292,-0.11849 0.136719,-0.05469 0.355469,-0.08203 0.218751,-0.02734 0.555991,-0.02734 0.33724,0 0.55599,0.02734 0.218751,0.02734 0.346355,0.08203 0.127605,0.04557 0.182292,0.11849 0.05469,0.07292 0.05469,0.164063 z m -2.27865,-5.432302 q -0.492189,-0.619792 -0.947919,-0.947918 -0.446615,-0.328126 -0.938803,-0.328126 -0.446616,0 -0.774741,0.227865 -0.319011,0.218751 -0.519533,0.592449 -0.191406,0.373699 -0.291667,0.838544 -0.09115,0.45573 -0.09115,0.938803 0,0.510418 0.08203,0.993492 0.08203,0.483074 0.264323,0.865887 0.191407,0.373698 0.501303,0.601563 0.309896,0.227865 0.783856,0.227865 0.236979,0 0.45573,-0.0638 0.227865,-0.07292 0.45573,-0.227865 0.236979,-0.154948 0.483073,-0.401042 0.246095,-0.255209 0.537762,-0.619793 z m 9.488298,-5.796885 q 0,0.264323 -0.01823,0.428386 -0.01823,0.154948 -0.05469,0.246094 -0.03646,0.08203 -0.08203,0.11849 -0.04557,0.02734 -0.100261,0.02734 -0.0638,0 -0.145833,-0.02734 -0.07292,-0.03646 -0.191407,-0.07292 -0.109375,-0.03646 -0.264323,-0.0638 -0.154949,-0.03646 -0.364584,-0.03646 -0.246095,0 -0.428387,0.08203 -0.173177,0.07292 -0.291667,0.246094 -0.11849,0.164063 -0.173177,0.437501 -0.05469,0.264324 -0.05469,0.656251 v 0.747397 h 1.48568 q 0.08203,0 0.145834,0.04557 0.07292,0.04557 0.118489,0.154949 0.04557,0.10026 0.0638,0.282552 0.02734,0.182292 0.02734,0.446616 0,0.501303 -0.09115,0.720053 -0.09115,0.209636 -0.264323,0.209636 h -1.48568 v 6.580741 q 0,0.09115 -0.05469,0.164063 -0.05469,0.0638 -0.182292,0.109375 -0.127605,0.04557 -0.35547,0.0638 -0.227865,0.02734 -0.55599,0.02734 -0.328126,0 -0.555991,-0.02734 -0.21875,-0.01823 -0.355469,-0.0638 -0.127605,-0.04557 -0.182292,-0.109375 -0.04557,-0.07292 -0.04557,-0.164063 v -6.580741 h -1.020836 q -0.173177,0 -0.264323,-0.209636 -0.08203,-0.21875 -0.08203,-0.720053 0,-0.264324 0.01823,-0.446616 0.02734,-0.182292 0.0638,-0.282552 0.04557,-0.109376 0.109375,-0.154949 0.07292,-0.04557 0.164063,-0.04557 h 1.011721 v -0.683594 q 0,-0.829429 0.164062,-1.449222 0.164063,-0.628907 0.510418,-1.039064 0.355469,-0.419272 0.893231,-0.628908 0.546876,-0.209635 1.285158,-0.209635 0.35547,0 0.674481,0.0638 0.319011,0.05469 0.501303,0.127604 0.182292,0.0638 0.246094,0.127605 0.0638,0.05469 0.100261,0.173177 0.04557,0.109375 0.0638,0.291667 0.01823,0.173178 0.01823,0.437501 z m 8.458349,7.710951 q 0,0.957033 -0.33724,1.713545 -0.328125,0.747397 -0.938804,1.266929 -0.601563,0.510418 -1.458336,0.783856 -0.847657,0.273438 -1.886722,0.273438 -0.546876,0 -1.039064,-0.07292 -0.492189,-0.0638 -0.884116,-0.164063 -0.391928,-0.109375 -0.647137,-0.209635 -0.246094,-0.109376 -0.328126,-0.173178 -0.07292,-0.07292 -0.109375,-0.154948 -0.03646,-0.08203 -0.0638,-0.191407 -0.01823,-0.118489 -0.02734,-0.291667 -0.0091,-0.173177 -0.0091,-0.410157 0,-0.255208 0.01823,-0.428386 0.01823,-0.182292 0.05469,-0.291667 0.04557,-0.109375 0.100261,-0.154948 0.05469,-0.04557 0.127604,-0.04557 0.09115,0 0.273438,0.109375 0.191407,0.100261 0.492189,0.227865 0.309896,0.127604 0.747397,0.23698 0.437501,0.10026 1.048179,0.10026 0.528647,0 0.957033,-0.109375 0.437501,-0.109375 0.738283,-0.346355 0.300781,-0.246094 0.464844,-0.610678 0.164063,-0.364584 0.164063,-0.875002 0,-0.4375 -0.136719,-0.774741 -0.136719,-0.346354 -0.428386,-0.583334 -0.291667,-0.23698 -0.756512,-0.355469 -0.464845,-0.11849 -1.13021,-0.11849 -0.528647,0 -0.966148,0.05469 -0.428386,0.05469 -0.811199,0.05469 -0.264324,0 -0.382814,-0.127604 -0.109375,-0.136719 -0.109375,-0.492189 v -5.122405 q 0,-0.364584 0.136719,-0.519532 0.145834,-0.164063 0.45573,-0.164063 h 5.58725 q 0.08203,0 0.154948,0.05469 0.07292,0.05469 0.11849,0.173177 0.05469,0.11849 0.07292,0.319011 0.02734,0.191407 0.02734,0.464845 0,0.546876 -0.100261,0.79297 -0.09115,0.246094 -0.273438,0.246094 h -4.192716 v 2.524744 q 0.319011,-0.03646 0.628907,-0.04557 0.319011,-0.0091 0.665366,-0.0091 0.957033,0 1.695316,0.227865 0.747397,0.21875 1.2487,0.656251 0.510418,0.428386 0.774741,1.075523 0.264323,0.638022 0.264323,1.485679 z"
     id="text9"
     transform="translate(1.6676386,-0.18977258)"
     aria-label="hdf5" />
</svg>
