<?xml version="1.0" encoding="UTF-8" standalone="no"?>
<svg
   width="155.55499mm"
   height="91.940002mm"
   viewBox="0 0 155.55499 91.94"
   version="1.1"
   id="svg8"
   inkscape:version="1.2.1 (9c6d41e410, 2022-07-14)"
   sodipodi:docname="splash_image.svg"
   xml:space="preserve"
   inkscape:export-filename="splash_image.png"
   inkscape:export-xdpi="96"
   inkscape:export-ydpi="96"
   xmlns:inkscape="http://www.inkscape.org/namespaces/inkscape"
   xmlns:sodipodi="http://sodipodi.sourceforge.net/DTD/sodipodi-0.dtd"
   xmlns:xlink="http://www.w3.org/1999/xlink"
   xmlns="http://www.w3.org/2000/svg"
   xmlns:svg="http://www.w3.org/2000/svg"
   xmlns:rdf="http://www.w3.org/1999/02/22-rdf-syntax-ns#"
   xmlns:cc="http://creativecommons.org/ns#"
   xmlns:dc="http://purl.org/dc/elements/1.1/"><defs
     id="defs2"><rect
       x="566.69556"
       y="199.50513"
       width="192.43407"
       height="41.921329"
       id="rect4141" /><rect
       x="418.57144"
       y="292.14285"
       width="424.28571"
       height="166.42857"
       id="rect3045" /><marker
       style="overflow:visible"
       id="marker5846"
       refX="0"
       refY="0"
       orient="auto"
       inkscape:stockid="DotS"
       inkscape:isstock="true"><path
         transform="matrix(0.2,0,0,0.2,1.48,0.2)"
         style="fill:#e50446;fill-opacity:1;fill-rule:evenodd;stroke:#e50446;stroke-width:1pt;stroke-opacity:1"
         d="m -2.5,-1 c 0,2.76 -2.24,5 -5,5 -2.76,0 -5,-2.24 -5,-5 0,-2.76 2.24,-5 5,-5 2.76,0 5,2.24 5,5 z"
         id="path5844" /></marker><marker
       style="overflow:visible"
       id="marker5836"
       refX="0"
       refY="0"
       orient="auto"
       inkscape:stockid="DotS"
       inkscape:isstock="true"><path
         transform="matrix(0.2,0,0,0.2,1.48,0.2)"
         style="fill:#0391a0;fill-opacity:1;fill-rule:evenodd;stroke:#0391a0;stroke-width:1pt;stroke-opacity:1"
         d="m -2.5,-1 c 0,2.76 -2.24,5 -5,5 -2.76,0 -5,-2.24 -5,-5 0,-2.76 2.24,-5 5,-5 2.76,0 5,2.24 5,5 z"
         id="path5834" /></marker><marker
       style="overflow:visible"
       id="marker5826"
       refX="0"
       refY="0"
       orient="auto"
       inkscape:stockid="DotS"
       inkscape:isstock="true"><path
         transform="matrix(0.2,0,0,0.2,1.48,0.2)"
         style="fill:#17a9e2;fill-opacity:0.960784;fill-rule:evenodd;stroke:#17a9e2;stroke-width:1pt;stroke-opacity:0.960784"
         d="m -2.5,-1 c 0,2.76 -2.24,5 -5,5 -2.76,0 -5,-2.24 -5,-5 0,-2.76 2.24,-5 5,-5 2.76,0 5,2.24 5,5 z"
         id="path5824" /></marker><marker
       style="overflow:visible"
       id="marker5798"
       refX="0"
       refY="0"
       orient="auto"
       inkscape:stockid="DotS"
       inkscape:isstock="true"><path
         transform="matrix(0.2,0,0,0.2,1.48,0.2)"
         style="fill:#17a9e2;fill-opacity:0.960784;fill-rule:evenodd;stroke:#17a9e2;stroke-width:1pt;stroke-opacity:0.960784"
         d="m -2.5,-1 c 0,2.76 -2.24,5 -5,5 -2.76,0 -5,-2.24 -5,-5 0,-2.76 2.24,-5 5,-5 2.76,0 5,2.24 5,5 z"
         id="path5796" /></marker><marker
       orient="auto"
       refY="0"
       refX="0"
       id="marker4729"
       inkscape:stockid="InfiniteLineStart"
       style="overflow:visible"
       inkscape:isstock="true"><g
         transform="translate(-13)"
         style="fill:#e50446;fill-opacity:1;stroke:#e50446;stroke-opacity:1"
         id="g4727"><circle
           cx="3"
           cy="0"
           r="0.80000001"
           id="circle4721"
           style="fill:#e50446;fill-opacity:1;stroke:#e50446;stroke-opacity:1" /><circle
           cx="6.5"
           cy="0"
           r="0.80000001"
           id="circle4723"
           style="fill:#e50446;fill-opacity:1;stroke:#e50446;stroke-opacity:1" /><circle
           cx="10"
           cy="0"
           r="0.80000001"
           id="circle4725"
           style="fill:#e50446;fill-opacity:1;stroke:#e50446;stroke-opacity:1" /></g></marker><marker
       orient="auto"
       refY="0"
       refX="0"
       id="marker4704"
       inkscape:stockid="InfiniteLineStart"
       style="overflow:visible"
       inkscape:isstock="true"><g
         transform="translate(-13)"
         style="fill:#0391a0;fill-opacity:1;stroke:#0391a0;stroke-opacity:1"
         id="g4702"><circle
           cx="3"
           cy="0"
           r="0.80000001"
           id="circle4696"
           style="fill:#0391a0;fill-opacity:1;stroke:#0391a0;stroke-opacity:1" /><circle
           cx="6.5"
           cy="0"
           r="0.80000001"
           id="circle4698"
           style="fill:#0391a0;fill-opacity:1;stroke:#0391a0;stroke-opacity:1" /><circle
           cx="10"
           cy="0"
           r="0.80000001"
           id="circle4700"
           style="fill:#0391a0;fill-opacity:1;stroke:#0391a0;stroke-opacity:1" /></g></marker><marker
       orient="auto"
       refY="0"
       refX="0"
       id="marker4679"
       inkscape:stockid="InfiniteLineStart"
       style="overflow:visible"
       inkscape:isstock="true"><g
         transform="translate(-13)"
         style="fill:#17a9e2;fill-opacity:0.960784;stroke:#17a9e2;stroke-opacity:0.960784"
         id="g4677"><circle
           cx="3"
           cy="0"
           r="0.80000001"
           id="circle4671"
           style="fill:#17a9e2;fill-opacity:0.960784;stroke:#17a9e2;stroke-opacity:0.960784" /><circle
           cx="6.5"
           cy="0"
           r="0.80000001"
           id="circle4673"
           style="fill:#17a9e2;fill-opacity:0.960784;stroke:#17a9e2;stroke-opacity:0.960784" /><circle
           cx="10"
           cy="0"
           r="0.80000001"
           id="circle4675"
           style="fill:#17a9e2;fill-opacity:0.960784;stroke:#17a9e2;stroke-opacity:0.960784" /></g></marker><marker
       style="overflow:visible"
       id="marker4118"
       refX="0"
       refY="0"
       orient="auto"
       inkscape:stockid="DotS"
       inkscape:isstock="true"><path
         transform="matrix(0.2,0,0,0.2,1.48,0.2)"
         style="fill:#e50446;fill-opacity:1;fill-rule:evenodd;stroke:#e50446;stroke-width:1pt;stroke-opacity:1"
         d="m -2.5,-1 c 0,2.76 -2.24,5 -5,5 -2.76,0 -5,-2.24 -5,-5 0,-2.76 2.24,-5 5,-5 2.76,0 5,2.24 5,5 z"
         id="path4116" /></marker><marker
       style="overflow:visible"
       id="marker4086"
       refX="0"
       refY="0"
       orient="auto"
       inkscape:stockid="DotS"
       inkscape:isstock="true"><path
         transform="matrix(0.2,0,0,0.2,1.48,0.2)"
         style="fill:#0391a0;fill-opacity:1;fill-rule:evenodd;stroke:#0391a0;stroke-width:1pt;stroke-opacity:1"
         d="m -2.5,-1 c 0,2.76 -2.24,5 -5,5 -2.76,0 -5,-2.24 -5,-5 0,-2.76 2.24,-5 5,-5 2.76,0 5,2.24 5,5 z"
         id="path4084" /></marker><marker
       style="overflow:visible"
       id="marker4076"
       refX="0"
       refY="0"
       orient="auto"
       inkscape:stockid="DotS"
       inkscape:isstock="true"><path
         transform="matrix(0.2,0,0,0.2,1.48,0.2)"
         style="fill:#17a9e2;fill-opacity:0.960784;fill-rule:evenodd;stroke:#17a9e2;stroke-width:1pt;stroke-opacity:0.960784"
         d="m -2.5,-1 c 0,2.76 -2.24,5 -5,5 -2.76,0 -5,-2.24 -5,-5 0,-2.76 2.24,-5 5,-5 2.76,0 5,2.24 5,5 z"
         id="path4074" /></marker><marker
       style="overflow:visible"
       id="marker3162"
       refX="0"
       refY="0"
       orient="auto"
       inkscape:stockid="DotS"
       inkscape:isstock="true"><path
         transform="matrix(0.2,0,0,0.2,1.48,0.2)"
         style="fill:#0391a0;fill-opacity:1;fill-rule:evenodd;stroke:#0391a0;stroke-width:1pt;stroke-opacity:1"
         d="m -2.5,-1 c 0,2.76 -2.24,5 -5,5 -2.76,0 -5,-2.24 -5,-5 0,-2.76 2.24,-5 5,-5 2.76,0 5,2.24 5,5 z"
         id="path3160" /></marker><marker
       style="overflow:visible"
       id="marker3152"
       refX="0"
       refY="0"
       orient="auto"
       inkscape:stockid="DotS"
       inkscape:isstock="true"><path
         transform="matrix(0.2,0,0,0.2,1.48,0.2)"
         style="fill:#17a9e2;fill-opacity:0.960784;fill-rule:evenodd;stroke:#17a9e2;stroke-width:1pt;stroke-opacity:0.960784"
         d="m -2.5,-1 c 0,2.76 -2.24,5 -5,5 -2.76,0 -5,-2.24 -5,-5 0,-2.76 2.24,-5 5,-5 2.76,0 5,2.24 5,5 z"
         id="path3150" /></marker><marker
       style="overflow:visible"
       id="marker2254"
       refX="0"
       refY="0"
       orient="auto"
       inkscape:stockid="DotS"
       inkscape:isstock="true"><path
         transform="matrix(0.2,0,0,0.2,1.48,0.2)"
         style="fill:#e50446;fill-opacity:1;fill-rule:evenodd;stroke:#e50446;stroke-width:1pt;stroke-opacity:1"
         d="m -2.5,-1 c 0,2.76 -2.24,5 -5,5 -2.76,0 -5,-2.24 -5,-5 0,-2.76 2.24,-5 5,-5 2.76,0 5,2.24 5,5 z"
         id="path2252" /></marker><marker
       style="overflow:visible"
       id="marker2234"
       refX="0"
       refY="0"
       orient="auto"
       inkscape:stockid="DotS"
       inkscape:isstock="true"><path
         transform="matrix(0.2,0,0,0.2,1.48,0.2)"
         style="fill:#17a9e2;fill-opacity:0.960784;fill-rule:evenodd;stroke:#17a9e2;stroke-width:1pt;stroke-opacity:0.960784"
         d="m -2.5,-1 c 0,2.76 -2.24,5 -5,5 -2.76,0 -5,-2.24 -5,-5 0,-2.76 2.24,-5 5,-5 2.76,0 5,2.24 5,5 z"
         id="path2232" /></marker><marker
       style="overflow:visible"
       id="DotS"
       refX="0"
       refY="0"
       orient="auto"
       inkscape:stockid="DotS"
       inkscape:isstock="true"><path
         transform="matrix(0.2,0,0,0.2,1.48,0.2)"
         style="fill:#17a9e2;fill-opacity:0.960784;fill-rule:evenodd;stroke:#17a9e2;stroke-width:1pt;stroke-opacity:0.960784"
         d="m -2.5,-1 c 0,2.76 -2.24,5 -5,5 -2.76,0 -5,-2.24 -5,-5 0,-2.76 2.24,-5 5,-5 2.76,0 5,2.24 5,5 z"
         id="path1009" /></marker><marker
       style="overflow:visible"
       id="marker15104"
       refX="0"
       refY="0"
       orient="auto"
       inkscape:stockid="DotM"
       inkscape:isstock="true"><path
         transform="matrix(0.4,0,0,0.4,2.96,0.4)"
         style="fill:#17a9e2;fill-opacity:0.960784;fill-rule:evenodd;stroke:#17a9e2;stroke-width:1pt;stroke-opacity:0.960784"
         d="m -2.5,-1 c 0,2.76 -2.24,5 -5,5 -2.76,0 -5,-2.24 -5,-5 0,-2.76 2.24,-5 5,-5 2.76,0 5,2.24 5,5 z"
         id="path15102" /></marker><marker
       style="overflow:visible"
       id="marker15016"
       refX="0"
       refY="0"
       orient="auto"
       inkscape:stockid="DotM"
       inkscape:isstock="true"><path
         transform="matrix(0.4,0,0,0.4,2.96,0.4)"
         style="fill:#17a9e2;fill-opacity:0.960784;fill-rule:evenodd;stroke:#17a9e2;stroke-width:1pt;stroke-opacity:0.960784"
         d="m -2.5,-1 c 0,2.76 -2.24,5 -5,5 -2.76,0 -5,-2.24 -5,-5 0,-2.76 2.24,-5 5,-5 2.76,0 5,2.24 5,5 z"
         id="path15014" /></marker><marker
       style="overflow:visible"
       id="marker15006"
       refX="0"
       refY="0"
       orient="auto"
       inkscape:stockid="DotM"
       inkscape:isstock="true"><path
         transform="matrix(0.4,0,0,0.4,2.96,0.4)"
         style="fill:#17a9e2;fill-opacity:0.960784;fill-rule:evenodd;stroke:#17a9e2;stroke-width:1pt;stroke-opacity:0.960784"
         d="m -2.5,-1 c 0,2.76 -2.24,5 -5,5 -2.76,0 -5,-2.24 -5,-5 0,-2.76 2.24,-5 5,-5 2.76,0 5,2.24 5,5 z"
         id="path15004" /></marker><marker
       style="overflow:visible"
       id="marker14996"
       refX="0"
       refY="0"
       orient="auto"
       inkscape:stockid="DotM"
       inkscape:isstock="true"><path
         transform="matrix(0.4,0,0,0.4,2.96,0.4)"
         style="fill:#0391a0;fill-opacity:1;fill-rule:evenodd;stroke:#0391a0;stroke-width:1pt;stroke-opacity:1"
         d="m -2.5,-1 c 0,2.76 -2.24,5 -5,5 -2.76,0 -5,-2.24 -5,-5 0,-2.76 2.24,-5 5,-5 2.76,0 5,2.24 5,5 z"
         id="path14994" /></marker><marker
       style="overflow:visible"
       id="marker14986"
       refX="0"
       refY="0"
       orient="auto"
       inkscape:stockid="DotM"
       inkscape:isstock="true"><path
         transform="matrix(0.4,0,0,0.4,2.96,0.4)"
         style="fill:#0391a0;fill-opacity:1;fill-rule:evenodd;stroke:#0391a0;stroke-width:1pt;stroke-opacity:1"
         d="m -2.5,-1 c 0,2.76 -2.24,5 -5,5 -2.76,0 -5,-2.24 -5,-5 0,-2.76 2.24,-5 5,-5 2.76,0 5,2.24 5,5 z"
         id="path14984" /></marker><marker
       style="overflow:visible"
       id="marker14976"
       refX="0"
       refY="0"
       orient="auto"
       inkscape:stockid="DotM"
       inkscape:isstock="true"><path
         transform="matrix(0.4,0,0,0.4,2.96,0.4)"
         style="fill:#e50446;fill-opacity:1;fill-rule:evenodd;stroke:#e50446;stroke-width:1pt;stroke-opacity:1"
         d="m -2.5,-1 c 0,2.76 -2.24,5 -5,5 -2.76,0 -5,-2.24 -5,-5 0,-2.76 2.24,-5 5,-5 2.76,0 5,2.24 5,5 z"
         id="path14974" /></marker><marker
       style="overflow:visible"
       id="marker14966"
       refX="0"
       refY="0"
       orient="auto"
       inkscape:stockid="DotM"
       inkscape:isstock="true"><path
         transform="matrix(0.4,0,0,0.4,2.96,0.4)"
         style="fill:#e50446;fill-opacity:1;fill-rule:evenodd;stroke:#e50446;stroke-width:1pt;stroke-opacity:1"
         d="m -2.5,-1 c 0,2.76 -2.24,5 -5,5 -2.76,0 -5,-2.24 -5,-5 0,-2.76 2.24,-5 5,-5 2.76,0 5,2.24 5,5 z"
         id="path14964" /></marker><marker
       style="overflow:visible"
       id="marker14956"
       refX="0"
       refY="0"
       orient="auto"
       inkscape:stockid="DotM"
       inkscape:isstock="true"><path
         transform="matrix(0.4,0,0,0.4,2.96,0.4)"
         style="fill:#6bffff;fill-opacity:1;fill-rule:evenodd;stroke:none;stroke-width:1pt;stroke-opacity:0.960784"
         d="m -2.5,-1 c 0,2.76 -2.24,5 -5,5 -2.76,0 -5,-2.24 -5,-5 0,-2.76 2.24,-5 5,-5 2.76,0 5,2.24 5,5 z"
         id="path14954" /></marker><marker
       style="overflow:visible"
       id="marker14186"
       refX="0"
       refY="0"
       orient="auto"
       inkscape:stockid="DotM"
       inkscape:isstock="true"><path
         transform="matrix(0.4,0,0,0.4,2.96,0.4)"
         style="fill:#17a9e2;fill-opacity:0.960784;fill-rule:evenodd;stroke:#17a9e2;stroke-width:1pt;stroke-opacity:0.960784"
         d="m -2.5,-1 c 0,2.76 -2.24,5 -5,5 -2.76,0 -5,-2.24 -5,-5 0,-2.76 2.24,-5 5,-5 2.76,0 5,2.24 5,5 z"
         id="path14184" /></marker><marker
       style="overflow:visible"
       id="marker14176"
       refX="0"
       refY="0"
       orient="auto"
       inkscape:stockid="DotM"
       inkscape:isstock="true"><path
         transform="matrix(0.4,0,0,0.4,2.96,0.4)"
         style="fill:#0391a0;fill-opacity:1;fill-rule:evenodd;stroke:#0391a0;stroke-width:1pt;stroke-opacity:1"
         d="m -2.5,-1 c 0,2.76 -2.24,5 -5,5 -2.76,0 -5,-2.24 -5,-5 0,-2.76 2.24,-5 5,-5 2.76,0 5,2.24 5,5 z"
         id="path14174" /></marker><marker
       style="overflow:visible"
       id="marker14166"
       refX="0"
       refY="0"
       orient="auto"
       inkscape:stockid="DotM"
       inkscape:isstock="true"><path
         transform="matrix(0.4,0,0,0.4,2.96,0.4)"
         style="fill:#0391a0;fill-opacity:1;fill-rule:evenodd;stroke:#0391a0;stroke-width:1pt;stroke-opacity:1"
         d="m -2.5,-1 c 0,2.76 -2.24,5 -5,5 -2.76,0 -5,-2.24 -5,-5 0,-2.76 2.24,-5 5,-5 2.76,0 5,2.24 5,5 z"
         id="path14164" /></marker><marker
       style="overflow:visible"
       id="marker14156"
       refX="0"
       refY="0"
       orient="auto"
       inkscape:stockid="DotM"
       inkscape:isstock="true"><path
         transform="matrix(0.4,0,0,0.4,2.96,0.4)"
         style="fill:#e50446;fill-opacity:1;fill-rule:evenodd;stroke:#e50446;stroke-width:1pt;stroke-opacity:1"
         d="m -2.5,-1 c 0,2.76 -2.24,5 -5,5 -2.76,0 -5,-2.24 -5,-5 0,-2.76 2.24,-5 5,-5 2.76,0 5,2.24 5,5 z"
         id="path14154" /></marker><marker
       style="overflow:visible"
       id="marker14146"
       refX="0"
       refY="0"
       orient="auto"
       inkscape:stockid="DotM"
       inkscape:isstock="true"><path
         transform="matrix(0.4,0,0,0.4,2.96,0.4)"
         style="fill:#e50446;fill-opacity:1;fill-rule:evenodd;stroke:#e50446;stroke-width:1pt;stroke-opacity:1"
         d="m -2.5,-1 c 0,2.76 -2.24,5 -5,5 -2.76,0 -5,-2.24 -5,-5 0,-2.76 2.24,-5 5,-5 2.76,0 5,2.24 5,5 z"
         id="path14144" /></marker><marker
       style="overflow:visible"
       id="marker14136"
       refX="0"
       refY="0"
       orient="auto"
       inkscape:stockid="DotM"
       inkscape:isstock="true"><path
         transform="matrix(0.4,0,0,0.4,2.96,0.4)"
         style="fill:#17a9e2;fill-opacity:0.960784;fill-rule:evenodd;stroke:#17a9e2;stroke-width:1pt;stroke-opacity:0.960784"
         d="m -2.5,-1 c 0,2.76 -2.24,5 -5,5 -2.76,0 -5,-2.24 -5,-5 0,-2.76 2.24,-5 5,-5 2.76,0 5,2.24 5,5 z"
         id="path14134" /></marker><marker
       style="overflow:visible"
       id="marker14126"
       refX="0"
       refY="0"
       orient="auto"
       inkscape:stockid="DotM"
       inkscape:isstock="true"><path
         transform="matrix(0.4,0,0,0.4,2.96,0.4)"
         style="fill:#17a9e2;fill-opacity:0.960784;fill-rule:evenodd;stroke:#17a9e2;stroke-width:1pt;stroke-opacity:0.960784"
         d="m -2.5,-1 c 0,2.76 -2.24,5 -5,5 -2.76,0 -5,-2.24 -5,-5 0,-2.76 2.24,-5 5,-5 2.76,0 5,2.24 5,5 z"
         id="path14124" /></marker><marker
       style="overflow:visible"
       id="marker13446"
       refX="0"
       refY="0"
       orient="auto"
       inkscape:stockid="DotM"
       inkscape:isstock="true"><path
         transform="matrix(0.4,0,0,0.4,2.96,0.4)"
         style="fill:#17a9e2;fill-opacity:0.960784;fill-rule:evenodd;stroke:#17a9e2;stroke-width:1pt;stroke-opacity:0.960784"
         d="m -2.5,-1 c 0,2.76 -2.24,5 -5,5 -2.76,0 -5,-2.24 -5,-5 0,-2.76 2.24,-5 5,-5 2.76,0 5,2.24 5,5 z"
         id="path13444" /></marker><marker
       style="overflow:visible"
       id="marker13436"
       refX="0"
       refY="0"
       orient="auto"
       inkscape:stockid="DotM"
       inkscape:isstock="true"><path
         transform="matrix(0.4,0,0,0.4,2.96,0.4)"
         style="fill:#0391a0;fill-opacity:1;fill-rule:evenodd;stroke:#0391a0;stroke-width:1pt;stroke-opacity:1"
         d="m -2.5,-1 c 0,2.76 -2.24,5 -5,5 -2.76,0 -5,-2.24 -5,-5 0,-2.76 2.24,-5 5,-5 2.76,0 5,2.24 5,5 z"
         id="path13434" /></marker><marker
       style="overflow:visible"
       id="marker13426"
       refX="0"
       refY="0"
       orient="auto"
       inkscape:stockid="DotM"
       inkscape:isstock="true"><path
         transform="matrix(0.4,0,0,0.4,2.96,0.4)"
         style="fill:#0391a0;fill-opacity:1;fill-rule:evenodd;stroke:#0391a0;stroke-width:1pt;stroke-opacity:1"
         d="m -2.5,-1 c 0,2.76 -2.24,5 -5,5 -2.76,0 -5,-2.24 -5,-5 0,-2.76 2.24,-5 5,-5 2.76,0 5,2.24 5,5 z"
         id="path13424" /></marker><marker
       style="overflow:visible"
       id="marker13416"
       refX="0"
       refY="0"
       orient="auto"
       inkscape:stockid="DotM"
       inkscape:isstock="true"><path
         transform="matrix(0.4,0,0,0.4,2.96,0.4)"
         style="fill:#e50446;fill-opacity:1;fill-rule:evenodd;stroke:#e50446;stroke-width:1pt;stroke-opacity:1"
         d="m -2.5,-1 c 0,2.76 -2.24,5 -5,5 -2.76,0 -5,-2.24 -5,-5 0,-2.76 2.24,-5 5,-5 2.76,0 5,2.24 5,5 z"
         id="path13414" /></marker><marker
       style="overflow:visible"
       id="marker13406"
       refX="0"
       refY="0"
       orient="auto"
       inkscape:stockid="DotM"
       inkscape:isstock="true"><path
         transform="matrix(0.4,0,0,0.4,2.96,0.4)"
         style="fill:#e50446;fill-opacity:1;fill-rule:evenodd;stroke:#e50446;stroke-width:1pt;stroke-opacity:1"
         d="m -2.5,-1 c 0,2.76 -2.24,5 -5,5 -2.76,0 -5,-2.24 -5,-5 0,-2.76 2.24,-5 5,-5 2.76,0 5,2.24 5,5 z"
         id="path13404" /></marker><marker
       style="overflow:visible"
       id="marker13396"
       refX="0"
       refY="0"
       orient="auto"
       inkscape:stockid="DotM"
       inkscape:isstock="true"><path
         transform="matrix(0.4,0,0,0.4,2.96,0.4)"
         style="fill:#6bffff;fill-opacity:1;fill-rule:evenodd;stroke:none;stroke-width:1pt;stroke-opacity:0.960784"
         d="m -2.5,-1 c 0,2.76 -2.24,5 -5,5 -2.76,0 -5,-2.24 -5,-5 0,-2.76 2.24,-5 5,-5 2.76,0 5,2.24 5,5 z"
         id="path13394" /></marker><marker
       style="overflow:visible"
       id="marker10218"
       refX="0"
       refY="0"
       orient="auto"
       inkscape:stockid="DotM"
       inkscape:isstock="true"><path
         transform="matrix(0.4,0,0,0.4,2.96,0.4)"
         style="fill:#17a9e2;fill-opacity:0.960784;fill-rule:evenodd;stroke:#17a9e2;stroke-width:1pt;stroke-opacity:0.960784"
         d="m -2.5,-1 c 0,2.76 -2.24,5 -5,5 -2.76,0 -5,-2.24 -5,-5 0,-2.76 2.24,-5 5,-5 2.76,0 5,2.24 5,5 z"
         id="path10216" /></marker><marker
       style="overflow:visible"
       id="marker10208"
       refX="0"
       refY="0"
       orient="auto"
       inkscape:stockid="DotM"
       inkscape:isstock="true"><path
         transform="matrix(0.4,0,0,0.4,2.96,0.4)"
         style="fill:#17a9e2;fill-opacity:0.960784;fill-rule:evenodd;stroke:#17a9e2;stroke-width:1pt;stroke-opacity:0.960784"
         d="m -2.5,-1 c 0,2.76 -2.24,5 -5,5 -2.76,0 -5,-2.24 -5,-5 0,-2.76 2.24,-5 5,-5 2.76,0 5,2.24 5,5 z"
         id="path10206" /></marker><marker
       style="overflow:visible"
       id="marker10198"
       refX="0"
       refY="0"
       orient="auto"
       inkscape:stockid="DotM"
       inkscape:isstock="true"><path
         transform="matrix(0.4,0,0,0.4,2.96,0.4)"
         style="fill:#0391a0;fill-opacity:1;fill-rule:evenodd;stroke:#0391a0;stroke-width:1pt;stroke-opacity:1"
         d="m -2.5,-1 c 0,2.76 -2.24,5 -5,5 -2.76,0 -5,-2.24 -5,-5 0,-2.76 2.24,-5 5,-5 2.76,0 5,2.24 5,5 z"
         id="path10196" /></marker><marker
       style="overflow:visible"
       id="marker10188"
       refX="0"
       refY="0"
       orient="auto"
       inkscape:stockid="DotM"
       inkscape:isstock="true"><path
         transform="matrix(0.4,0,0,0.4,2.96,0.4)"
         style="fill:#0391a0;fill-opacity:1;fill-rule:evenodd;stroke:#0391a0;stroke-width:1pt;stroke-opacity:1"
         d="m -2.5,-1 c 0,2.76 -2.24,5 -5,5 -2.76,0 -5,-2.24 -5,-5 0,-2.76 2.24,-5 5,-5 2.76,0 5,2.24 5,5 z"
         id="path10186" /></marker><marker
       style="overflow:visible"
       id="marker10178"
       refX="0"
       refY="0"
       orient="auto"
       inkscape:stockid="DotM"
       inkscape:isstock="true"><path
         transform="matrix(0.4,0,0,0.4,2.96,0.4)"
         style="fill:#e50446;fill-opacity:1;fill-rule:evenodd;stroke:#e50446;stroke-width:1pt;stroke-opacity:1"
         d="m -2.5,-1 c 0,2.76 -2.24,5 -5,5 -2.76,0 -5,-2.24 -5,-5 0,-2.76 2.24,-5 5,-5 2.76,0 5,2.24 5,5 z"
         id="path10176" /></marker><marker
       style="overflow:visible"
       id="marker10168"
       refX="0"
       refY="0"
       orient="auto"
       inkscape:stockid="DotM"
       inkscape:isstock="true"><path
         transform="matrix(0.4,0,0,0.4,2.96,0.4)"
         style="fill:#e50446;fill-opacity:1;fill-rule:evenodd;stroke:#e50446;stroke-width:1pt;stroke-opacity:1"
         d="m -2.5,-1 c 0,2.76 -2.24,5 -5,5 -2.76,0 -5,-2.24 -5,-5 0,-2.76 2.24,-5 5,-5 2.76,0 5,2.24 5,5 z"
         id="path10166" /></marker><marker
       style="overflow:visible"
       id="marker10158"
       refX="0"
       refY="0"
       orient="auto"
       inkscape:stockid="DotM"
       inkscape:isstock="true"><path
         transform="matrix(0.4,0,0,0.4,2.96,0.4)"
         style="fill:#17a9e2;fill-opacity:0.960784;fill-rule:evenodd;stroke:#17a9e2;stroke-width:1pt;stroke-opacity:0.960784"
         d="m -2.5,-1 c 0,2.76 -2.24,5 -5,5 -2.76,0 -5,-2.24 -5,-5 0,-2.76 2.24,-5 5,-5 2.76,0 5,2.24 5,5 z"
         id="path10156" /></marker><marker
       style="overflow:visible"
       id="marker9562"
       refX="0"
       refY="0"
       orient="auto"
       inkscape:stockid="DotM"
       inkscape:isstock="true"><path
         transform="matrix(0.4,0,0,0.4,2.96,0.4)"
         style="fill:#17a9e2;fill-opacity:0.960784;fill-rule:evenodd;stroke:#17a9e2;stroke-width:1pt;stroke-opacity:0.960784"
         d="m -2.5,-1 c 0,2.76 -2.24,5 -5,5 -2.76,0 -5,-2.24 -5,-5 0,-2.76 2.24,-5 5,-5 2.76,0 5,2.24 5,5 z"
         id="path9560" /></marker><marker
       style="overflow:visible"
       id="marker9552"
       refX="0"
       refY="0"
       orient="auto"
       inkscape:stockid="DotM"
       inkscape:isstock="true"><path
         transform="matrix(0.4,0,0,0.4,2.96,0.4)"
         style="fill:#0391a0;fill-opacity:1;fill-rule:evenodd;stroke:#0391a0;stroke-width:1pt;stroke-opacity:1"
         d="m -2.5,-1 c 0,2.76 -2.24,5 -5,5 -2.76,0 -5,-2.24 -5,-5 0,-2.76 2.24,-5 5,-5 2.76,0 5,2.24 5,5 z"
         id="path9550" /></marker><marker
       style="overflow:visible"
       id="marker9542"
       refX="0"
       refY="0"
       orient="auto"
       inkscape:stockid="DotM"
       inkscape:isstock="true"><path
         transform="matrix(0.4,0,0,0.4,2.96,0.4)"
         style="fill:#0391a0;fill-opacity:1;fill-rule:evenodd;stroke:#0391a0;stroke-width:1pt;stroke-opacity:1"
         d="m -2.5,-1 c 0,2.76 -2.24,5 -5,5 -2.76,0 -5,-2.24 -5,-5 0,-2.76 2.24,-5 5,-5 2.76,0 5,2.24 5,5 z"
         id="path9540" /></marker><marker
       style="overflow:visible"
       id="marker9522"
       refX="0"
       refY="0"
       orient="auto"
       inkscape:stockid="DotM"
       inkscape:isstock="true"><path
         transform="matrix(0.4,0,0,0.4,2.96,0.4)"
         style="fill:#e50446;fill-opacity:1;fill-rule:evenodd;stroke:#e50446;stroke-width:1pt;stroke-opacity:1"
         d="m -2.5,-1 c 0,2.76 -2.24,5 -5,5 -2.76,0 -5,-2.24 -5,-5 0,-2.76 2.24,-5 5,-5 2.76,0 5,2.24 5,5 z"
         id="path9520" /></marker><marker
       style="overflow:visible"
       id="marker9512"
       refX="0"
       refY="0"
       orient="auto"
       inkscape:stockid="DotM"
       inkscape:isstock="true"><path
         transform="matrix(0.4,0,0,0.4,2.96,0.4)"
         style="fill:#17a9e2;fill-opacity:0.960784;fill-rule:evenodd;stroke:#17a9e2;stroke-width:1pt;stroke-opacity:0.960784"
         d="m -2.5,-1 c 0,2.76 -2.24,5 -5,5 -2.76,0 -5,-2.24 -5,-5 0,-2.76 2.24,-5 5,-5 2.76,0 5,2.24 5,5 z"
         id="path9510" /></marker><marker
       style="overflow:visible"
       id="marker9060"
       refX="0"
       refY="0"
       orient="auto"
       inkscape:stockid="DotM"
       inkscape:isstock="true"><path
         transform="matrix(0.4,0,0,0.4,2.96,0.4)"
         style="fill:#17a9e2;fill-opacity:0.960784;fill-rule:evenodd;stroke:#17a9e2;stroke-width:1pt;stroke-opacity:0.960784"
         d="m -2.5,-1 c 0,2.76 -2.24,5 -5,5 -2.76,0 -5,-2.24 -5,-5 0,-2.76 2.24,-5 5,-5 2.76,0 5,2.24 5,5 z"
         id="path9058" /></marker><marker
       style="overflow:visible"
       id="marker9050"
       refX="0"
       refY="0"
       orient="auto"
       inkscape:stockid="DotM"
       inkscape:isstock="true"><path
         transform="matrix(0.4,0,0,0.4,2.96,0.4)"
         style="fill:#0391a0;fill-opacity:1;fill-rule:evenodd;stroke:#0391a0;stroke-width:1pt;stroke-opacity:1"
         d="m -2.5,-1 c 0,2.76 -2.24,5 -5,5 -2.76,0 -5,-2.24 -5,-5 0,-2.76 2.24,-5 5,-5 2.76,0 5,2.24 5,5 z"
         id="path9048" /></marker><marker
       style="overflow:visible"
       id="marker9040"
       refX="0"
       refY="0"
       orient="auto"
       inkscape:stockid="DotM"
       inkscape:isstock="true"><path
         transform="matrix(0.4,0,0,0.4,2.96,0.4)"
         style="fill:#0391a0;fill-opacity:1;fill-rule:evenodd;stroke:#0391a0;stroke-width:1pt;stroke-opacity:1"
         d="m -2.5,-1 c 0,2.76 -2.24,5 -5,5 -2.76,0 -5,-2.24 -5,-5 0,-2.76 2.24,-5 5,-5 2.76,0 5,2.24 5,5 z"
         id="path9038" /></marker><marker
       style="overflow:visible"
       id="marker9030"
       refX="0"
       refY="0"
       orient="auto"
       inkscape:stockid="DotM"
       inkscape:isstock="true"><path
         transform="matrix(0.4,0,0,0.4,2.96,0.4)"
         style="fill:#e50446;fill-opacity:1;fill-rule:evenodd;stroke:#e50446;stroke-width:1pt;stroke-opacity:1"
         d="m -2.5,-1 c 0,2.76 -2.24,5 -5,5 -2.76,0 -5,-2.24 -5,-5 0,-2.76 2.24,-5 5,-5 2.76,0 5,2.24 5,5 z"
         id="path9028" /></marker><marker
       style="overflow:visible"
       id="marker9020"
       refX="0"
       refY="0"
       orient="auto"
       inkscape:stockid="DotM"
       inkscape:isstock="true"><path
         transform="matrix(0.4,0,0,0.4,2.96,0.4)"
         style="fill:#e50446;fill-opacity:1;fill-rule:evenodd;stroke:#e50446;stroke-width:1pt;stroke-opacity:1"
         d="m -2.5,-1 c 0,2.76 -2.24,5 -5,5 -2.76,0 -5,-2.24 -5,-5 0,-2.76 2.24,-5 5,-5 2.76,0 5,2.24 5,5 z"
         id="path9018" /></marker><marker
       style="overflow:visible"
       id="marker8352"
       refX="0"
       refY="0"
       orient="auto"
       inkscape:stockid="DotM"
       inkscape:isstock="true"><path
         transform="matrix(0.4,0,0,0.4,2.96,0.4)"
         style="fill:#17a9e2;fill-opacity:0.960784;fill-rule:evenodd;stroke:#17a9e2;stroke-width:1pt;stroke-opacity:0.960784"
         d="m -2.5,-1 c 0,2.76 -2.24,5 -5,5 -2.76,0 -5,-2.24 -5,-5 0,-2.76 2.24,-5 5,-5 2.76,0 5,2.24 5,5 z"
         id="path8350" /></marker><marker
       style="overflow:visible"
       id="marker8342"
       refX="0"
       refY="0"
       orient="auto"
       inkscape:stockid="DotM"
       inkscape:isstock="true"><path
         transform="matrix(0.4,0,0,0.4,2.96,0.4)"
         style="fill:#0391a0;fill-opacity:1;fill-rule:evenodd;stroke:#0391a0;stroke-width:1pt;stroke-opacity:1"
         d="m -2.5,-1 c 0,2.76 -2.24,5 -5,5 -2.76,0 -5,-2.24 -5,-5 0,-2.76 2.24,-5 5,-5 2.76,0 5,2.24 5,5 z"
         id="path8340" /></marker><marker
       style="overflow:visible"
       id="marker8332"
       refX="0"
       refY="0"
       orient="auto"
       inkscape:stockid="DotM"
       inkscape:isstock="true"><path
         transform="matrix(0.4,0,0,0.4,2.96,0.4)"
         style="fill:#0391a0;fill-opacity:1;fill-rule:evenodd;stroke:#0391a0;stroke-width:1pt;stroke-opacity:1"
         d="m -2.5,-1 c 0,2.76 -2.24,5 -5,5 -2.76,0 -5,-2.24 -5,-5 0,-2.76 2.24,-5 5,-5 2.76,0 5,2.24 5,5 z"
         id="path8330" /></marker><marker
       style="overflow:visible"
       id="marker8322"
       refX="0"
       refY="0"
       orient="auto"
       inkscape:stockid="DotM"
       inkscape:isstock="true"><path
         transform="matrix(0.4,0,0,0.4,2.96,0.4)"
         style="fill:#e50446;fill-opacity:1;fill-rule:evenodd;stroke:#e50446;stroke-width:1pt;stroke-opacity:1"
         d="m -2.5,-1 c 0,2.76 -2.24,5 -5,5 -2.76,0 -5,-2.24 -5,-5 0,-2.76 2.24,-5 5,-5 2.76,0 5,2.24 5,5 z"
         id="path8320" /></marker><marker
       style="overflow:visible"
       id="marker8312"
       refX="0"
       refY="0"
       orient="auto"
       inkscape:stockid="DotM"
       inkscape:isstock="true"><path
         transform="matrix(0.4,0,0,0.4,2.96,0.4)"
         style="fill:#e50446;fill-opacity:1;fill-rule:evenodd;stroke:#e50446;stroke-width:1pt;stroke-opacity:1"
         d="m -2.5,-1 c 0,2.76 -2.24,5 -5,5 -2.76,0 -5,-2.24 -5,-5 0,-2.76 2.24,-5 5,-5 2.76,0 5,2.24 5,5 z"
         id="path8310" /></marker><marker
       style="overflow:visible"
       id="marker7680"
       refX="0"
       refY="0"
       orient="auto"
       inkscape:stockid="DotM"
       inkscape:isstock="true"><path
         transform="matrix(0.4,0,0,0.4,2.96,0.4)"
         style="fill:#17a9e2;fill-opacity:0.960784;fill-rule:evenodd;stroke:#17a9e2;stroke-width:1pt;stroke-opacity:0.960784"
         d="m -2.5,-1 c 0,2.76 -2.24,5 -5,5 -2.76,0 -5,-2.24 -5,-5 0,-2.76 2.24,-5 5,-5 2.76,0 5,2.24 5,5 z"
         id="path7678" /></marker><marker
       style="overflow:visible"
       id="marker7670"
       refX="0"
       refY="0"
       orient="auto"
       inkscape:stockid="DotM"
       inkscape:isstock="true"><path
         transform="matrix(0.4,0,0,0.4,2.96,0.4)"
         style="fill:#17a9e2;fill-opacity:0.960784;fill-rule:evenodd;stroke:#17a9e2;stroke-width:1pt;stroke-opacity:0.960784"
         d="m -2.5,-1 c 0,2.76 -2.24,5 -5,5 -2.76,0 -5,-2.24 -5,-5 0,-2.76 2.24,-5 5,-5 2.76,0 5,2.24 5,5 z"
         id="path7668" /></marker><marker
       style="overflow:visible"
       id="marker7660"
       refX="0"
       refY="0"
       orient="auto"
       inkscape:stockid="DotM"
       inkscape:isstock="true"><path
         transform="matrix(0.4,0,0,0.4,2.96,0.4)"
         style="fill:#0391a0;fill-opacity:1;fill-rule:evenodd;stroke:#0391a0;stroke-width:1pt;stroke-opacity:1"
         d="m -2.5,-1 c 0,2.76 -2.24,5 -5,5 -2.76,0 -5,-2.24 -5,-5 0,-2.76 2.24,-5 5,-5 2.76,0 5,2.24 5,5 z"
         id="path7658" /></marker><marker
       style="overflow:visible"
       id="marker7650"
       refX="0"
       refY="0"
       orient="auto"
       inkscape:stockid="DotM"
       inkscape:isstock="true"><path
         transform="matrix(0.4,0,0,0.4,2.96,0.4)"
         style="fill:#0391a0;fill-opacity:1;fill-rule:evenodd;stroke:#0391a0;stroke-width:1pt;stroke-opacity:1"
         d="m -2.5,-1 c 0,2.76 -2.24,5 -5,5 -2.76,0 -5,-2.24 -5,-5 0,-2.76 2.24,-5 5,-5 2.76,0 5,2.24 5,5 z"
         id="path7648" /></marker><marker
       style="overflow:visible"
       id="marker7640"
       refX="0"
       refY="0"
       orient="auto"
       inkscape:stockid="DotM"
       inkscape:isstock="true"><path
         transform="matrix(0.4,0,0,0.4,2.96,0.4)"
         style="fill:#e50446;fill-opacity:1;fill-rule:evenodd;stroke:#e50446;stroke-width:1pt;stroke-opacity:1"
         d="m -2.5,-1 c 0,2.76 -2.24,5 -5,5 -2.76,0 -5,-2.24 -5,-5 0,-2.76 2.24,-5 5,-5 2.76,0 5,2.24 5,5 z"
         id="path7638" /></marker><marker
       style="overflow:visible"
       id="marker7630"
       refX="0"
       refY="0"
       orient="auto"
       inkscape:stockid="DotM"
       inkscape:isstock="true"><path
         transform="matrix(0.4,0,0,0.4,2.96,0.4)"
         style="fill:#e50446;fill-opacity:1;fill-rule:evenodd;stroke:#e50446;stroke-width:1pt;stroke-opacity:1"
         d="m -2.5,-1 c 0,2.76 -2.24,5 -5,5 -2.76,0 -5,-2.24 -5,-5 0,-2.76 2.24,-5 5,-5 2.76,0 5,2.24 5,5 z"
         id="path7628" /></marker><marker
       style="overflow:visible"
       id="marker7268"
       refX="0"
       refY="0"
       orient="auto"
       inkscape:stockid="DotM"
       inkscape:isstock="true"><path
         transform="matrix(0.4,0,0,0.4,2.96,0.4)"
         style="fill:#e50446;fill-opacity:1;fill-rule:evenodd;stroke:#e50446;stroke-width:1pt;stroke-opacity:1"
         d="m -2.5,-1 c 0,2.76 -2.24,5 -5,5 -2.76,0 -5,-2.24 -5,-5 0,-2.76 2.24,-5 5,-5 2.76,0 5,2.24 5,5 z"
         id="path7266" /></marker><marker
       style="overflow:visible"
       id="marker7258"
       refX="0"
       refY="0"
       orient="auto"
       inkscape:stockid="DotM"
       inkscape:isstock="true"><path
         transform="matrix(0.4,0,0,0.4,2.96,0.4)"
         style="fill:#17a9e2;fill-opacity:0.960784;fill-rule:evenodd;stroke:#17a9e2;stroke-width:1pt;stroke-opacity:0.960784"
         d="m -2.5,-1 c 0,2.76 -2.24,5 -5,5 -2.76,0 -5,-2.24 -5,-5 0,-2.76 2.24,-5 5,-5 2.76,0 5,2.24 5,5 z"
         id="path7256" /></marker><marker
       style="overflow:visible"
       id="marker7248"
       refX="0"
       refY="0"
       orient="auto"
       inkscape:stockid="DotM"
       inkscape:isstock="true"><path
         transform="matrix(0.4,0,0,0.4,2.96,0.4)"
         style="fill:#17a9e2;fill-opacity:0.960784;fill-rule:evenodd;stroke:#17a9e2;stroke-width:1pt;stroke-opacity:0.960784"
         d="m -2.5,-1 c 0,2.76 -2.24,5 -5,5 -2.76,0 -5,-2.24 -5,-5 0,-2.76 2.24,-5 5,-5 2.76,0 5,2.24 5,5 z"
         id="path7246" /></marker><marker
       style="overflow:visible"
       id="marker7238"
       refX="0"
       refY="0"
       orient="auto"
       inkscape:stockid="DotM"
       inkscape:isstock="true"><path
         transform="matrix(0.4,0,0,0.4,2.96,0.4)"
         style="fill:#0391a0;fill-opacity:1;fill-rule:evenodd;stroke:#0391a0;stroke-width:1pt;stroke-opacity:1"
         d="m -2.5,-1 c 0,2.76 -2.24,5 -5,5 -2.76,0 -5,-2.24 -5,-5 0,-2.76 2.24,-5 5,-5 2.76,0 5,2.24 5,5 z"
         id="path7236" /></marker><marker
       style="overflow:visible"
       id="marker7228"
       refX="0"
       refY="0"
       orient="auto"
       inkscape:stockid="DotM"
       inkscape:isstock="true"><path
         transform="matrix(0.4,0,0,0.4,2.96,0.4)"
         style="fill:#0391a0;fill-opacity:1;fill-rule:evenodd;stroke:#0391a0;stroke-width:1pt;stroke-opacity:1"
         d="m -2.5,-1 c 0,2.76 -2.24,5 -5,5 -2.76,0 -5,-2.24 -5,-5 0,-2.76 2.24,-5 5,-5 2.76,0 5,2.24 5,5 z"
         id="path7226" /></marker><marker
       style="overflow:visible"
       id="marker7218"
       refX="0"
       refY="0"
       orient="auto"
       inkscape:stockid="DotM"
       inkscape:isstock="true"><path
         transform="matrix(0.4,0,0,0.4,2.96,0.4)"
         style="fill:#e50446;fill-opacity:1;fill-rule:evenodd;stroke:#e50446;stroke-width:1pt;stroke-opacity:1"
         d="m -2.5,-1 c 0,2.76 -2.24,5 -5,5 -2.76,0 -5,-2.24 -5,-5 0,-2.76 2.24,-5 5,-5 2.76,0 5,2.24 5,5 z"
         id="path7216" /></marker><marker
       style="overflow:visible"
       id="marker7208"
       refX="0"
       refY="0"
       orient="auto"
       inkscape:stockid="DotM"
       inkscape:isstock="true"><path
         transform="matrix(0.4,0,0,0.4,2.96,0.4)"
         style="fill:#e50446;fill-opacity:1;fill-rule:evenodd;stroke:#e50446;stroke-width:1pt;stroke-opacity:1"
         d="m -2.5,-1 c 0,2.76 -2.24,5 -5,5 -2.76,0 -5,-2.24 -5,-5 0,-2.76 2.24,-5 5,-5 2.76,0 5,2.24 5,5 z"
         id="path7206" /></marker><linearGradient
       inkscape:collect="always"
       id="linearGradient5705-4"><stop
         style="stop-color:#17a9e2;stop-opacity:1;"
         offset="0"
         id="stop5701" /><stop
         style="stop-color:#17a9e2;stop-opacity:0;"
         offset="1"
         id="stop5703" /></linearGradient><marker
       style="overflow:visible"
       id="marker3945"
       refX="0"
       refY="0"
       orient="auto"
       inkscape:stockid="DotM"
       inkscape:isstock="true"><path
         transform="matrix(0.4,0,0,0.4,2.96,0.4)"
         style="fill:#e50446;fill-opacity:1;fill-rule:evenodd;stroke:#e50446;stroke-width:1pt;stroke-opacity:1"
         d="m -2.5,-1 c 0,2.76 -2.24,5 -5,5 -2.76,0 -5,-2.24 -5,-5 0,-2.76 2.24,-5 5,-5 2.76,0 5,2.24 5,5 z"
         id="path3943" /></marker><inkscape:path-effect
       effect="skeletal"
       id="path-effect3900"
       is_visible="true"
       lpeversion="1"
       pattern="m 127.77496,108.51653 a 1.5,1.5 0 0 1 1.37137,1.61593 1.5,1.5 0 0 1 -1.61345,1.37429 1.5,1.5 0 0 1 -1.37719,-1.61097 1.5,1.5 0 0 1 1.60847,-1.3801"
       copytype="single_stretched"
       prop_scale="5"
       scale_y_rel="false"
       spacing="5"
       normal_offset="0"
       tang_offset="0"
       prop_units="false"
       vertical_pattern="false"
       hide_knot="false"
       fuse_tolerance="0" /><inkscape:path-effect
       effect="skeletal"
       id="path-effect3853"
       is_visible="true"
       lpeversion="1"
       pattern="M 1.6237428,0.0051128 A 1.5,1.5 0 0 1 2.9951085,1.6210422 1.5,1.5 0 0 1 1.3816589,2.9953246 1.5,1.5 0 0 1 0.00446416,1.3843603 1.5,1.5 0 0 1 1.612938,0.00425771"
       copytype="repeated"
       prop_scale="1.15"
       scale_y_rel="true"
       spacing="5"
       normal_offset="0"
       tang_offset="0"
       prop_units="false"
       vertical_pattern="false"
       hide_knot="false"
       fuse_tolerance="0" /><marker
       style="overflow:visible"
       id="marker3611"
       refX="0"
       refY="0"
       orient="auto"
       inkscape:stockid="DotM"
       inkscape:isstock="true"><path
         transform="matrix(0.4,0,0,0.4,2.96,0.4)"
         style="fill:#e50446;fill-opacity:1;fill-rule:evenodd;stroke:#e50446;stroke-width:1pt;stroke-opacity:1"
         d="m -2.5,-1 c 0,2.76 -2.24,5 -5,5 -2.76,0 -5,-2.24 -5,-5 0,-2.76 2.24,-5 5,-5 2.76,0 5,2.24 5,5 z"
         id="path3609" /></marker><marker
       style="overflow:visible"
       id="marker3541"
       refX="0"
       refY="0"
       orient="auto"
       inkscape:stockid="DotM"
       inkscape:isstock="true"><path
         transform="matrix(0.4,0,0,0.4,2.96,0.4)"
         style="fill:#e50446;fill-opacity:1;fill-rule:evenodd;stroke:#e50446;stroke-width:1pt;stroke-opacity:1"
         d="m -2.5,-1 c 0,2.76 -2.24,5 -5,5 -2.76,0 -5,-2.24 -5,-5 0,-2.76 2.24,-5 5,-5 2.76,0 5,2.24 5,5 z"
         id="path3539" /></marker><marker
       style="overflow:visible"
       id="DotM"
       refX="0"
       refY="0"
       orient="auto"
       inkscape:stockid="DotM"
       inkscape:isstock="true"><path
         transform="matrix(0.4,0,0,0.4,2.96,0.4)"
         style="fill:#e50446;fill-opacity:1;fill-rule:evenodd;stroke:#e50446;stroke-width:1pt;stroke-opacity:1"
         d="m -2.5,-1 c 0,2.76 -2.24,5 -5,5 -2.76,0 -5,-2.24 -5,-5 0,-2.76 2.24,-5 5,-5 2.76,0 5,2.24 5,5 z"
         id="path1006" /></marker><clipPath
       id="clip-path"
       transform="translate(-.17 -.25)"><path
         fill="none"
         d="m 0.17,0.25 h 208.2 V 79.61 H 0.17 Z"
         id="path12" /></clipPath><style
       id="style15">.cls-2{fill:#06467c}.cls-3{fill:#e50446}.cls-4{fill:#0391a0}.cls-6{fill:#17a9e2}</style><marker
       style="overflow:visible"
       id="marker2594"
       refX="0"
       refY="0"
       orient="auto"
       inkscape:stockid="DotM"
       inkscape:isstock="true"><path
         transform="matrix(0.4,0,0,0.4,2.96,0.4)"
         style="fill:#e50446;fill-opacity:1;fill-rule:evenodd;stroke:#e50446;stroke-width:1pt;stroke-opacity:1"
         d="m -2.5,-1 c 0,2.76 -2.24,5 -5,5 -2.76,0 -5,-2.24 -5,-5 0,-2.76 2.24,-5 5,-5 2.76,0 5,2.24 5,5 z"
         id="path2592" /></marker><marker
       style="overflow:visible"
       id="marker2598"
       refX="0"
       refY="0"
       orient="auto"
       inkscape:stockid="DotM"
       inkscape:isstock="true"><path
         transform="matrix(0.4,0,0,0.4,2.96,0.4)"
         style="fill:#17a9e2;fill-opacity:0.960784;fill-rule:evenodd;stroke:#17a9e2;stroke-width:1pt;stroke-opacity:0.960784"
         d="m -2.5,-1 c 0,2.76 -2.24,5 -5,5 -2.76,0 -5,-2.24 -5,-5 0,-2.76 2.24,-5 5,-5 2.76,0 5,2.24 5,5 z"
         id="path2596" /></marker><radialGradient
       inkscape:collect="always"
       xlink:href="#linearGradient5705-4"
       id="radialGradient5711"
       cx="132.56569"
       cy="68.153725"
       fx="132.56569"
       fy="68.153725"
       r="14.465866"
       gradientUnits="userSpaceOnUse" /><clipPath
       clipPathUnits="userSpaceOnUse"
       id="clipEmfPath1"><path
         d="M 0,0 H 125.26113 V 104.23829 H 0 Z"
         id="path1442" /></clipPath><pattern
       id="EMFhbasepattern"
       patternUnits="userSpaceOnUse"
       width="6"
       height="6"
       x="0"
       y="0" /></defs><sodipodi:namedview
     id="base"
     pagecolor="#ffffff"
     bordercolor="#666666"
     borderopacity="1.0"
     inkscape:pageopacity="0.0"
     inkscape:pageshadow="2"
     inkscape:zoom="0.9899495"
     inkscape:cx="277.79195"
     inkscape:cy="193.94929"
     inkscape:document-units="mm"
     inkscape:current-layer="layer1"
     inkscape:document-rotation="0"
     showgrid="false"
     inkscape:window-width="3440"
     inkscape:window-height="1377"
     inkscape:window-x="-8"
     inkscape:window-y="-8"
     inkscape:window-maximized="1"
     fit-margin-top="0"
     fit-margin-left="0"
     fit-margin-right="0"
     fit-margin-bottom="0"
     inkscape:showpageshadow="2"
     inkscape:pagecheckerboard="0"
     inkscape:deskcolor="#d1d1d1" /><metadata
     id="metadata5"><rdf:RDF><cc:Work
         rdf:about=""><dc:format>image/svg+xml</dc:format><dc:type
           rdf:resource="http://purl.org/dc/dcmitype/StillImage" /></cc:Work></rdf:RDF></metadata><g
     inkscape:label="Ebene 1"
     inkscape:groupmode="layer"
     id="layer1"
     transform="translate(-30.481077,-20.368027)"><rect
       style="fill:#ffffff;fill-opacity:1;stroke:#00467d;stroke-width:1.17202;stroke-dasharray:none;stroke-dashoffset:0.643179;stroke-opacity:1;paint-order:stroke fill markers;stop-color:#000000"
       id="rect31353"
       width="154.38298"
       height="90.767982"
       x="31.067087"
       y="20.954037" /><path
       style="opacity:0;fill:none;stroke:#000000;stroke-width:0.264583px;stroke-linecap:butt;stroke-linejoin:miter;stroke-opacity:1"
       d="m 22.473777,61.713067 c -1.572798,-3.478631 -1.486214,-5.682916 -1.486214,-5.682916 l -0.291194,2.257012 -1.632537,-2.52499 c 0,0 0.899764,6.094732 1.985692,6.032506 z"
       id="path374-0"
       sodipodi:nodetypes="ccccsc"
       sodipodi:insensitive="true" /><path
       class="cls-2"
       d="m 89.62224,56.81773 c -0.01502,-0.873461 -0.716544,-1.680506 -1.338691,-2.129312 -0.976127,-0.706416 -1.75274,-2.223903 -2.327689,-2.721011 -0.276749,-0.239497 -0.613567,-0.148931 -0.778758,-0.175094 -0.169482,-0.02617 -0.218824,-0.08453 -0.281039,-0.239497 -0.02574,-0.06441 -0.04505,-0.13283 -0.06865,-0.199246 -0.195225,-0.577611 -0.113703,-1.149183 0.03218,-1.72277 0.0901,-0.352202 0.122284,-0.708428 0.02145,-1.066668 0.0193,0.758743 -0.5063,1.370568 -0.596404,2.133337 -0.499863,-0.617863 -1.270039,-0.917738 -1.66049,-1.575852 0.137301,0.43673 0.429067,0.774844 0.753013,1.088806 0.454811,0.442768 0.744432,0.962014 0.840972,1.569815 0.01288,0.07648 0.02145,0.161006 -0.08796,0.245535 -0.199516,0.152956 -0.471974,0.277736 -0.559933,0.49912 -0.281038,0.718492 -0.122284,2.225915 -0.347544,2.960507 -0.281039,0.913712 -0.549206,1.934091 -0.12443,2.823653 0.227406,0.472956 0.898896,0.690315 1.304364,1.012328 0.431214,0.342139 0.650038,0.770819 0.682217,1.296103 0.01502,0.229434 0.02359,0.483019 0.0279,0.73258 0,0.008 0,0.01409 0,0.02213 0.0021,0.07245 0,0.142894 0.0021,0.213335 0,0.128804 -0.0043,0.255597 -0.0086,0.37434 h 0.01287 c -0.09008,6.051835 -5.080131,11.111466 -11.619116,11.6448 -6.723484,0.54541 -12.578107,-3.912459 -13.333265,-10.151462 -0.757304,-6.265167 3.887349,-11.982911 10.576508,-13.017378 1.074813,-0.167045 1.802083,-1.118996 1.624019,-2.127299 -0.178063,-1.008304 -1.192807,-1.690569 -2.26762,-1.523525 -8.763699,1.35648 -14.850018,8.861398 -13.854583,17.086819 0.941803,7.790704 7.886257,13.480273 16.124349,13.480273 0.484846,0 0.973983,-0.02013 1.46741,-0.06038 8.840931,-0.720505 15.523654,-7.768566 15.212581,-16.048327 0,-0.008 -0.0021,-0.01409 -0.0043,-0.02213 0.0021,-0.503145 -0.02789,-1.050567 -0.111558,-1.443021 -0.122284,-0.577611 -0.201661,-1.157235 0.0901,-1.700631 0.261731,-0.489057 0.598549,-0.863398 0.592113,-1.255852 z"
       id="path2504"
       style="fill:#00aae6;stroke-width:0.20779" /><path
       class="cls-1"
       d="m 72.72986,27.415924 c -20.206923,0 -36.648781,15.424426 -36.648781,34.380932 0,18.956508 16.441858,34.380948 36.648781,34.380948 8.527713,0 16.83231,-2.807565 23.384167,-7.907448 0.03862,-0.03019 0.06651,-0.06441 0.100831,-0.0966 0.502008,-0.342138 1.089832,-0.796981 1.433085,-1.16931 0.409759,-0.446793 0.847407,-0.861384 1.484573,-0.980126 0.570659,-0.106668 1.094124,-0.08855 1.420214,-0.334089 0.72513,-0.547422 0.97184,-1.563776 0.96755,-2.300381 -0.006,-1.157234 0.79164,-2.664659 0.856,-3.395225 0.0322,-0.352203 -0.25101,-0.54541 -0.33253,-0.682266 -0.0815,-0.140881 -0.0644,-0.215346 0.0279,-0.356226 0.0386,-0.05837 0.0837,-0.11673 0.12657,-0.173083 0.36471,-0.49912 0.89676,-0.790944 1.46742,-1.036479 0.35184,-0.150944 0.6715,-0.344151 0.90963,-0.640001 -0.6243,0.481007 -1.46313,0.468931 -2.16037,0.869435 0.21025,-0.750693 -0.0107,-1.503398 0.3025,-2.195726 -0.28319,0.370315 -0.38617,0.794969 -0.45267,1.225662 -0.0922,0.609812 -0.34969,1.143146 -0.80236,1.585914 -0.0579,0.05635 -0.12229,0.114717 -0.25959,0.08654 -0.25101,-0.05434 -0.52561,-0.179119 -0.76374,-0.106667 -0.776614,0.233459 -1.945823,1.280002 -2.703127,1.563776 -0.941803,0.354215 -1.962982,0.782894 -2.447829,1.64428 -0.259585,0.458868 -0.02789,1.090819 -0.0472,1.587927 -0.02145,0.529309 -0.248859,0.953963 -0.669345,1.30214 -0.338963,0.279749 -0.755158,0.599749 -1.115575,0.839246 l 0.0086,0.01006 c -5.826733,4.486044 -13.180947,6.955482 -20.734676,6.955482 -18.033698,0 -32.705653,-13.764046 -32.705653,-30.681808 0,-16.917762 14.671955,-30.677782 32.705653,-30.677782 18.033698,0 32.705682,13.764045 32.705682,30.681807 0,1.022392 0.88388,1.849562 1.97157,1.849562 1.08767,0 1.97155,-0.829183 1.97155,-1.849562 0.002,-18.956507 -16.439757,-34.380933 -36.648826,-34.380933 z"
       id="path2506"
       style="fill:#e60046;stroke-width:0.20779" /><path
       class="cls-3"
       d="M 98.021231,52.120364 C 95.26662,45.782744 90.044871,40.831793 83.319241,38.179211 77.265102,35.790276 70.49442,35.526627 64.257927,37.43858 58.085794,39.330407 52.827574,43.218715 49.45296,48.387025 c -0.570659,0.87346 -0.276748,2.014594 0.652183,2.549941 0.92893,0.535346 2.147482,0.261635 2.718141,-0.611825 5.96618,-9.135109 18.415567,-12.886561 28.962042,-8.726555 11.872291,4.685291 17.469474,17.557763 12.477276,28.69539 -2.41994,5.395733 -6.933727,9.583915 -12.711118,11.795742 -5.777391,2.209815 -12.127587,2.177614 -17.879234,-0.09057 -4.464445,-1.761009 -8.175876,-4.719504 -10.735264,-8.555485 -0.07294,-0.108679 -0.156609,-0.209308 -0.246713,-0.297862 -0.158755,-0.237485 -0.313219,-0.48302 -0.44623,-0.710441 -0.270313,-0.460882 -0.330382,-0.933839 -0.1609,-1.436984 0.158754,-0.474969 0.604985,-0.996227 0.525607,-1.509436 -0.148029,-0.964027 -0.954674,-1.692581 -1.714124,-2.322519 -0.609275,-0.507171 -1.334399,-1.861638 -1.980145,-2.326545 -0.197371,-0.142893 -0.499864,-0.112704 -0.757304,-0.14088 -0.139448,-0.0161 -0.180208,-0.09258 -0.214534,-0.16302 -0.266021,-0.56151 -0.317509,-1.145159 -0.184498,-1.746921 0.09439,-0.426667 0.148027,-0.859372 0.01502,-1.296102 0.04505,0.750693 -0.433358,1.390694 -0.506299,2.163525 -0.51059,-0.597736 -1.304365,-0.851321 -1.720559,-1.503398 0.120137,0.354214 0.349689,0.637988 0.626437,0.88956 0.448376,0.410568 0.845263,0.853335 1.008308,1.438997 0.0193,0.06843 0.04076,0.134843 0.05578,0.20327 0.03647,0.161007 0.02789,0.237485 -0.100831,0.344152 -0.124429,0.104654 -0.461247,0.197233 -0.557788,0.53736 -0.201661,0.706416 0.0064,2.378871 -0.416195,3.465665 -0.268166,0.692328 -0.401177,1.726795 0.08367,2.47145 0.216678,0.334089 0.716541,0.481007 1.216405,0.762769 0.555642,0.313963 0.819518,0.843271 1.044779,1.392706 0.203807,0.493083 0.637165,1.171323 1.004017,1.662393 l 0.0193,-0.01006 c 0.0193,0.0322 0.03218,0.06843 0.05364,0.100629 2.99489,4.488057 7.334906,7.947684 12.554509,10.006556 3.408939,1.344404 6.995942,2.01862 10.587236,2.01862 3.591293,0 6.98736,-0.637989 10.316922,-1.911953 6.755665,-2.584155 12.033192,-7.482779 14.860745,-13.792223 2.827559,-6.309443 2.868319,-13.272976 0.113703,-19.610596 z"
       id="path2508"
       style="fill:#0091a0;stroke-width:0.20779" /><text
       xml:space="preserve"
       transform="matrix(0.26458333,0,0,0.26458333,-0.2424375,-1.4992551)"
       id="text3043"
       style="font-style:normal;font-variant:normal;font-weight:normal;font-stretch:normal;font-size:40px;line-height:1.25;font-family:'poppins medium';-inkscape-font-specification:'poppins medium, ';white-space:pre;shape-inside:url(#rect3045);display:inline;fill:#000000;fill-opacity:1;stroke:none" /><path
       class="st5"
       d="m 142.26761,41.183291 c 0.26941,-0.05154 0.54217,-0.103074 0.8151,-0.157774 l 0.008,-0.0046 c -0.45565,-0.741426 -0.80952,-1.545923 -1.05176,-2.390795 -0.3803,-1.326752 -0.47277,-2.686248 -0.27462,-4.040535 0.16875,-1.151861 0.5416,-2.254418 1.10832,-3.276598 0.64543,-1.164327 1.50537,-2.163809 2.55601,-2.970539 0.95744,-0.7351 2.03655,-1.278191 3.20758,-1.614019 l -0.21806,-0.760403 c -1.26703,0.363177 -2.43489,0.950922 -3.4714,1.747047 -1.13716,0.873152 -2.0678,1.954685 -2.76606,3.214456 -0.61305,1.106091 -1.0166,2.298884 -1.19912,3.545632 -0.21471,1.466292 -0.1148,2.937794 0.29694,4.3732 0.23499,0.81901 0.56784,1.602856 0.98944,2.334979 z"
       id="path3557"
       style="fill:#e60046;stroke-width:0.186054" /><g
       id="g3597"
       transform="matrix(0.18605405,0,0,0.18605405,132.91561,21.037731)">
		<path
   class="st6"
   d="m 184.638,193.849 h 15.53 c 0.133,-0.754 0.178,-1.553 0.178,-2.485 0,-7.233 -4.925,-12.025 -11.891,-12.025 -7.632,0 -12.202,5.325 -12.202,12.601 0,7.543 5.192,12.646 12.202,12.646 5.768,0 9.762,-3.195 11.226,-7.676 h -5.458 c -1.109,2.263 -3.017,3.417 -5.768,3.417 -4.348,0 -7.144,-3.328 -7.144,-8.209 0,-5.147 2.707,-8.519 6.922,-8.519 3.86,0 6.789,2.44 6.833,6.168 h -10.427 c -0.844,0.843 -0.755,3.061 -0.001,4.082 z m 65.625,10.561 c 3.062,0 5.014,-2.307 5.014,-5.103 v -9.54 c 0,-6.966 -4.481,-10.427 -10.028,-10.427 -2.884,0 -5.635,1.198 -7.277,3.638 v -3.239 h -5.014 v 24.449 h 5.014 v -13.667 c 0,-4.393 2.396,-6.789 6.168,-6.789 3.772,0 6.123,2.396 6.123,6.789 z m -87.633,0 c 3.062,0 5.014,-2.307 5.014,-5.103 v -7.987 c 0,-4.97 2.041,-6.523 6.035,-6.523 h 1.286 v -5.458 c -3.372,0 -5.857,1.464 -7.321,3.949 v -3.55 h -5.014 z m -49.741,-36.252 c -3.017,0 -5.014,2.307 -5.014,5.103 v 30.927 h 5.014 v -13.667 c 0,-4.393 2.396,-6.789 6.168,-6.789 3.772,0 6.123,2.396 6.123,6.789 v 13.667 h 5.014 v -14.421 c 0,-6.212 -3.594,-10.427 -9.717,-10.427 -3.15,0 -5.857,1.154 -7.588,3.239 z m 103.164,32.036 c -4.082,0 -7.099,-2.973 -7.099,-8.253 0,-4.881 2.795,-8.209 7.232,-8.209 4.748,0 7.365,3.727 7.365,8.209 0.001,5.325 -3.593,8.253 -7.498,8.253 z m 0,4.393 c 7.055,0 12.69,-5.014 12.69,-12.646 0,-7.499 -5.325,-12.601 -12.468,-12.601 -7.099,0 -12.469,4.969 -12.469,12.601 0,7.721 5.414,12.646 12.247,12.646 z m -73.346,-10.738 h 15.53 c 0.133,-0.754 0.178,-1.553 0.178,-2.485 0,-7.233 -4.925,-12.025 -11.891,-12.025 -7.632,0 -12.202,5.325 -12.202,12.601 0,7.543 5.191,12.646 12.202,12.646 5.768,0 9.762,-3.195 11.226,-7.676 h -5.458 c -1.109,2.263 -3.017,3.417 -5.768,3.417 -4.349,0 -7.144,-3.328 -7.144,-8.209 0,-5.147 2.707,-8.519 6.922,-8.519 3.86,0 6.789,2.44 6.833,6.168 h -10.427 c -0.844,0.843 -0.755,3.061 -0.001,4.082 z"
   id="path3559"
   style="fill:#00467d" />
		<g
   id="g3595">
			<path
   class="st6"
   d="m 152.393,164.066 v 7.576 h -1.243 v -3.313 h -3.564 v 3.313 h -1.243 v -7.576 h 1.243 v 3.249 h 3.564 v -3.249 z"
   id="path3561"
   style="fill:#00467d" />
			<path
   class="st6"
   d="m 159.652,169.103 h -4.589 c 0.036,0.479 0.214,0.865 0.534,1.155 0.32,0.291 0.712,0.437 1.177,0.437 0.668,0 1.141,-0.28 1.417,-0.84 h 1.341 c -0.182,0.553 -0.511,1.005 -0.987,1.357 -0.476,0.352 -1.066,0.528 -1.771,0.528 -0.574,0 -1.088,-0.129 -1.542,-0.387 -0.454,-0.258 -0.81,-0.621 -1.068,-1.09 -0.258,-0.469 -0.387,-1.012 -0.387,-1.63 0,-0.617 0.125,-1.161 0.376,-1.63 0.251,-0.468 0.603,-0.83 1.057,-1.084 0.454,-0.254 0.976,-0.382 1.564,-0.382 0.567,0 1.072,0.124 1.515,0.371 0.443,0.247 0.788,0.594 1.035,1.041 0.247,0.446 0.371,0.961 0.371,1.542 0.001,0.227 -0.014,0.43 -0.043,0.612 z m -1.253,-1.003 c -0.007,-0.458 -0.171,-0.824 -0.491,-1.101 -0.32,-0.277 -0.716,-0.414 -1.188,-0.414 -0.429,0 -0.795,0.136 -1.101,0.408 -0.306,0.272 -0.487,0.642 -0.545,1.106 h 3.325 z"
   id="path3563"
   style="fill:#00467d" />
			<path
   class="st6"
   d="m 162.323,163.576 v 8.066 h -1.243 v -8.066 z"
   id="path3565"
   style="fill:#00467d" />
			<path
   class="st6"
   d="m 172.715,165.833 c 0.375,0.196 0.669,0.486 0.883,0.872 0.214,0.385 0.321,0.85 0.321,1.395 v 3.543 h -1.231 v -3.357 c 0,-0.538 -0.135,-0.95 -0.403,-1.237 -0.269,-0.287 -0.636,-0.431 -1.101,-0.431 -0.465,0 -0.834,0.144 -1.106,0.431 -0.272,0.287 -0.409,0.699 -0.409,1.237 v 3.357 h -1.231 v -3.357 c 0,-0.538 -0.135,-0.95 -0.403,-1.237 -0.269,-0.287 -0.636,-0.431 -1.101,-0.431 -0.465,0 -0.834,0.144 -1.106,0.431 -0.272,0.287 -0.409,0.699 -0.409,1.237 v 3.357 h -1.243 v -6.006 h 1.243 v 0.687 c 0.204,-0.247 0.461,-0.439 0.774,-0.578 0.313,-0.138 0.646,-0.207 1.003,-0.207 0.479,0 0.908,0.103 1.286,0.306 0.378,0.203 0.668,0.498 0.872,0.883 0.182,-0.363 0.465,-0.652 0.85,-0.866 0.385,-0.215 0.799,-0.322 1.243,-0.322 0.471,-0.002 0.894,0.097 1.268,0.293 z"
   id="path3567"
   style="fill:#00467d" />
			<path
   class="st6"
   d="m 179.942,165.833 c 0.359,0.196 0.643,0.486 0.85,0.872 0.207,0.385 0.311,0.85 0.311,1.395 v 3.543 h -1.231 v -3.357 c 0,-0.538 -0.135,-0.95 -0.403,-1.237 -0.269,-0.287 -0.636,-0.431 -1.101,-0.431 -0.465,0 -0.834,0.144 -1.106,0.431 -0.272,0.287 -0.409,0.699 -0.409,1.237 v 3.357 h -1.243 v -8.066 h 1.243 v 2.758 c 0.211,-0.254 0.478,-0.45 0.801,-0.589 0.323,-0.138 0.677,-0.207 1.063,-0.207 0.456,-10e-4 0.865,0.098 1.225,0.294 z"
   id="path3569"
   style="fill:#00467d" />
			<path
   class="st6"
   d="m 183.86,171.354 c -0.458,-0.258 -0.817,-0.621 -1.079,-1.09 -0.262,-0.469 -0.393,-1.012 -0.393,-1.63 0,-0.61 0.134,-1.151 0.403,-1.624 0.269,-0.473 0.636,-0.836 1.101,-1.09 0.465,-0.254 0.984,-0.382 1.559,-0.382 0.575,0 1.094,0.128 1.559,0.382 0.465,0.254 0.832,0.617 1.101,1.09 0.269,0.473 0.403,1.014 0.403,1.624 0,0.61 -0.138,1.152 -0.414,1.624 -0.276,0.473 -0.652,0.838 -1.128,1.096 -0.476,0.258 -1.001,0.387 -1.575,0.387 -0.566,-0.001 -1.079,-0.13 -1.537,-0.387 z m 2.436,-0.921 c 0.28,-0.152 0.507,-0.382 0.681,-0.687 0.175,-0.306 0.262,-0.676 0.262,-1.112 0,-0.436 -0.083,-0.805 -0.25,-1.106 -0.167,-0.301 -0.389,-0.528 -0.665,-0.681 -0.276,-0.153 -0.574,-0.229 -0.894,-0.229 -0.32,0 -0.616,0.076 -0.888,0.229 -0.272,0.152 -0.489,0.38 -0.648,0.681 -0.16,0.302 -0.24,0.671 -0.24,1.106 0,0.647 0.165,1.146 0.496,1.499 0.331,0.353 0.747,0.528 1.248,0.528 0.319,0 0.619,-0.076 0.898,-0.228 z"
   id="path3571"
   style="fill:#00467d" />
			<path
   class="st6"
   d="m 191.098,163.576 v 8.066 h -1.243 v -8.066 z"
   id="path3573"
   style="fill:#00467d" />
			<path
   class="st6"
   d="m 194.4,166.65 v 3.324 c 0,0.226 0.053,0.387 0.158,0.485 0.105,0.098 0.285,0.146 0.54,0.146 h 0.763 v 1.036 h -0.981 c -0.56,0 -0.988,-0.131 -1.286,-0.393 -0.298,-0.262 -0.447,-0.687 -0.447,-1.275 v -3.324 h -0.708 v -1.014 h 0.708 v -1.493 h 1.253 v 1.493 h 1.461 v 1.014 H 194.4 Z"
   id="path3575"
   style="fill:#00467d" />
			<path
   class="st6"
   d="m 198.378,170.629 h 2.725 v 1.014 h -4.164 v -1.014 l 2.736,-3.979 h -2.736 v -1.014 h 4.164 v 1.014 z"
   id="path3577"
   style="fill:#00467d" />
			<path
   class="st6"
   d="m 207.404,167.173 v 1.047 h -4.48 v -1.047 z"
   id="path3579"
   style="fill:#00467d" />
			<path
   class="st6"
   d="m 210.586,170.564 h 3.521 v 1.079 h -4.992 v -0.971 l 3.51,-5.526 h -3.51 v -1.079 h 4.992 v 0.971 z"
   id="path3581"
   style="fill:#00467d" />
			<path
   class="st6"
   d="m 221.039,169.103 h -4.589 c 0.036,0.479 0.214,0.865 0.534,1.155 0.32,0.291 0.712,0.437 1.177,0.437 0.668,0 1.141,-0.28 1.417,-0.84 h 1.341 c -0.182,0.553 -0.511,1.005 -0.987,1.357 -0.476,0.352 -1.066,0.528 -1.771,0.528 -0.574,0 -1.088,-0.129 -1.542,-0.387 -0.454,-0.258 -0.81,-0.621 -1.068,-1.09 -0.258,-0.469 -0.387,-1.012 -0.387,-1.63 0,-0.617 0.125,-1.161 0.376,-1.63 0.251,-0.468 0.603,-0.83 1.057,-1.084 0.454,-0.254 0.976,-0.382 1.564,-0.382 0.567,0 1.072,0.124 1.515,0.371 0.443,0.247 0.788,0.594 1.035,1.041 0.247,0.446 0.371,0.961 0.371,1.542 0.001,0.227 -0.014,0.43 -0.043,0.612 z m -1.253,-1.003 c -0.007,-0.458 -0.171,-0.824 -0.491,-1.101 -0.32,-0.277 -0.716,-0.414 -1.188,-0.414 -0.429,0 -0.795,0.136 -1.101,0.408 -0.306,0.272 -0.487,0.642 -0.545,1.106 h 3.325 z"
   id="path3583"
   style="fill:#00467d" />
			<path
   class="st6"
   d="m 226.767,165.833 c 0.374,0.196 0.667,0.486 0.877,0.872 0.21,0.385 0.316,0.85 0.316,1.395 v 3.543 h -1.231 v -3.357 c 0,-0.538 -0.135,-0.95 -0.403,-1.237 -0.269,-0.287 -0.636,-0.431 -1.101,-0.431 -0.465,0 -0.834,0.144 -1.106,0.431 -0.272,0.287 -0.409,0.699 -0.409,1.237 v 3.357 h -1.243 v -6.006 h 1.243 v 0.687 c 0.204,-0.247 0.463,-0.439 0.779,-0.578 0.316,-0.138 0.652,-0.207 1.008,-0.207 0.472,-10e-4 0.896,0.098 1.27,0.294 z"
   id="path3585"
   style="fill:#00467d" />
			<path
   class="st6"
   d="m 231.154,166.65 v 3.324 c 0,0.226 0.053,0.387 0.158,0.485 0.105,0.098 0.285,0.146 0.54,0.146 h 0.763 v 1.036 h -0.981 c -0.56,0 -0.988,-0.131 -1.286,-0.393 -0.298,-0.262 -0.447,-0.687 -0.447,-1.275 v -3.324 h -0.708 v -1.014 h 0.708 v -1.493 h 1.253 v 1.493 h 1.461 v 1.014 h -1.461 z"
   id="path3587"
   style="fill:#00467d" />
			<path
   class="st6"
   d="m 235.999,165.795 c 0.301,-0.171 0.659,-0.257 1.073,-0.257 v 1.286 h -0.316 c -0.487,0 -0.855,0.124 -1.106,0.371 -0.25,0.247 -0.376,0.676 -0.376,1.286 v 3.161 h -1.243 v -6.006 h 1.243 v 0.872 c 0.182,-0.305 0.423,-0.543 0.725,-0.713 z"
   id="path3589"
   style="fill:#00467d" />
			<path
   class="st6"
   d="m 243.82,165.637 v 6.006 h -1.243 v -0.709 c -0.196,0.247 -0.453,0.441 -0.769,0.583 -0.316,0.142 -0.652,0.213 -1.008,0.213 -0.473,0 -0.896,-0.098 -1.27,-0.294 -0.374,-0.196 -0.668,-0.487 -0.883,-0.872 -0.214,-0.386 -0.321,-0.851 -0.321,-1.396 v -3.531 h 1.231 v 3.346 c 0,0.538 0.134,0.95 0.403,1.237 0.269,0.287 0.636,0.431 1.101,0.431 0.465,0 0.833,-0.144 1.106,-0.431 0.272,-0.287 0.409,-0.699 0.409,-1.237 v -3.346 z"
   id="path3591"
   style="fill:#00467d" />
			<path
   class="st6"
   d="m 254.158,165.833 c 0.375,0.196 0.669,0.486 0.883,0.872 0.214,0.385 0.321,0.85 0.321,1.395 v 3.543 h -1.231 v -3.357 c 0,-0.538 -0.135,-0.95 -0.403,-1.237 -0.269,-0.287 -0.636,-0.431 -1.101,-0.431 -0.465,0 -0.834,0.144 -1.106,0.431 -0.272,0.287 -0.409,0.699 -0.409,1.237 v 3.357 h -1.231 v -3.357 c 0,-0.538 -0.135,-0.95 -0.403,-1.237 -0.269,-0.287 -0.636,-0.431 -1.101,-0.431 -0.465,0 -0.834,0.144 -1.106,0.431 -0.272,0.287 -0.409,0.699 -0.409,1.237 v 3.357 h -1.243 v -6.006 h 1.243 v 0.687 c 0.204,-0.247 0.461,-0.439 0.774,-0.578 0.313,-0.138 0.646,-0.207 1.003,-0.207 0.479,0 0.908,0.103 1.286,0.306 0.378,0.203 0.668,0.498 0.872,0.883 0.182,-0.363 0.465,-0.652 0.85,-0.866 0.385,-0.215 0.799,-0.322 1.243,-0.322 0.47,-0.002 0.894,0.097 1.268,0.293 z"
   id="path3593"
   style="fill:#00467d" />
		</g>
	</g><path
       class="st5"
       d="m 144.58864,31.291169 c 0.57416,-0.821242 1.29047,-1.52434 2.12883,-2.089944 0.96003,-0.647469 2.02036,-1.076509 3.15138,-1.275215 0.98776,-0.173589 1.99004,-0.164285 2.97891,0.02809 1.13493,0.22066 2.188,0.666817 3.13036,1.326379 0.81957,0.57379 1.52155,1.289168 2.08641,2.126412 0.65565,0.972132 1.08712,2.046222 1.28229,3.192501 0.15739,0.923944 0.15312,1.859982 -0.009,2.784857 0.0824,0.04335 0.16409,0.08707 0.24503,0.130982 0.18233,-0.982552 0.19126,-1.977941 0.0238,-2.960306 -0.20149,-1.183304 -0.64709,-2.292186 -1.32377,-3.295575 -0.58291,-0.864221 -1.30759,-1.60267 -2.15376,-2.19488 -0.97288,-0.680958 -2.05999,-1.141627 -3.23121,-1.369357 -1.02069,-0.198334 -2.05514,-0.208195 -3.07491,-0.02884 -1.16767,0.205218 -2.26242,0.648026 -3.25334,1.316332 -0.86534,0.583652 -1.60472,1.309634 -2.19748,2.157297 -0.67966,0.971946 -1.13959,2.057943 -1.36695,3.227665 l 0.25899,0.05042 c 0.22066,-1.133255 0.66608,-2.185391 1.32434,-3.126825 z"
       id="path3599"
       style="fill:#e60046;stroke-width:0.186054" /><g
       id="g3615"
       transform="matrix(0.18605405,0,0,0.18605405,132.91561,21.037731)">
		<path
   class="st5"
   d="m 121.874,109.871 c 1.62,-1.266 3.116,-2.656 4.494,-4.149 -1.265,-0.684 -2.456,-1.539 -3.491,-2.526 -1.127,1.183 -2.32,2.308 -3.622,3.325 -0.787,0.615 -1.599,1.183 -2.428,1.721 1.01,1.046 2.18,1.995 3.434,2.82 0.546,-0.382 1.084,-0.778 1.613,-1.191 z"
   id="path3601"
   style="fill:#e60046" />
		<path
   class="st5"
   d="m 89.296,112.21 c -2.616,-0.77 -5.123,-1.853 -7.49,-3.253 -2.747,-1.624 -5.222,-3.62 -7.391,-5.947 -0.352,0.257 -0.712,0.508 -1.082,0.751 -0.018,0.012 -0.036,0.025 -0.055,0.037 -0.384,0.251 -0.777,0.496 -1.183,0.731 -0.447,0.259 -0.904,0.502 -1.366,0.738 0,0 0,0 0,0 2.58,2.899 5.565,5.369 8.912,7.35 3.041,1.799 6.286,3.132 9.684,4.007 -0.238,-1.497 -0.255,-2.976 -0.029,-4.414 z"
   id="path3603"
   style="fill:#e60046" />
		<path
   class="st5"
   d="m 98.808,117.838 c 0.128,0 0.256,-0.011 0.384,-0.012 -0.862,-1.42 -1.496,-2.856 -1.897,-4.283 -0.866,-0.039 -1.734,-0.104 -2.602,-0.211 -1.364,-0.167 -2.702,-0.424 -4.016,-0.751 -0.205,1.427 -0.158,2.901 0.144,4.398 1.104,0.237 2.22,0.434 3.354,0.573 1.547,0.191 3.093,0.286 4.633,0.286 z"
   id="path3605"
   style="fill:#e60046" />
		<path
   class="st5"
   d="m 111.237,115.695 c 2.72,-0.958 5.308,-2.219 7.74,-3.779 -1.176,-0.82 -2.275,-1.748 -3.246,-2.765 -0.048,-0.05 -0.087,-0.102 -0.134,-0.152 -2.335,1.374 -4.819,2.453 -7.431,3.222 0.552,0.798 1.19,1.59 1.932,2.367 0.364,0.38 0.747,0.747 1.139,1.107 z"
   id="path3607"
   style="fill:#e60046" />
		<path
   class="st5"
   d="m 108.161,116.644 c 0.522,-0.135 1.037,-0.287 1.55,-0.444 -0.215,-0.21 -0.431,-0.418 -0.637,-0.634 -0.919,-0.962 -1.699,-1.951 -2.351,-2.951 -2.606,0.643 -5.263,0.962 -7.94,0.96 0.44,1.395 1.126,2.803 2.053,4.197 2.468,-0.133 4.916,-0.503 7.325,-1.128 z"
   id="path3609-5"
   style="fill:#e60046" />
		<path
   class="st5"
   d="m 130.85,99.791 c 2.395,-3.935 4.016,-8.213 4.839,-12.741 -1.315,-0.613 -2.654,-1.206 -4.023,-1.766 -0.664,4.387 -2.15,8.522 -4.448,12.296 -0.992,1.63 -2.125,3.154 -3.371,4.581 1.02,0.974 2.221,1.814 3.492,2.467 1.291,-1.515 2.469,-3.125 3.511,-4.837 z"
   id="path3611"
   style="fill:#e60046" />
		<path
   class="st5"
   d="m 72.595,100.887 c -0.028,-0.036 -0.059,-0.07 -0.087,-0.106 -2.837,-3.632 -4.858,-7.724 -6.007,-12.162 -1.047,-4.043 -1.318,-8.215 -0.804,-12.401 0.576,-4.689 2.093,-9.102 4.509,-13.113 2.106,-3.497 4.812,-6.549 8.042,-9.072 l -2.617,-3.351 c -3.641,2.844 -6.692,6.286 -9.067,10.229 -2.727,4.526 -4.438,9.502 -5.087,14.788 -0.579,4.718 -0.274,9.424 0.908,13.985 1.263,4.88 3.468,9.383 6.541,13.4 0.491,-0.246 0.975,-0.501 1.444,-0.773 0.399,-0.231 0.782,-0.466 1.155,-0.705 0.368,-0.235 0.725,-0.476 1.07,-0.719 z"
   id="path3613"
   style="fill:#e60046" />
	</g><g
       id="g3621"
       transform="matrix(0.18605405,0,0,0.18605405,132.91561,21.037731)">
		<path
   class="st5"
   d="m 79.642,112.617 c 4.46,2.639 9.35,4.299 14.533,4.936 1.547,0.19 3.093,0.285 4.633,0.285 3.155,0 6.286,-0.398 9.353,-1.193 5.005,-1.296 9.619,-3.575 13.712,-6.773 3.595,-2.81 6.615,-6.201 8.976,-10.08 2.395,-3.935 4.016,-8.213 4.839,-12.741 -1.315,-0.613 -2.654,-1.206 -4.023,-1.766 -0.664,4.387 -2.15,8.522 -4.448,12.296 -2.094,3.44 -4.772,6.448 -7.962,8.941 -3.631,2.837 -7.723,4.858 -12.16,6.008 -4.046,1.047 -8.219,1.317 -12.402,0.803 -4.599,-0.564 -8.935,-2.036 -12.887,-4.375 -2.747,-1.624 -5.222,-3.62 -7.391,-5.947 -0.352,0.257 -0.712,0.508 -1.082,0.751 -0.018,0.012 -0.036,0.025 -0.055,0.037 -0.384,0.251 -0.777,0.496 -1.183,0.731 -0.447,0.259 -0.904,0.502 -1.366,0.738 0,0 0,0 0,0 2.58,2.898 5.565,5.369 8.913,7.349 z"
   id="path3617"
   style="fill:#e60046" />
		<path
   class="st5"
   d="m 72.595,100.887 c -0.028,-0.036 -0.059,-0.07 -0.087,-0.106 -2.837,-3.632 -4.858,-7.724 -6.007,-12.162 -1.047,-4.043 -1.318,-8.215 -0.804,-12.401 0.576,-4.689 2.093,-9.102 4.509,-13.113 2.106,-3.497 4.812,-6.549 8.042,-9.072 l -2.617,-3.351 c -3.641,2.844 -6.692,6.286 -9.067,10.229 -2.727,4.526 -4.438,9.502 -5.087,14.788 -0.579,4.718 -0.274,9.424 0.908,13.985 1.263,4.88 3.468,9.383 6.541,13.4 0.491,-0.246 0.975,-0.501 1.444,-0.773 0.399,-0.231 0.782,-0.466 1.155,-0.705 0.368,-0.235 0.725,-0.476 1.07,-0.719 z"
   id="path3619"
   style="fill:#e60046" />
	</g><g
       id="g3659"
       transform="matrix(0.18605405,0,0,0.18605405,132.91561,21.037731)">
		<path
   class="st7"
   d="m 162.699,112.957 c 0.047,0.362 0.081,0.727 0.104,1.093 -0.023,-0.366 -0.056,-0.731 -0.104,-1.093 z"
   id="path3623"
   style="fill:#0091a0" />
		<path
   class="st7"
   d="m 157.484,102.066 c 0.227,0.267 0.443,0.535 0.656,0.805 -0.214,-0.269 -0.429,-0.538 -0.656,-0.805 z"
   id="path3625"
   style="fill:#0091a0" />
		<path
   class="st7"
   d="m 122.197,82.106 c -0.111,-0.421 -0.224,-0.84 -0.339,-1.256 -0.101,-0.366 -0.2,-0.736 -0.299,-1.105 -1.648,-0.416 -3.311,-0.772 -4.985,-1.058 0.209,0.762 0.414,1.531 0.604,2.306 1.69,0.301 3.363,0.678 5.019,1.113 z"
   id="path3627"
   style="fill:#0091a0" />
		<path
   class="st7"
   d="m 100.235,80.794 c 0.957,-0.168 1.915,-0.301 2.874,-0.403 -0.157,-0.753 -0.333,-1.503 -0.517,-2.251 -1.455,0.154 -2.908,0.374 -4.355,0.68 -0.089,0.019 -0.17,0.042 -0.258,0.061 0.162,0.772 0.313,1.546 0.442,2.324 0.585,-0.157 1.183,-0.3 1.814,-0.411 z"
   id="path3629"
   style="fill:#0091a0" />
		<path
   class="st7"
   d="m 109.303,80.168 c -0.18,-0.759 -0.377,-1.514 -0.578,-2.264 -1.567,-0.04 -3.136,-0.006 -4.705,0.11 0.183,0.754 0.36,1.511 0.516,2.273 1.59,-0.118 3.18,-0.165 4.767,-0.119 z"
   id="path3631"
   style="fill:#0091a0" />
		<path
   class="st7"
   d="m 115.657,80.751 c -0.193,-0.755 -0.399,-1.506 -0.604,-2.249 -0.005,-0.019 -0.01,-0.037 -0.015,-0.056 -1.603,-0.231 -3.215,-0.395 -4.831,-0.483 0.2,0.755 0.391,1.515 0.567,2.28 1.636,0.095 3.264,0.265 4.883,0.508 z"
   id="path3633"
   style="fill:#0091a0" />
		<path
   class="st7"
   d="m 166.71,118.435 c 0,-1.771 -0.217,-3.542 -0.625,-5.3 -0.084,-0.353 -0.176,-0.706 -0.276,-1.058 -0.415,-1.484 -0.974,-2.956 -1.681,-4.409 -10e-4,0 -0.002,10e-4 -0.002,10e-4 -0.167,-0.342 -0.342,-0.684 -0.522,-1.024 -0.792,-1.474 -1.737,-2.926 -2.834,-4.35 -0.003,0.001 -0.007,0.003 -0.01,0.004 -0.302,-0.391 -0.61,-0.782 -0.935,-1.168 0.002,-0.001 0.003,-0.001 0.005,-0.002 -1.107,-1.319 -2.348,-2.608 -3.723,-3.864 -0.003,0.002 -0.006,0.004 -0.01,0.005 -0.377,-0.344 -0.764,-0.684 -1.16,-1.023 0.005,-0.002 0.009,-0.005 0.014,-0.007 -2.402,-2.049 -5.157,-4.001 -8.295,-5.817 -6.878,-3.979 -14.957,-7.89 -23.514,-10.26 0.029,0.104 0.055,0.205 0.084,0.31 0.187,0.677 0.367,1.364 0.536,2.057 7.227,2.079 14.028,5.279 19.882,8.666 3.315,1.918 6.25,3.914 8.785,5.987 0.002,-0.001 0.004,-0.001 0.006,-0.002 0.095,0.078 0.183,0.157 0.278,0.235 1.775,1.474 3.341,2.987 4.677,4.542 0.002,-0.001 0.004,-0.001 0.006,-0.002 0.031,0.036 0.058,0.073 0.089,0.109 0.227,0.267 0.443,0.536 0.656,0.805 0.072,0.091 0.152,0.181 0.223,0.273 -0.003,0.001 -0.006,0.002 -0.009,0.003 1.015,1.312 1.877,2.651 2.557,4.021 0.002,-0.001 0.005,-0.001 0.007,-0.002 0.214,0.431 0.411,0.866 0.591,1.303 0,0 -0.001,0 -0.001,0 0.581,1.414 0.964,2.862 1.17,4.338 0.003,-10e-4 0.005,-10e-4 0.008,-0.002 0.007,0.05 0.008,0.101 0.014,0.151 0.047,0.362 0.081,0.727 0.104,1.093 0.004,0.062 0.014,0.123 0.018,0.185 -0.003,10e-4 -0.006,10e-4 -0.008,0.002 0.016,0.303 0.045,0.603 0.045,0.909 0,9.089 -10.825,28.829 -23.966,33.185 -14.199,4.707 -34.143,-6.258 -49.853,-6.258 -15.71,0 -24.372,6.476 -38.136,0.197 -13.015,-5.938 -16.88,-15.077 -12.947,-23.007 4.636,-9.35 22.153,-7.799 34.14,-14.734 11.01,-6.37 13.759,-18.986 24.954,-22.901 -0.131,-0.807 -0.281,-1.611 -0.449,-2.413 -14.688,3.927 -13.323,15.63 -26.232,23.098 -13.37,7.735 -36.158,4.654 -40.605,16.122 -4.39,11.32 1.364,24.113 17.222,29.96 14.489,5.342 25.621,0.14 43.145,0.14 17.524,0 34.562,11.697 50.538,5.983 14.138,-5.057 25.4,-24.808 26.012,-35.216 -0.005,0.001 -0.01,0.003 -0.016,0.004 0.015,-0.29 0.043,-0.592 0.043,-0.869 z"
   id="path3635"
   style="fill:#0091a0" />
		<path
   class="st7"
   d="m 166.665,119.306 c 0.005,-10e-4 0.01,-0.003 0.016,-0.004 0.017,-0.296 0.03,-0.587 0.03,-0.867 -0.001,0.277 -0.029,0.579 -0.046,0.871 z"
   id="path3637"
   style="fill:#0091a0" />
		<path
   class="st7"
   d="m 162.821,114.235 c -0.003,-0.062 -0.014,-0.123 -0.018,-0.185 0.004,0.062 0.006,0.124 0.009,0.187 0.004,-10e-4 0.007,-0.002 0.009,-0.002 z"
   id="path3639"
   style="fill:#0091a0" />
		<path
   class="st7"
   d="m 162.685,112.806 c -0.003,0.001 -0.005,0.001 -0.008,0.002 0.007,0.05 0.016,0.099 0.022,0.149 -0.006,-0.05 -0.007,-0.101 -0.014,-0.151 z"
   id="path3641"
   style="fill:#0091a0" />
		<path
   class="st7"
   d="m 165.809,112.077 c 0.1,0.352 0.192,0.705 0.276,1.058 -0.082,-0.353 -0.177,-0.705 -0.276,-1.058 z"
   id="path3643"
   style="fill:#0091a0" />
		<path
   class="st7"
   d="m 164.128,107.668 c -0.167,-0.342 -0.341,-0.683 -0.524,-1.024 0.18,0.341 0.355,0.682 0.522,1.024 0.001,0 0.002,0 0.002,0 z"
   id="path3645"
   style="fill:#0091a0" />
		<path
   class="st7"
   d="m 161.509,108.469 c -0.18,-0.437 -0.377,-0.872 -0.591,-1.303 -0.002,0.001 -0.005,0.001 -0.007,0.002 0.214,0.431 0.417,0.865 0.596,1.302 0.001,-0.001 0.001,-0.001 0.002,-0.001 z"
   id="path3647"
   style="fill:#0091a0" />
		<path
   class="st7"
   d="m 157.395,101.958 c -0.002,0.001 -0.004,0.001 -0.006,0.002 0.031,0.036 0.064,0.071 0.095,0.107 -0.031,-0.037 -0.058,-0.073 -0.089,-0.109 z"
   id="path3649"
   style="fill:#0091a0" />
		<path
   class="st7"
   d="m 158.363,103.144 c -0.071,-0.092 -0.15,-0.182 -0.223,-0.273 0.073,0.092 0.143,0.184 0.214,0.276 0.003,-0.001 0.006,-0.002 0.009,-0.003 z"
   id="path3651"
   style="fill:#0091a0" />
		<path
   class="st7"
   d="m 160.76,102.299 c 0.004,-0.001 0.007,-0.003 0.01,-0.004 -0.302,-0.391 -0.616,-0.78 -0.94,-1.166 -0.002,10e-4 -0.003,10e-4 -0.005,0.002 0.325,0.386 0.633,0.777 0.935,1.168 z"
   id="path3653"
   style="fill:#0091a0" />
		<path
   class="st7"
   d="m 152.434,97.182 c -0.002,0.001 -0.004,0.001 -0.006,0.002 0.095,0.078 0.19,0.156 0.284,0.234 -0.094,-0.079 -0.182,-0.158 -0.278,-0.236 z"
   id="path3655"
   style="fill:#0091a0" />
		<path
   class="st7"
   d="m 156.096,97.27 c 0.003,-0.002 0.006,-0.004 0.01,-0.005 -0.377,-0.344 -0.759,-0.686 -1.156,-1.024 -0.005,0.002 -0.009,0.005 -0.014,0.007 0.397,0.338 0.784,0.678 1.16,1.022 z"
   id="path3657"
   style="fill:#0091a0" />
	</g><path
       class="st8"
       d="m 150.00076,31.551459 c 0.01,0.919107 0.25918,1.823702 0.52319,2.781322 0.26754,0.970272 0.54421,1.973475 0.54421,2.984679 0,1.038181 -0.38197,1.792072 -0.78646,2.59043 -0.3081,0.608397 -0.62681,1.23726 -0.74998,1.991151 -0.15927,0.974737 0.26699,2.050315 1.20042,3.027843 0.6698,0.70161 1.56565,1.315589 2.52234,1.728814 0.81287,0.351084 1.62592,0.536022 2.33683,0.536022 0.14643,0 0.28857,-0.0078 0.42532,-0.02363 1.32936,-0.154239 1.7504,-0.740309 2.19637,-1.360614 0.34848,-0.484856 0.70887,-0.986272 1.545,-1.389265 0.69658,-0.335828 1.81775,-0.607839 3.0044,-0.895664 0.0966,-0.02344 0.19386,-0.04707 0.29117,-0.07089 0.0281,-0.09898 0.0525,-0.195543 0.0735,-0.2895 -0.14289,0.03498 -0.28541,0.06958 -0.4268,0.103818 -1.2008,0.291361 -2.33498,0.56672 -3.05688,0.914456 -0.89659,0.432017 -1.294,0.985156 -1.64453,1.47299 -0.42885,0.596489 -0.7991,1.111859 -2.01255,1.252516 -1.54015,0.178239 -3.7168,-0.750542 -5.06345,-2.161204 -0.87502,-0.916503 -1.27652,-1.912078 -1.13102,-2.803277 0.11665,-0.713517 0.4121,-1.296983 0.72505,-1.914496 0.40057,-0.790915 0.81491,-1.608623 0.81491,-2.709691 0,-1.04674 -0.28149,-2.067619 -0.55351,-3.054635 -0.25936,-0.940689 -0.50439,-1.829284 -0.51369,-2.71397 -0.019,-1.793562 1.08227,-2.964213 2.44344,-3.618566 -0.14828,-0.02624 -0.29675,-0.04837 -0.44559,-0.06623 -1.2862,0.718355 -2.28047,1.916729 -2.26168,3.687591 z"
       id="path3661"
       style="fill:#00aae6;stroke-width:0.186054" /><path
       class="st8"
       d="m 166.26225,36.513148 c -0.38438,-0.259732 -0.78179,-0.528021 -1.12432,-0.810637 -2.05757,-1.697743 -2.94319,-3.674753 -3.61205,-5.394637 -1.07241,-2.757879 -4.53749,-3.688894 -7.25258,-3.164593 -0.53955,0.10419 -1.08785,0.273871 -1.60397,0.512951 0.0763,0.01265 0.15257,0.02437 0.22885,0.03907 0.0781,0.01526 0.1548,0.03405 0.2322,0.05135 0.39053,-0.152936 0.79427,-0.267546 1.19298,-0.344386 0.46457,-0.08968 0.95148,-0.135634 1.44434,-0.135634 2.27673,0 4.67367,0.979017 5.51259,3.136686 0.68077,1.750768 1.58351,3.764245 3.69001,5.502362 0.35239,0.290802 0.75519,0.562814 1.1446,0.825893 1.38703,0.936969 2.69723,1.821842 2.29703,3.655776 -0.28876,1.322845 -2.34317,2.02278 -4.48316,2.574616 7e-4,0.03702 0.004,0.07405 0.004,0.111261 0,0.05154 -0.005,0.107725 -0.008,0.162053 2.24121,-0.574535 4.42176,-1.310565 4.74494,-2.791555 0.43815,-2.00864 -1.00842,-2.985795 -2.40736,-3.930577 z"
       id="path3663"
       style="fill:#00aae6;stroke-width:0.186054" /><path
       class="st8"
       d="m 151.34686,32.413447 c 0.008,0.779567 0.21936,1.545365 0.443,2.356189 0.22568,0.818823 0.45918,1.665555 0.45918,2.517497 0,0.872593 -0.32187,1.507782 -0.66254,2.180367 -0.26122,0.515556 -0.53118,1.048787 -0.63593,1.688999 -0.13563,0.830545 0.22643,1.745745 1.01995,2.577035 1.10181,1.154093 2.77183,1.921007 4.11439,1.921007 0.12633,0 0.24988,-0.0069 0.36951,-0.02065 1.13251,-0.13154 1.49104,-0.630351 1.87077,-1.158559 0.29304,-0.407644 0.59612,-0.829428 1.29829,-1.167675 0.58681,-0.282988 1.53346,-0.512579 2.53554,-0.755937 0.34606,-0.08391 0.69919,-0.169682 1.05028,-0.26029 -0.005,-0.08912 -0.0132,-0.177868 -0.0253,-0.265871 -0.3628,0.09396 -0.72895,0.183078 -1.08711,0.269964 -1.01604,0.246522 -1.97571,0.479462 -2.58783,0.774358 -0.76263,0.367642 -1.10013,0.837243 -1.39782,1.251585 -0.37453,0.520951 -0.67016,0.932502 -1.68695,1.050461 -1.29549,0.149215 -3.1285,-0.632025 -4.26287,-1.820353 -0.7351,-0.770077 -1.0726,-1.60546 -0.95055,-2.352467 0.0981,-0.600024 0.34718,-1.091765 0.611,-1.612345 0.33973,-0.670538 0.69101,-1.364148 0.69101,-2.299628 0,-0.887663 -0.23834,-1.751884 -0.46867,-2.587639 -0.2188,-0.793893 -0.4257,-1.543504 -0.43351,-2.288837 -0.0219,-2.079153 1.74947,-3.163291 3.41447,-3.484792 0.10176,-0.01972 0.20503,-0.03647 0.30903,-0.05116 -0.12503,-0.07126 -0.25155,-0.139168 -0.37992,-0.203357 -1.76342,0.346805 -3.63084,1.509643 -3.60741,3.742105 z"
       id="path3665"
       style="fill:#00aae6;stroke-width:0.186054" /><path
       class="st8"
       d="m 156.24232,28.811813 c 1.91691,0 3.9343,0.823476 4.64,2.638433 0.57639,1.482292 1.34089,3.187106 3.12496,4.659165 0.29862,0.246335 0.63947,0.47667 0.96897,0.699191 1.16675,0.787939 2.26856,1.532155 1.93311,3.068775 -0.2136,0.978273 -1.58891,1.551877 -3.14972,1.992639 0.0242,0.08484 0.0475,0.169867 0.0666,0.255081 1.64007,-0.463834 3.09855,-1.081347 3.34079,-2.191345 0.3736,-1.711325 -0.85511,-2.541126 -2.04306,-3.343578 -0.32448,-0.219171 -0.65993,-0.445785 -0.94888,-0.68412 -1.73532,-1.431872 -2.4827,-3.100219 -3.047,-4.55144 -0.85659,-2.203066 -3.50917,-3.032867 -5.73866,-2.753042 0.13024,0.07256 0.25881,0.148658 0.38551,0.228288 0.15498,-0.01079 0.31053,-0.01804 0.46737,-0.01804 z"
       id="path3667"
       style="fill:#00aae6;stroke-width:0.186054" /><path
       class="st8"
       d="m 160.48472,32.496986 c 0.47202,1.213817 1.09809,2.609779 2.56011,3.81634 0.24484,0.202055 0.52374,0.390528 0.79351,0.572675 0.94609,0.639095 1.83971,1.242468 1.56919,2.481775 -0.14978,0.68598 -1.01716,1.126185 -2.07637,1.465175 0.0433,0.07851 0.082,0.157774 0.12057,0.236847 1.11744,-0.363922 2.03971,-0.850639 2.21329,-1.645834 0.30867,-1.414011 -0.70198,-2.096644 -1.67913,-2.756763 -0.26457,-0.178612 -0.53826,-0.36355 -0.77324,-0.557418 -1.41308,-1.166187 -2.02223,-2.525684 -2.48215,-3.708615 -0.53435,-1.374382 -1.91803,-2.095713 -3.354,-2.265022 0.0945,0.09861 0.18643,0.199822 0.27611,0.303268 1.23465,0.218428 2.37442,0.880036 2.83211,2.057572 z"
       id="path3669"
       style="fill:#00aae6;stroke-width:0.186054" /><path
       class="st8"
       d="m 156.97146,30.103215 c -0.44132,-0.02028 -0.88059,0.0078 -1.29493,0.08763 -1.45513,0.280941 -3.0031,1.238747 -2.98357,3.08459 0.007,0.640026 0.18773,1.296424 0.36263,1.931055 0.184,0.667375 0.37434,1.35745 0.37434,2.050129 0,0.707005 -0.2616,1.223492 -0.53863,1.770304 -0.21415,0.422901 -0.43574,0.860128 -0.52189,1.387033 -0.11218,0.686168 0.18606,1.440803 0.83967,2.125482 0.90441,0.947573 2.276,1.57718 3.37948,1.57718 0.10401,0 0.20559,-0.0056 0.30402,-0.01712 0.93585,-0.108655 1.23186,-0.520393 1.54499,-0.956317 0.23778,-0.330619 0.48355,-0.672586 1.05139,-0.946271 0.47704,-0.229963 1.24917,-0.41732 2.06669,-0.615839 0.46532,-0.112935 0.94646,-0.230149 1.40917,-0.362433 -0.0335,-0.08131 -0.0701,-0.16224 -0.10995,-0.242429 -0.44653,0.126145 -0.91149,0.239451 -1.36136,0.348665 -0.83129,0.201683 -1.61663,0.392202 -2.11897,0.634258 -0.62849,0.302897 -0.90609,0.689145 -1.15112,1.029996 -0.30234,0.420854 -0.54123,0.753147 -1.36117,0.84822 -1.05214,0.123912 -2.54038,-0.514253 -3.46228,-1.48006 -0.59519,-0.623467 -0.8685,-1.298471 -0.77026,-1.900914 0.0796,-0.486532 0.28224,-0.886733 0.49676,-1.310379 0.27889,-0.550347 0.56709,-1.119487 0.56709,-1.889378 0,-0.728402 -0.19498,-1.435966 -0.38364,-2.120272 -0.17842,-0.647096 -0.3468,-1.258097 -0.35332,-1.86389 -0.0177,-1.683602 1.41922,-2.56215 2.76979,-2.822812 0.31871,-0.06159 0.65268,-0.09303 0.99074,-0.09303 0.17619,0 0.3535,0.0099 0.53006,0.02717 -0.0897,-0.09563 -0.18158,-0.189217 -0.27573,-0.280569 z"
       id="path3671"
       style="fill:#00aae6;stroke-width:0.186054" /><path
       class="st8"
       d="m 156.37814,31.714815 c -1.1407,0.220287 -2.35415,0.972318 -2.33889,2.422609 0.005,0.5003 0.14624,1.011576 0.28243,1.505735 0.14233,0.515929 0.2895,1.049532 0.2895,1.583135 0,0.541603 -0.2015,0.939386 -0.41471,1.360427 -0.16727,0.33006 -0.34011,0.671283 -0.40765,1.084508 -0.0886,0.54179 0.14568,1.136419 0.65919,1.674673 0.707,0.740495 1.78036,1.232608 2.64439,1.232608 0.0815,0 0.1613,-0.0043 0.23852,-0.01321 0.73901,-0.08577 0.9725,-0.410436 1.2194,-0.754263 0.18214,-0.253592 0.37062,-0.515742 0.80468,-0.724867 0.36746,-0.177123 0.96488,-0.321874 1.59728,-0.475554 0.4748,-0.115168 0.97008,-0.236289 1.4274,-0.382527 -0.0573,-0.07405 -0.11721,-0.147727 -0.1801,-0.220846 -0.42867,0.132656 -0.88599,0.244288 -1.30944,0.34699 -0.64654,0.156844 -1.25717,0.304943 -1.64974,0.493974 -0.49454,0.238335 -0.71222,0.541417 -0.90423,0.808777 -0.23033,0.320757 -0.4123,0.573791 -1.03558,0.646166 -0.80784,0.096 -1.95226,-0.396296 -2.66169,-1.139581 -0.45527,-0.476857 -0.66477,-0.991668 -0.58979,-1.44992 0.061,-0.372852 0.21713,-0.68133 0.38272,-1.007855 0.21787,-0.430156 0.44318,-0.875011 0.44318,-1.479501 0,-0.569325 -0.15182,-1.120232 -0.2988,-1.65309 -0.13787,-0.500113 -0.26811,-0.972505 -0.27313,-1.438384 -0.0136,-1.288238 1.08897,-1.961009 2.12511,-2.161017 0.24577,-0.04744 0.50327,-0.07163 0.76394,-0.07163 0.43964,0 0.88729,0.06977 1.29977,0.213218 -0.0596,-0.110516 -0.12094,-0.220102 -0.18587,-0.328385 -0.63203,-0.169681 -1.31466,-0.190519 -1.92789,-0.07219 z"
       id="path3673"
       style="fill:#00aae6;stroke-width:0.186054" /><path
       class="st8"
       d="m 160.08712,33.543912 c 0.36765,0.94534 0.85529,2.03264 1.99525,2.973143 0.19107,0.157774 0.40802,0.304199 0.61807,0.445972 0.72542,0.490066 1.41085,0.952969 1.20526,1.89496 -0.0958,0.439088 -0.60598,0.751659 -1.25382,0.995576 0.0605,0.072 0.11777,0.144563 0.17396,0.217311 0.68858,-0.269593 1.22144,-0.625142 1.33736,-1.156512 0.24373,-1.116697 -0.58459,-1.676161 -1.31522,-2.169763 -0.20466,-0.138238 -0.41639,-0.281314 -0.59761,-0.430715 -1.09101,-0.900315 -1.56173,-1.951148 -1.91728,-2.865418 -0.29546,-0.759472 -0.92097,-1.265353 -1.65793,-1.544621 0.0674,0.12168 0.13136,0.244661 0.19238,0.369132 0.54421,0.268103 0.99222,0.686167 1.21958,1.270935 z"
       id="path3675"
       style="fill:#00aae6;stroke-width:0.186054" /><path
       class="st8"
       d="m 157.07993,33.238597 c -1.05437,0.203543 -1.7037,0.878361 -1.69439,1.760816 0.004,0.360758 0.10474,0.726726 0.20224,1.080787 0.10066,0.36448 0.20447,0.741426 0.20447,1.115766 0,0.376015 -0.1414,0.655097 -0.2908,0.950179 -0.12019,0.237405 -0.24447,0.482996 -0.29359,0.782543 -0.0649,0.397411 0.10512,0.832034 0.4789,1.223491 0.5096,0.53379 1.28433,0.888222 1.90892,0.888222 0.0591,0 0.11702,-0.0032 0.17321,-0.0097 0.54253,-0.06307 0.72096,-0.31164 0.8938,-0.552021 0.12689,-0.17638 0.25806,-0.359085 0.55798,-0.503463 0.25769,-0.124098 0.68059,-0.2268 1.12842,-0.335455 0.38941,-0.09452 0.79817,-0.194055 1.16321,-0.321316 -0.0763,-0.06716 -0.1548,-0.133772 -0.23573,-0.200008 -0.32076,0.102144 -0.66906,0.187171 -0.98962,0.264941 -0.46179,0.112191 -0.89809,0.21787 -1.18089,0.354061 -0.36038,0.173775 -0.51816,0.393318 -0.65751,0.587187 -0.16447,0.228846 -0.28336,0.394434 -0.70999,0.443925 -0.563,0.06698 -1.36377,-0.277965 -1.86091,-0.798731 -0.31536,-0.330245 -0.46086,-0.685236 -0.4095,-0.998924 0.0424,-0.259545 0.15219,-0.476298 0.26847,-0.705889 0.15703,-0.309966 0.31927,-0.630351 0.31927,-1.069439 0,-0.410062 -0.10865,-0.804311 -0.21378,-1.185908 -0.0973,-0.35313 -0.18939,-0.686725 -0.19293,-1.01325 -0.009,-0.892873 0.75873,-1.359869 1.48061,-1.499223 0.17267,-0.0333 0.35388,-0.05042 0.53696,-0.05042 0.55314,0 1.12358,0.156844 1.53587,0.489323 -0.0338,-0.131727 -0.0711,-0.262523 -0.11144,-0.392016 -0.5924,-0.340293 -1.35727,-0.431832 -2.01125,-0.305502 z"
       id="path3677"
       style="fill:#00aae6;stroke-width:0.186054" /><path
       class="st8"
       d="m 159.68934,34.590838 c 0.19015,0.488764 0.54403,1.39894 1.4302,2.130132 0.13731,0.113307 0.29247,0.218056 0.44225,0.319455 0.52709,0.355922 0.98218,0.663283 0.84134,1.308146 -0.0545,0.250057 -0.31314,0.441506 -0.66124,0.596676 0.0739,0.06289 0.14586,0.12633 0.21582,0.190333 0.36504,-0.180659 0.63351,-0.411924 0.7031,-0.730448 0.1788,-0.819568 -0.4216,-1.225166 -0.95148,-1.582948 -0.15145,-0.10233 -0.29452,-0.198892 -0.42215,-0.304198 -0.76878,-0.634444 -1.10108,-1.376429 -1.35225,-2.022408 -0.10977,-0.28243 -0.28336,-0.515555 -0.49732,-0.704028 0.0487,0.182147 0.0908,0.366526 0.12726,0.552766 0.048,0.07684 0.0904,0.158518 0.12447,0.246522 z"
       id="path3679"
       style="fill:#00aae6;stroke-width:0.186054" /><text
       xml:space="preserve"
       transform="matrix(0.26458333,0,0,0.26458333,-0.2424375,-1.4992551)"
       id="text4139"
       style="font-style:normal;font-variant:normal;font-weight:normal;font-stretch:normal;font-size:40px;line-height:1.25;font-family:Poppins-Light;-inkscape-font-specification:Poppins-Light;white-space:pre;shape-inside:url(#rect4141);display:inline;fill:#000000;fill-opacity:1;stroke:none" /><text
       xml:space="preserve"
       style="font-style:normal;font-weight:normal;font-size:10.5833px;line-height:1.25;font-family:sans-serif;fill:#00467d;fill-opacity:1;stroke:none;stroke-width:0.264583"
       x="112.61213"
       y="85.096069"
       id="text4636"><tspan
         sodipodi:role="line"
         style="font-style:normal;font-variant:normal;font-weight:normal;font-stretch:normal;font-size:16.9333px;font-family:Poppins;-inkscape-font-specification:Poppins;fill:#00467d;fill-opacity:1;stroke-width:0.264583"
         x="112.61213"
         y="85.096069"
         id="tspan2395">pydidas</tspan></text><text
       xml:space="preserve"
       style="font-style:normal;font-weight:normal;font-size:9.87778px;line-height:1.25;font-family:sans-serif;fill:#00467d;fill-opacity:1;stroke:none;stroke-width:0.264583"
       x="112.51305"
       y="96.610146"
       id="text2449"><tspan
         sodipodi:role="line"
         id="tspan2447"
         style="font-style:normal;font-variant:normal;font-weight:normal;font-stretch:normal;font-size:9.87778px;font-family:Poppins;-inkscape-font-specification:Poppins;fill:#00467d;fill-opacity:1;stroke-width:0.264583"
         x="112.51305"
         y="96.610146">user interface</tspan></text></g></svg>
